<svg width="175" height="116" viewBox="0 0 175 116" fill="none" xmlns="http://www.w3.org/2000/svg">
<path d="M174.028 0H90.2907V25.8011H136.892L116.504 57.1809L136.892 59.2729C143.883 60.9465 147.087 67.8733 147.815 71.1275C149.562 82.2847 141.261 87.3985 136.892 88.5607C124.077 90.7921 117.475 82.5172 115.776 78.1007L90.2907 89.258C101.359 114.92 130.824 116.221 144.174 113.664C166.31 108.086 173.785 89.9553 174.756 81.5874C177.086 62.0622 162.135 48.3481 154.368 43.9317L174.028 0Z" fill="#FCD549"/>
<path d="M80.0967 25.1038V0H0V115.059H101.213C83.1549 107.249 79.6112 94.1393 80.0967 88.5607H34.2231V69.7328H80.0967V43.9317H34.2231V25.1038H80.0967Z" fill="#EA3D2E"/>
</svg>
