<svg width="254" height="167" viewBox="0 0 254 167" fill="none" xmlns="http://www.w3.org/2000/svg">
<path d="M252.589 0H131.05V37.4485H198.689L169.097 82.9939L198.689 86.0303C208.835 88.4594 213.485 98.5131 214.542 103.236C217.079 119.43 205.03 126.853 198.689 128.539C180.089 131.778 170.506 119.768 168.04 113.358L131.05 129.552C147.115 166.798 189.882 168.687 209.258 164.976C241.386 156.879 252.237 130.564 253.646 118.418C257.028 90.0788 235.327 70.1737 224.054 63.7636L252.589 0Z" fill="#FCD549"/>
<path d="M116.255 36.4364V0H0V167H146.903C120.693 155.664 115.55 136.636 116.255 128.539H49.6724V101.212H116.255V63.7636H49.6724V36.4364H116.255Z" fill="#EA3D2E"/>
</svg>
