<svg width="14" height="18" viewBox="0 0 14 18" fill="none" xmlns="http://www.w3.org/2000/svg">
<path d="M10.8841 5.9647L10.8843 5.96491C12.3247 7.1681 13.15 8.94901 13.15 10.8498C13.15 14.3203 10.3947 17.1499 7.00002 17.1499H6.99992H6.99989L10.8841 5.9647ZM10.8841 5.9647L10.3954 5.5583L10.2336 5.42374M10.8841 5.9647L10.2336 5.42374M10.2336 5.42374L10.1592 5.62058M10.2336 5.42374L10.1592 5.62058M10.1592 5.62058L9.93174 6.22221C9.93175 6.22219 9.93174 6.22221 9.93171 6.22228C9.9307 6.22491 9.90458 6.29226 9.85636 6.38911C9.80674 6.48877 9.73526 6.61654 9.64556 6.73641C9.45577 6.99004 9.23791 7.14241 9.00328 7.07027C8.89633 7.03737 8.82991 6.97922 8.78202 6.874L8.78201 6.87397M10.1592 5.62058L8.78201 6.87397M8.78201 6.87397C8.71437 6.72546 8.68873 6.49892 8.71879 6.21807C8.74849 5.94053 8.83113 5.62417 8.96448 5.30609L8.82614 5.24809L8.96448 5.30608C9.37119 4.3359 9.18663 3.32375 8.46036 2.39286L8.46036 2.39286C7.95332 1.74301 7.34605 1.3507 7.31575 1.33131L7.31572 1.33129L6.60005 0.873573L6.36409 0.722661L6.36926 1.00271L6.38521 1.86722V1.86723C6.38523 1.86963 6.38893 2.23955 6.26059 2.67404C6.13143 3.11131 5.87596 3.59053 5.37348 3.84564C4.65928 4.20823 4.14354 4.81078 3.92727 5.54421L3.92727 5.54421C3.72515 6.22975 3.80991 6.97876 4.16019 7.60034L4.16019 7.60034C4.28707 7.82546 4.3049 7.98167 4.27055 8.08368L4.4127 8.13157M8.78201 6.87397L4.29087 7.52669C4.4261 7.76664 4.46706 7.97015 4.4127 8.13157M4.4127 8.13157C4.33501 8.3622 4.08402 8.48093 4.00891 8.51183L4.27055 8.0837M4.4127 8.13157L4.27055 8.0837M4.27055 8.0837C4.24476 8.16023 4.18747 8.22505 4.11892 8.27729C4.05113 8.32896 3.98249 8.3605 3.95185 8.37311L3.95181 8.37312C3.63931 8.50178 3.37429 8.36171 3.16002 8.14208C2.94797 7.92473 2.82177 7.66173 2.81168 7.64021M4.27055 8.0837L2.81168 7.64021M2.81168 7.64021C2.81161 7.64005 2.81153 7.63989 2.81147 7.63975L2.45014 6.84914L2.33102 6.58852L2.18473 6.83492L1.74135 7.5817C1.15801 8.56414 0.85 9.69423 0.85 10.8498C0.85 14.2947 3.56485 17.1076 6.92506 17.149L2.81168 7.64021ZM8.64961 13.2477L8.52558 13.3321C8.64946 13.5142 8.72828 13.8056 8.72672 14.1359V14.1366V14.1389C8.72672 14.6138 8.54643 15.0591 8.21962 15.3941C7.89334 15.7285 7.46061 15.9118 6.99992 15.9118H6.99992H6.99991H6.9999H6.9999H6.99989H6.99988H6.99987H6.99987H6.99986H6.99985H6.99985H6.99984H6.99983H6.99982H6.99982H6.99981H6.9998H6.9998H6.99979C6.05188 15.9117 5.27383 15.1199 5.2735 14.1383L5.27349 14.1376L5.27346 14.1318L5.27345 14.1308C5.26969 13.8174 5.32085 13.4805 5.4282 13.1242L6.41486 13.4198L6.60423 13.4765L6.60789 13.2789L6.61927 12.6654C6.63311 11.9178 6.9837 11.4166 7.32886 11.1019C7.43712 11.4956 7.589 11.8553 7.78718 12.1874L7.78723 12.1874C8.0496 12.6263 8.29786 12.998 8.52566 13.3322L8.64961 13.2477ZM8.64961 13.2477C8.42242 12.9144 8.17609 12.5456 7.91598 12.1105L5.12349 14.1383C5.12386 15.1992 5.96554 16.0617 6.99977 16.0618H6.99992C7.50154 16.0618 7.97284 15.8619 8.327 15.4988C8.68149 15.1354 8.87672 14.6524 8.87672 14.1389V14.1366C8.87837 13.7863 8.79558 13.4623 8.64961 13.2477ZM7.54621 9.51764L8.10314 9.30144L8.28718 9.22999L8.30669 9.42645L8.367 10.0338L8.367 10.0338C8.42695 10.6381 8.57835 11.13 8.82515 11.5435C9.05656 11.9305 9.27135 12.2555 9.52398 12.6263L9.52405 12.6264C9.79944 13.0312 9.94426 13.5697 9.94186 14.1402M7.54621 9.51764L10.646 7.43763C11.4719 8.36408 11.9348 9.57235 11.9348 10.8497C11.9349 12.567 11.0969 14.0864 9.81956 15.0019C9.90001 14.7256 9.94175 14.4361 9.94186 14.1402M7.54621 9.51764C7.5462 9.51764 7.54619 9.51764 7.54619 9.51764C7.48394 9.5418 6.99317 9.74105 6.49069 10.2083C5.9971 10.6673 5.66337 11.2283 5.50653 11.8571M7.54621 9.51764L5.50653 11.8571M9.94186 14.1402C9.94186 14.1403 9.94186 14.1404 9.94186 14.1405L9.79186 14.1398L9.94186 14.1399C9.94186 14.14 9.94186 14.1401 9.94186 14.1402ZM5.50653 11.8571L4.84283 11.6582L4.71453 11.6198L4.66186 11.7429L4.5004 12.1204C4.20165 12.8189 4.05122 13.4993 4.05836 14.1422C4.05836 14.1425 4.05836 14.1427 4.05836 14.143L4.20835 14.1413C4.20869 14.4928 4.27121 14.8297 4.3852 15.141C4.31627 15.0966 4.24848 15.0506 4.18188 15.0029M5.50653 11.8571L4.18188 15.0029M4.18188 15.0029C2.90372 14.0875 2.06511 12.5676 2.06511 10.8497C2.06511 10.2435 2.17033 9.64647 2.3732 9.08593C2.96589 9.65244 3.69135 9.81563 4.40693 9.5211M4.18188 15.0029L4.40693 9.5211M4.40693 9.5211C4.40693 9.5211 4.40692 9.5211 4.40692 9.5211L4.34984 9.38239L4.40693 9.5211ZM4.40693 9.5211C4.89189 9.32151 5.26443 8.94687 5.41981 8.4857C5.53192 8.15297 5.57754 7.62899 5.2139 6.98373C5.02649 6.65115 4.98287 6.26708 5.09096 5.90046C5.09096 5.90046 5.09096 5.90046 5.09096 5.90046L4.40693 9.5211ZM8.65207 8.25559C9.35076 8.4705 10.025 8.21177 10.5421 7.57364L8.65207 8.25559ZM7.41703 3.05077C7.45256 3.09231 7.48765 3.13537 7.52186 3.17986L7.52188 3.17988C7.96821 3.76 8.06253 4.30551 7.84698 4.81973C7.45226 5.76134 7.37507 6.72617 7.67968 7.39513C7.87328 7.82036 8.21079 8.11987 8.65206 8.25558L7.41703 3.05077Z" fill="#0E0E10" stroke="#0E0E10" stroke-width="0.3"/>
</svg>
