<svg width="8" height="10" viewBox="0 0 8 10" fill="none" xmlns="http://www.w3.org/2000/svg">
<path d="M8 1.87533H7.38462V9.06254C7.38462 9.19274 7.36058 9.31481 7.3125 9.42873C7.26442 9.54266 7.19872 9.64194 7.11538 9.72657C7.03205 9.81121 6.9343 9.87794 6.82212 9.92676C6.70994 9.97559 6.58974 10 6.46154 10H1.53846C1.41026 10 1.29006 9.97559 1.17788 9.92676C1.06571 9.87794 0.967949 9.81121 0.884615 9.72657C0.801282 9.64194 0.735577 9.54266 0.6875 9.42873C0.639423 9.31481 0.615385 9.19274 0.615385 9.06254V1.87533H0V1.25036H2.46154V0.625381C2.46154 0.537494 2.47756 0.456118 2.50962 0.381251C2.54167 0.306384 2.58494 0.241283 2.63942 0.185946C2.69391 0.13061 2.75962 0.0850389 2.83654 0.049233C2.91346 0.0134272 2.99359 -0.00284819 3.07692 0.000406885H4.92308C5.00962 0.000406885 5.08974 0.0166823 5.16346 0.049233C5.23718 0.0817838 5.30128 0.125727 5.35577 0.181064C5.41026 0.2364 5.45513 0.303129 5.49038 0.381251C5.52564 0.459373 5.54167 0.540749 5.53846 0.625381V1.25036H8V1.87533ZM3.07692 1.25036H4.92308V0.625381H3.07692V1.25036ZM6.76923 1.87533H1.23077V9.06254C1.23077 9.14717 1.26122 9.22041 1.32212 9.28226C1.38301 9.3441 1.45513 9.37503 1.53846 9.37503H6.46154C6.54487 9.37503 6.61699 9.3441 6.67788 9.28226C6.73878 9.22041 6.76923 9.14717 6.76923 9.06254V1.87533ZM3.07692 8.12508H2.46154V3.12528H3.07692V8.12508ZM4.30769 8.12508H3.69231V3.12528H4.30769V8.12508ZM5.53846 8.12508H4.92308V3.12528H5.53846V8.12508Z" fill="#A6AAB5"/>
</svg>
