<svg width="16" height="19" viewBox="0 0 16 19" fill="none" xmlns="http://www.w3.org/2000/svg">
<rect x="3.03027" y="10" width="6" height="2" rx="1" fill="#BDBDBD"/>
<path d="M9.7879 0H2.22656C0.998836 0 0 0.998836 0 2.22656V16.7734C0 18.0012 0.998836 19 2.22656 19H12.8357C14.0635 19 15.0623 18.0012 15.0623 16.7734V5.3013L9.7879 0ZM10.2009 2.51973L12.5347 4.86545H10.9431C10.5338 4.86545 10.2009 4.5325 10.2009 4.12326V2.51973ZM13.5779 16.7734C13.5779 17.1827 13.2449 17.5156 12.8357 17.5156H2.22656C1.81732 17.5156 1.48438 17.1827 1.48438 16.7734V2.22656C1.48438 1.81732 1.81732 1.48438 2.22656 1.48438H8.71659V4.12326C8.71659 5.35099 9.71542 6.34982 10.9431 6.34982H13.5779V16.7734Z" fill="#BDBDBD"/>
</svg>
