<svg width="35" height="28" viewBox="0 0 35 28" fill="none" xmlns="http://www.w3.org/2000/svg">
<path d="M32.4062 5.75H31.3438V4.15625C31.3433 3.73371 31.1752 3.32861 30.8764 3.02982C30.5776 2.73104 30.1725 2.56297 29.75 2.5625H16.1238L13.6133 0.55391C13.519 0.478518 13.4019 0.437462 13.2812 0.4375H5.3125C4.88996 0.437975 4.48486 0.606039 4.18607 0.904823C3.88729 1.20361 3.71922 1.60871 3.71875 2.03125V5.75H2.65625C2.23371 5.75047 1.82861 5.91854 1.52982 6.21732C1.23104 6.51611 1.06297 6.92121 1.0625 7.34375V25.4062C1.06297 25.8288 1.23104 26.2339 1.52982 26.5327C1.82861 26.8315 2.23371 26.9995 2.65625 27H32.4062C32.8288 26.9995 33.2339 26.8315 33.5327 26.5327C33.8315 26.2339 33.9995 25.8288 34 25.4062V7.34375C33.9995 6.92121 33.8315 6.51611 33.5327 6.21732C33.2339 5.91854 32.8288 5.75047 32.4062 5.75ZM4.78125 2.03125C4.78141 1.8904 4.83743 1.75537 4.93702 1.65577C5.03662 1.55618 5.17165 1.50016 5.3125 1.5H13.0949L15.6055 3.50859C15.6997 3.58398 15.8168 3.62504 15.9375 3.625H29.75C29.8908 3.62516 30.0259 3.68118 30.1255 3.78077C30.2251 3.88037 30.2811 4.0154 30.2812 4.15625V5.75H4.78125V2.03125ZM32.9375 25.4062C32.9373 25.5471 32.8813 25.6821 32.7817 25.7817C32.6821 25.8813 32.5471 25.9373 32.4062 25.9375H2.65625C2.5154 25.9373 2.38037 25.8813 2.28077 25.7817C2.18118 25.6821 2.12516 25.5471 2.125 25.4062V7.34375C2.12516 7.2029 2.18118 7.06787 2.28077 6.96827C2.38037 6.86868 2.5154 6.81266 2.65625 6.8125H32.4062C32.5471 6.81266 32.6821 6.86868 32.7817 6.96827C32.8813 7.06787 32.9373 7.2029 32.9375 7.34375V25.4062Z" fill="#FFAA29" stroke="#FFAA29" stroke-width="0.5"/>
<path d="M9.6333 23.2104H4.3208C4.1799 23.2104 4.04478 23.2664 3.94515 23.366C3.84552 23.4657 3.78955 23.6008 3.78955 23.7417C3.78955 23.8826 3.84552 24.0177 3.94515 24.1174C4.04478 24.217 4.1799 24.2729 4.3208 24.2729H9.6333C9.7742 24.2729 9.90932 24.217 10.009 24.1174C10.1086 24.0177 10.1646 23.8826 10.1646 23.7417C10.1646 23.6008 10.1086 23.4657 10.009 23.366C9.90932 23.2664 9.7742 23.2104 9.6333 23.2104Z" fill="#FFAA29" stroke="#FFAA29" stroke-width="0.5"/>
<path d="M12.8906 23.2104H12.3594C12.2185 23.2104 12.0834 23.2664 11.9837 23.366C11.8841 23.4657 11.8281 23.6008 11.8281 23.7417C11.8281 23.8826 11.8841 24.0177 11.9837 24.1174C12.0834 24.217 12.2185 24.2729 12.3594 24.2729H12.8906C13.0315 24.2729 13.1666 24.217 13.2663 24.1174C13.3659 24.0177 13.4219 23.8826 13.4219 23.7417C13.4219 23.6008 13.3659 23.4657 13.2663 23.366C13.1666 23.2664 13.0315 23.2104 12.8906 23.2104Z" fill="#FFAA29" stroke="#FFAA29" stroke-width="0.5"/>
<path d="M18.0556 11.2301C17.9826 11.1572 17.896 11.0993 17.8007 11.0598C17.7054 11.0203 17.6032 11 17.5 11C17.3968 11 17.2946 11.0203 17.1993 11.0598C17.104 11.0993 17.0174 11.1572 16.9444 11.2301L12.2301 15.9444C12.1203 16.0543 12.0454 16.1943 12.0151 16.3467C11.9848 16.4991 12.0003 16.6571 12.0598 16.8007C12.1193 16.9443 12.22 17.067 12.3492 17.1533C12.4784 17.2397 12.6303 17.2857 12.7857 17.2857H14.3572V21.2143C14.3572 21.4227 14.4399 21.6225 14.5873 21.7699C14.7346 21.9172 14.9345 22 15.1429 22H19.8571C20.0655 22 20.2654 21.9172 20.4127 21.7699C20.5601 21.6225 20.6428 21.4227 20.6428 21.2143V17.2857H22.2143C22.3697 17.2857 22.5216 17.2397 22.6508 17.1533C22.78 17.067 22.8807 16.9443 22.9402 16.8007C22.9997 16.6571 23.0152 16.4991 22.9849 16.3467C22.9546 16.1943 22.8797 16.0543 22.7699 15.9444L18.0556 11.2301ZM19.8571 15.7143C19.6487 15.7143 19.4489 15.7971 19.3015 15.9444C19.1542 16.0918 19.0714 16.2916 19.0714 16.5V20.4286H15.9286V16.5C15.9286 16.2916 15.8458 16.0918 15.6985 15.9444C15.5511 15.7971 15.3513 15.7143 15.1429 15.7143H14.6825L17.5 12.8968L20.3175 15.7143H19.8571Z" fill="#FFAA29" stroke="#FFAA29" stroke-width="0.5"/>
</svg>
