<svg width="7" height="14" viewBox="0 0 7 14" fill="none" xmlns="http://www.w3.org/2000/svg">
<rect width="7" height="14" fill="#E8E8E8"/>
<g clip-path="url(#clip0)">
<path fill-rule="evenodd" clip-rule="evenodd" d="M1.57581 -204.686C0.919678 -205.105 0.0802307 -205.105 -0.575928 -204.686L-7.72729 -200.123H8.72717L1.57581 -204.686ZM-269 -200C-274.523 -200 -279 -195.523 -279 -190V540C-279 545.523 -274.523 550 -269 550H25C30.5229 550 35 545.523 35 540V-190C35 -195.523 30.5229 -200 25 -200H-269Z" fill="#F2F2F2"/>
<rect x="-268" y="-22" width="292" height="129" rx="8" stroke="#E8E5E5"/>
<path fill-rule="evenodd" clip-rule="evenodd" d="M0.999503 13.9998C0.773503 13.9998 0.546503 13.9238 0.359503 13.7678C-0.0644969 13.4148 -0.121497 12.7838 0.231503 12.3598L4.7075 6.98883L0.392503 1.62683C0.0465031 1.19683 0.114503 0.566829 0.544503 0.220829C0.975503 -0.125171 1.6045 -0.0571711 1.9515 0.372829L6.7795 6.37283C7.0775 6.74383 7.0735 7.27383 6.7685 7.63983L1.7685 13.6398C1.5705 13.8768 1.2865 13.9998 0.999503 13.9998Z" fill="#404040"/>
</g>
<defs>
<clipPath id="clip0">
<rect width="315" height="755" fill="white" transform="translate(-279 -205)"/>
</clipPath>
</defs>
</svg>
