<svg width="35" height="35" viewBox="0 0 35 35" fill="none" xmlns="http://www.w3.org/2000/svg">
<rect width="35" height="35" fill="#E8E8E8"/>
<g clip-path="url(#clip0)">
<path fill-rule="evenodd" clip-rule="evenodd" d="M255.576 -331.686C254.92 -332.105 254.08 -332.105 253.424 -331.686L246.273 -327.123H262.727L255.576 -331.686ZM-15 -327C-20.5229 -327 -25 -322.523 -25 -317V413C-25 418.523 -20.5229 423 -15 423H279C284.523 423 289 418.523 289 413V-317C289 -322.523 284.523 -327 279 -327H-15Z" fill="#F2F2F2"/>
<rect x="-14" y="-14" width="292" height="284" rx="8" stroke="#E8E5E5"/>
<circle cx="17.5161" cy="17.2266" r="17" fill="white"/>
<path fill-rule="evenodd" clip-rule="evenodd" d="M12.5161 12.2266C12.5161 11.6736 12.9641 11.2266 13.5161 11.2266C14.0681 11.2266 14.5161 11.6736 14.5161 12.2266C14.5161 12.7796 14.0681 13.2266 13.5161 13.2266C12.9641 13.2266 12.5161 12.7796 12.5161 12.2266ZM16.5161 12.2266C16.5161 11.6736 16.9641 11.2266 17.5161 11.2266C18.0681 11.2266 18.5161 11.6736 18.5161 12.2266C18.5161 12.7796 18.0681 13.2266 17.5161 13.2266C16.9641 13.2266 16.5161 12.7796 16.5161 12.2266ZM10.5161 14.2266V11.2266C10.5161 10.6746 10.9651 10.2266 11.5161 10.2266H23.5161C24.0671 10.2266 24.5161 10.6746 24.5161 11.2266V14.2266H10.5161ZM24.5161 23.2266C24.5161 23.7786 24.0671 24.2266 23.5161 24.2266H11.5161C10.9651 24.2266 10.5161 23.7786 10.5161 23.2266V16.2266H24.5161V23.2266ZM23.5161 8.22656H11.5161C9.86211 8.22656 8.51611 9.57256 8.51611 11.2266V14.2266V16.2266V23.2266C8.51611 24.8806 9.86211 26.2266 11.5161 26.2266H23.5161C25.1701 26.2266 26.5161 24.8806 26.5161 23.2266V16.2266V14.2266V11.2266C26.5161 9.57256 25.1701 8.22656 23.5161 8.22656Z" fill="#0E0E10"/>
<mask id="mask0" mask-type="alpha" maskUnits="userSpaceOnUse" x="8" y="8" width="19" height="19">
<path fill-rule="evenodd" clip-rule="evenodd" d="M12.5161 12.2266C12.5161 11.6736 12.9641 11.2266 13.5161 11.2266C14.0681 11.2266 14.5161 11.6736 14.5161 12.2266C14.5161 12.7796 14.0681 13.2266 13.5161 13.2266C12.9641 13.2266 12.5161 12.7796 12.5161 12.2266ZM16.5161 12.2266C16.5161 11.6736 16.9641 11.2266 17.5161 11.2266C18.0681 11.2266 18.5161 11.6736 18.5161 12.2266C18.5161 12.7796 18.0681 13.2266 17.5161 13.2266C16.9641 13.2266 16.5161 12.7796 16.5161 12.2266ZM10.5161 14.2266V11.2266C10.5161 10.6746 10.9651 10.2266 11.5161 10.2266H23.5161C24.0671 10.2266 24.5161 10.6746 24.5161 11.2266V14.2266H10.5161ZM24.5161 23.2266C24.5161 23.7786 24.0671 24.2266 23.5161 24.2266H11.5161C10.9651 24.2266 10.5161 23.7786 10.5161 23.2266V16.2266H24.5161V23.2266ZM23.5161 8.22656H11.5161C9.86211 8.22656 8.51611 9.57256 8.51611 11.2266V14.2266V16.2266V23.2266C8.51611 24.8806 9.86211 26.2266 11.5161 26.2266H23.5161C25.1701 26.2266 26.5161 24.8806 26.5161 23.2266V16.2266V14.2266V11.2266C26.5161 9.57256 25.1701 8.22656 23.5161 8.22656Z" fill="white"/>
</mask>
<g mask="url(#mask0)">
</g>
</g>
<defs>
<clipPath id="clip0">
<rect width="315" height="755" fill="white" transform="translate(-25 -332)"/>
</clipPath>
</defs>
</svg>
