<svg width="18" height="21" viewBox="0 0 18 21" fill="none" xmlns="http://www.w3.org/2000/svg">
<path d="M17 4.69311H15.7692V18.847C15.7692 19.1034 15.7212 19.3438 15.625 19.5681C15.5288 19.7925 15.3974 19.988 15.2308 20.1546C15.0641 20.3213 14.8686 20.4527 14.6442 20.5489C14.4199 20.645 14.1795 20.6931 13.9231 20.6931H4.07692C3.82051 20.6931 3.58013 20.645 3.35577 20.5489C3.13141 20.4527 2.9359 20.3213 2.76923 20.1546C2.60256 19.988 2.47115 19.7925 2.375 19.5681C2.27885 19.3438 2.23077 19.1034 2.23077 18.847V4.69311H1V3.46234H5.92308V2.23157C5.92308 2.05849 5.95513 1.89824 6.01923 1.7508C6.08333 1.60337 6.16987 1.47516 6.27885 1.36619C6.38782 1.25721 6.51923 1.16747 6.67308 1.09696C6.82692 1.02644 6.98718 0.994391 7.15385 1.0008H10.8462C11.0192 1.0008 11.1795 1.03285 11.3269 1.09696C11.4744 1.16106 11.6026 1.2476 11.7115 1.35657C11.8205 1.46554 11.9103 1.59696 11.9808 1.7508C12.0513 1.90465 12.0833 2.0649 12.0769 2.23157V3.46234H17V4.69311ZM7.15385 3.46234H10.8462V2.23157H7.15385V3.46234ZM14.5385 4.69311H3.46154V18.847C3.46154 19.0136 3.52244 19.1579 3.64423 19.2796C3.76603 19.4014 3.91026 19.4623 4.07692 19.4623H13.9231C14.0897 19.4623 14.234 19.4014 14.3558 19.2796C14.4776 19.1579 14.5385 19.0136 14.5385 18.847V4.69311ZM7.15385 17.0008H5.92308V7.15465H7.15385V17.0008ZM9.61539 17.0008H8.38462V7.15465H9.61539V17.0008ZM12.0769 17.0008H10.8462V7.15465H12.0769V17.0008Z" fill="#333333" stroke="#94969D" stroke-width="0.3"/>
</svg>
