<svg width="18" height="20" viewBox="0 0 18 20" fill="none" xmlns="http://www.w3.org/2000/svg">
<path d="M16.125 8.4C16.3875 8.4 16.6313 8.44688 16.8563 8.54063C17.0813 8.63438 17.2812 8.7625 17.4563 8.925C17.6313 9.0875 17.7625 9.28438 17.85 9.51562C17.9375 9.74688 17.9875 9.99375 18 10.2563C18 10.5 17.9531 10.7375 17.8594 10.9688C17.7656 11.2 17.6313 11.4031 17.4563 11.5781L10.7344 18.3L7.2 19.1813L8.08125 15.6469L14.8031 8.93438C14.9844 8.75313 15.1875 8.61875 15.4125 8.53125C15.6375 8.44375 15.875 8.4 16.125 8.4ZM16.8 10.2563C16.8 10.0563 16.7375 9.89688 16.6125 9.77813C16.4875 9.65938 16.325 9.6 16.125 9.6C16.0375 9.6 15.9531 9.6125 15.8719 9.6375C15.7906 9.6625 15.7188 9.70938 15.6563 9.77813L9.16875 16.2656L8.85 17.5312L10.1156 17.2125L16.6031 10.7344C16.7344 10.6031 16.8 10.4438 16.8 10.2563ZM1.2 1.2V18H5.94375L5.65313 19.2H0V0H10.4531L15.6 5.14688V6.94688C15.3688 6.97813 15.1625 7.025 14.9813 7.0875C14.8 7.15 14.6063 7.24688 14.4 7.37813V6H9.6V1.2H1.2ZM10.8 2.05313V4.8H13.5469L10.8 2.05313ZM12 8.4V9.6H3.6V8.4H12ZM3.6 14.4V13.2H8.40938L7.20938 14.4H3.6ZM10.8094 10.8L9.60938 12H3.6V10.8H10.8094Z" fill="#E73D2F"/>
</svg>
