<svg width="20" height="20" viewBox="0 0 20 20" fill="none" xmlns="http://www.w3.org/2000/svg">
<rect width="20" height="20" fill="#E8E8E8"/>
<g clip-path="url(#clip0)">
<rect width="1600" height="856" transform="translate(-982 -814)" fill="white"/>
<rect x="-7" y="-6" width="113" height="32" rx="5" fill="#FDD647"/>
<circle cx="10" cy="10" r="10" fill="#F2F2F2"/>
<path d="M14.7754 6.17947L14.7056 6.20707L14.7754 6.17947L14.3018 4.98282C14.3018 4.98281 14.3018 4.9828 14.3018 4.98279C14.1605 4.62557 13.7708 4.35835 13.3893 4.35835H6.61116C6.22959 4.35835 5.83989 4.62557 5.6987 4.98268C5.6987 4.98268 5.69869 4.98269 5.69869 4.9827L5.22503 6.17951L5.22502 6.17953C5.12756 6.42593 5.05488 6.80768 5.05488 7.07327V7.83478C5.05488 8.32153 5.27513 8.75709 5.61973 9.04569V11.2485C5.29254 11.3514 5.05488 11.6598 5.05488 12.023V15.8305C5.05488 16.2771 5.41433 16.6417 5.85802 16.6417H14.1424C14.5861 16.6417 14.9455 16.2771 14.9455 15.8305V12.023C14.9455 11.6598 14.7079 11.3514 14.3807 11.2485V9.04567C14.7253 8.75707 14.9455 8.32153 14.9455 7.83478V7.07327C14.9455 6.80761 14.8729 6.42588 14.7754 6.17947ZM6.49103 5.30187L6.49104 5.30184C6.49474 5.29249 6.51197 5.27052 6.54363 5.24884C6.57539 5.2271 6.60174 5.21929 6.61116 5.21929H13.3893C13.3987 5.21929 13.425 5.22709 13.4568 5.24886C13.4884 5.27054 13.5057 5.29254 13.5094 5.30198L13.5094 5.30201L13.983 6.49875C13.9984 6.53752 14.0138 6.58729 14.028 6.64283H5.97237C5.9866 6.58732 6.00199 6.53757 6.01731 6.4988C6.01731 6.4988 6.01731 6.49879 6.01732 6.49878L6.49103 5.30187ZM14.0924 12.0727V15.7807H5.90803V12.0727H6.04629H7.17598H12.8244H13.9541H14.0924ZM7.60254 11.2118V9.04576C7.6511 9.00516 7.69731 8.96167 7.74077 8.91543C8.02437 9.21804 8.42587 9.40751 8.87051 9.40751C9.31512 9.40751 9.7166 9.21806 10.0002 8.91549C10.2838 9.21806 10.6853 9.40751 11.1299 9.40751C11.5745 9.40751 11.976 9.21806 12.2596 8.91544C12.3031 8.96167 12.3493 9.00516 12.3979 9.04577V11.2118H7.60254ZM5.90801 7.83478V7.50374H7.31426V7.83478C7.31426 8.22798 6.998 8.54655 6.61116 8.54655C6.22428 8.54655 5.90801 8.22798 5.90801 7.83478ZM9.57363 7.50374V7.83478C9.57363 8.22798 9.25736 8.54655 8.87051 8.54655C8.48366 8.54655 8.16738 8.22796 8.16738 7.83478V7.50374H9.57363ZM11.833 7.50374V7.83478C11.833 8.22798 11.5168 8.54655 11.1299 8.54655C10.743 8.54655 10.4268 8.22796 10.4268 7.83478V7.50374H11.833ZM12.6862 7.83478V7.50374H14.0924V7.83478C14.0924 8.22798 13.7761 8.54655 13.3893 8.54655C13.0024 8.54655 12.6862 8.22798 12.6862 7.83478ZM6.61116 9.40749C6.65792 9.40749 6.70402 9.40518 6.74944 9.40095V11.2118H6.47288V9.40117C6.51838 9.40531 6.5645 9.40749 6.61116 9.40749ZM13.5276 11.2118H13.251V9.40095C13.2964 9.40518 13.3425 9.40749 13.3893 9.40749C13.4359 9.40749 13.482 9.40531 13.5276 9.40117V11.2118Z" fill="#0E0E10" stroke="#0E0E10" stroke-width="0.15"/>
</g>
<defs>
<clipPath id="clip0">
<rect width="1600" height="856" fill="white" transform="translate(-982 -814)"/>
</clipPath>
</defs>
</svg>
