<svg width="18" height="18" viewBox="0 0 18 18" fill="none" xmlns="http://www.w3.org/2000/svg">
<circle cx="9" cy="9" r="9" fill="white"/>
<path fill-rule="evenodd" clip-rule="evenodd" d="M13.5 4.5L11 7L9 4.5L7 7L4.5 4.5V11H13.5V4.5ZM5.5 14H12.5C13.0523 14 13.5 13.5523 13.5 13V12H4.5V13C4.5 13.5523 4.94772 14 5.5 14Z" fill="#F2994A"/>
<path d="M13.065 7.50003C12.6685 7.50275 12.3477 7.82352 12.345 8.22003C12.3423 7.82352 12.0215 7.50275 11.625 7.50003C12.0226 7.50003 12.345 7.17767 12.345 6.78003C12.345 7.17767 12.6674 7.50003 13.065 7.50003Z" fill="#404040"/>
<path d="M5.59479 12.22C5.19827 12.2227 4.87751 12.5435 4.87479 12.94C4.87206 12.5435 4.5513 12.2227 4.15479 12.22C4.55243 12.22 4.87479 11.8976 4.87479 11.5C4.87479 11.8976 5.19714 12.22 5.59479 12.22Z" fill="#404040"/>
<path d="M11.4702 8.25C11.3325 8.25095 11.2212 8.36232 11.2202 8.5C11.2193 8.36232 11.1079 8.25095 10.9702 8.25C11.1083 8.25 11.2202 8.13807 11.2202 8C11.2202 8.13807 11.3321 8.25 11.4702 8.25Z" fill="#404040"/>
<path d="M4.5 12.75C4.36232 12.7509 4.25095 12.8623 4.25 13C4.24905 12.8623 4.13768 12.7509 4 12.75C4.13807 12.75 4.25 12.6381 4.25 12.5C4.25 12.6381 4.36193 12.75 4.5 12.75Z" fill="#404040"/>
<path d="M12 8.75C11.8623 8.75095 11.7509 8.86232 11.75 9C11.7491 8.86232 11.6377 8.75095 11.5 8.75C11.6381 8.75 11.75 8.63807 11.75 8.5C11.75 8.63807 11.8619 8.75 12 8.75Z" fill="#404040"/>
<path d="M5.5 13.25C5.36232 13.2509 5.25095 13.3623 5.25 13.5C5.24905 13.3623 5.13768 13.2509 5 13.25C5.13807 13.25 5.25 13.1381 5.25 13C5.25 13.1381 5.36193 13.25 5.5 13.25Z" fill="#404040"/>
<path d="M5.94 5.22C5.54349 5.22273 5.22273 5.54349 5.22 5.94C5.21727 5.54349 4.89651 5.22273 4.5 5.22C4.89765 5.22 5.22 4.89765 5.22 4.5C5.22 4.89765 5.54236 5.22 5.94 5.22Z" fill="#404040"/>
<path d="M12.5 12.69C12.087 12.6928 11.7528 13.027 11.75 13.44C11.7472 13.027 11.413 12.6928 11 12.69C11.4142 12.69 11.75 12.3542 11.75 11.94C11.75 12.3542 12.0858 12.69 12.5 12.69Z" fill="#404040"/>
</svg>
