<svg width="36" height="36" viewBox="0 0 36 36" fill="none" xmlns="http://www.w3.org/2000/svg">
<rect width="36" height="36" fill="#E8E8E8"/>
<g clip-path="url(#clip0)">
<rect width="1600" height="856" transform="translate(-1545 -798)" fill="white"/>
<rect x="-333" y="-22" width="388" height="80" fill="#F5F5F5"/>
<circle opacity="0.518671" cx="18" cy="18" r="18" fill="#C7C6C6"/>
<circle cx="18" cy="18" r="15" fill="#F2F2F2"/>
<path fill-rule="evenodd" clip-rule="evenodd" d="M11.5562 27H17.1812V21.272H10.6362V26.091C10.6362 26.593 11.0482 27 11.5562 27ZM25.3629 26.0905V21.2725H18.8179V27.0005H24.4429C24.9509 27.0005 25.3629 26.5925 25.3629 26.0905ZM9.9 13.0908H11.742C11.563 12.7178 11.454 12.3048 11.454 11.8628C11.454 10.2848 12.739 8.99976 14.318 8.99976C16.199 8.99976 17.339 10.3198 18 11.5688C18.661 10.3198 19.8 8.99976 21.681 8.99976C23.26 8.99976 24.546 10.2848 24.546 11.8628C24.546 12.3048 24.436 12.7178 24.257 13.0908H26.099C26.596 13.0908 27 13.6768 27 14.4008V18.3268C27 19.0498 26.596 19.6368 26.099 19.6368H25.363H18.818V13.0908H17.181V19.6368H10.636H9.9C9.403 19.6368 9 19.0498 9 18.3268V14.4008C9 13.6768 9.403 13.0908 9.9 13.0908ZM14.318 13.0908H16.899C16.513 12.0748 15.719 10.6368 14.318 10.6368C13.641 10.6368 13.09 11.1868 13.09 11.8628C13.09 12.5398 13.641 13.0908 14.318 13.0908ZM21.681 13.0908C22.358 13.0908 22.909 12.5398 22.909 11.8628C22.909 11.1868 22.358 10.6368 21.681 10.6368C20.28 10.6368 19.486 12.0748 19.1 13.0908H21.681Z" fill="#E73D2F"/>
<mask id="mask0" mask-type="alpha" maskUnits="userSpaceOnUse" x="9" y="8" width="18" height="20">
<path fill-rule="evenodd" clip-rule="evenodd" d="M11.5562 27H17.1812V21.272H10.6362V26.091C10.6362 26.593 11.0482 27 11.5562 27ZM25.3629 26.0905V21.2725H18.8179V27.0005H24.4429C24.9509 27.0005 25.3629 26.5925 25.3629 26.0905ZM9.9 13.0908H11.742C11.563 12.7178 11.454 12.3048 11.454 11.8628C11.454 10.2848 12.739 8.99976 14.318 8.99976C16.199 8.99976 17.339 10.3198 18 11.5688C18.661 10.3198 19.8 8.99976 21.681 8.99976C23.26 8.99976 24.546 10.2848 24.546 11.8628C24.546 12.3048 24.436 12.7178 24.257 13.0908H26.099C26.596 13.0908 27 13.6768 27 14.4008V18.3268C27 19.0498 26.596 19.6368 26.099 19.6368H25.363H18.818V13.0908H17.181V19.6368H10.636H9.9C9.403 19.6368 9 19.0498 9 18.3268V14.4008C9 13.6768 9.403 13.0908 9.9 13.0908ZM14.318 13.0908H16.899C16.513 12.0748 15.719 10.6368 14.318 10.6368C13.641 10.6368 13.09 11.1868 13.09 11.8628C13.09 12.5398 13.641 13.0908 14.318 13.0908ZM21.681 13.0908C22.358 13.0908 22.909 12.5398 22.909 11.8628C22.909 11.1868 22.358 10.6368 21.681 10.6368C20.28 10.6368 19.486 12.0748 19.1 13.0908H21.681Z" fill="white"/>
</mask>
<g mask="url(#mask0)">
</g>
</g>
<defs>
<clipPath id="clip0">
<rect width="1600" height="856" fill="white" transform="translate(-1545 -798)"/>
</clipPath>
</defs>
</svg>
