<svg width="34" height="34" viewBox="0 0 34 34" fill="none" xmlns="http://www.w3.org/2000/svg">
<rect width="34" height="34" fill="#E8E8E8"/>
<g clip-path="url(#clip0)">
<path fill-rule="evenodd" clip-rule="evenodd" d="M254.576 -626.686C253.92 -627.105 253.08 -627.105 252.424 -626.686L245.273 -622.123H261.727L254.576 -626.686ZM-16 -622C-21.5229 -622 -26 -617.523 -26 -612V118C-26 123.523 -21.5229 128 -16 128H278C283.523 128 288 123.523 288 118V-612C288 -617.523 283.523 -622 278 -622H-16Z" fill="#F2F2F2"/>
<rect x="-15" y="-13" width="292" height="129" rx="8" stroke="#E8E5E5"/>
<circle cx="17" cy="17" r="17" fill="white"/>
<path d="M11.1313 11.2023L10.4949 10.566L9.85851 11.2023L10.4949 11.8387L11.1313 11.2023ZM14.0186 14.0896L14.6625 14.7184L15.2838 14.0821L14.655 13.4532L14.0186 14.0896ZM11.202 11.1316L11.8384 10.4952L11.202 9.85884L10.5656 10.4952L11.202 11.1316ZM14.0893 14.0189L13.4529 14.6553L14.0817 15.2841L14.718 14.6628L14.0893 14.0189ZM19.9107 14.0189L19.2819 14.6628L19.9182 15.2842L20.5471 14.6553L19.9107 14.0189ZM22.798 11.1316L23.4344 10.4952L22.798 9.85885L22.1616 10.4952L22.798 11.1316ZM22.8687 11.2023L23.5051 11.8387L24.1415 11.2023L23.5051 10.5659L22.8687 11.2023ZM19.9814 14.0896L19.345 13.4532L18.7162 14.0821L19.3375 14.7184L19.9814 14.0896ZM19.9814 19.911L19.3375 19.2823L18.7162 19.9186L19.345 20.5474L19.9814 19.911ZM22.8687 22.7983L23.5051 23.4347L24.1415 22.7983L23.5051 22.1619L22.8687 22.7983ZM22.798 22.869L22.1616 23.5054L22.798 24.1418L23.4344 23.5054L22.798 22.869ZM19.9107 19.9817L20.5471 19.3454L19.9182 18.7165L19.2819 19.3378L19.9107 19.9817ZM14.0893 19.9817L14.718 19.3378L14.0817 18.7165L13.4529 19.3454L14.0893 19.9817ZM11.202 22.869L10.5656 23.5054L11.202 24.1418L11.8384 23.5054L11.202 22.869ZM11.1313 22.7983L10.4949 22.1619L9.85851 22.7983L10.4949 23.4347L11.1313 22.7983ZM14.0186 19.911L14.655 20.5474L15.2838 19.9186L14.6625 19.2823L14.0186 19.911ZM17 26.2337C22.0994 26.2337 26.2333 22.0998 26.2333 17.0003H24.4333C24.4333 21.1056 21.1053 24.4337 17 24.4337V26.2337ZM7.76666 17.0003C7.76666 22.0998 11.9006 26.2337 17 26.2337V24.4337C12.8947 24.4337 9.56666 21.1056 9.56666 17.0003H7.76666ZM17 7.76699C11.9006 7.76699 7.76666 11.9009 7.76666 17.0003H9.56666C9.56666 12.895 12.8947 9.56699 17 9.56699V7.76699ZM26.2333 17.0003C26.2333 11.9009 22.0994 7.76699 17 7.76699V9.56699C21.1053 9.56699 24.4333 12.895 24.4333 17.0003H26.2333ZM10.4949 11.8387L13.3822 14.726L14.655 13.4532L11.7677 10.566L10.4949 11.8387ZM10.5656 10.4952L10.4949 10.566L11.7677 11.8387L11.8384 11.768L10.5656 10.4952ZM14.7257 13.3825L11.8384 10.4952L10.5656 11.768L13.4529 14.6553L14.7257 13.3825ZM14.718 14.6628C15.3078 14.087 16.1117 13.7337 17 13.7337V11.9337C15.6231 11.9337 14.3729 12.4841 13.4605 13.375L14.718 14.6628ZM17 13.7337C17.8883 13.7337 18.6922 14.087 19.2819 14.6628L20.5395 13.375C19.6271 12.4841 18.3769 11.9337 17 11.9337V13.7337ZM22.1616 10.4952L19.2743 13.3825L20.5471 14.6553L23.4344 11.768L22.1616 10.4952ZM23.5051 10.5659L23.4344 10.4952L22.1616 11.768L22.2323 11.8387L23.5051 10.5659ZM20.6178 14.726L23.5051 11.8387L22.2323 10.566L19.345 13.4532L20.6178 14.726ZM19.3375 14.7184C19.9133 15.3081 20.2667 16.112 20.2667 17.0003H22.0667C22.0667 15.6234 21.5162 14.3732 20.6254 13.4609L19.3375 14.7184ZM20.2667 17.0003C20.2667 17.8886 19.9133 18.6926 19.3375 19.2823L20.6254 20.5398C21.5162 19.6274 22.0667 18.3773 22.0667 17.0003H20.2667ZM23.5051 22.1619L20.6178 19.2746L19.345 20.5474L22.2323 23.4347L23.5051 22.1619ZM23.4344 23.5054L23.5051 23.4347L22.2323 22.1619L22.1616 22.2326L23.4344 23.5054ZM19.2743 20.6181L22.1616 23.5054L23.4344 22.2326L20.5471 19.3454L19.2743 20.6181ZM19.2819 19.3378C18.6922 19.9136 17.8883 20.267 17 20.267V22.067C18.3769 22.067 19.6271 21.5165 20.5395 20.6257L19.2819 19.3378ZM17 20.267C16.1117 20.267 15.3078 19.9136 14.718 19.3378L13.4605 20.6257C14.3729 21.5165 15.6231 22.067 17 22.067V20.267ZM11.8384 23.5054L14.7257 20.6181L13.4529 19.3454L10.5656 22.2326L11.8384 23.5054ZM10.4949 23.4347L10.5656 23.5054L11.8384 22.2326L11.7677 22.1619L10.4949 23.4347ZM13.3822 19.2746L10.4949 22.1619L11.7677 23.4347L14.655 20.5474L13.3822 19.2746ZM14.6625 19.2823C14.0867 18.6926 13.7333 17.8886 13.7333 17.0003H11.9333C11.9333 18.3773 12.4838 19.6274 13.3746 20.5398L14.6625 19.2823ZM13.7333 17.0003C13.7333 16.112 14.0867 15.3081 14.6625 14.7184L13.3746 13.4609C12.4838 14.3732 11.9333 15.6234 11.9333 17.0003H13.7333Z" fill="#0E0E10"/>
</g>
<defs>
<clipPath id="clip0">
<rect width="315" height="755" fill="white" transform="translate(-26 -627)"/>
</clipPath>
</defs>
</svg>
