<svg width="34" height="34" viewBox="0 0 34 34" fill="none" xmlns="http://www.w3.org/2000/svg">
<rect width="34" height="34" fill="#E8E8E8"/>
<g clip-path="url(#clip0)">
<path fill-rule="evenodd" clip-rule="evenodd" d="M254.576 -689.686C253.92 -690.105 253.08 -690.105 252.424 -689.686L245.273 -685.123H261.727L254.576 -689.686ZM-16 -685C-21.5229 -685 -26 -680.523 -26 -675V55C-26 60.5228 -21.5229 65 -16 65H278C283.523 65 288 60.5229 288 55V-675C288 -680.523 283.523 -685 278 -685H-16Z" fill="#F2F2F2"/>
<rect x="-15" y="-76" width="292" height="129" rx="8" stroke="#E8E5E5"/>
<circle cx="17" cy="17" r="17" fill="white"/>
<path fill-rule="evenodd" clip-rule="evenodd" d="M13 10C13 10.55 12.55 11 12 11H11V23H12C12.55 23 13 23.45 13 24C13 24.55 12.55 25 12 25H10C9.45 25 9 24.55 9 24V10C9 9.45 9.45 9 10 9H12C12.55 9 13 9.45 13 10ZM23.0039 12.4248L25.8179 16.4248C26.0679 16.7788 26.0599 17.2538 25.7999 17.5998L22.7999 21.5998C22.6039 21.8618 22.3029 21.9998 21.9989 21.9998C21.7909 21.9998 21.5799 21.9348 21.3999 21.7998C20.9579 21.4688 20.8689 20.8418 21.1999 20.4008L23.0009 17.9998H22.9999H14.9999C14.4479 17.9998 13.9999 17.5528 13.9999 16.9998C13.9999 16.4468 14.4479 15.9998 14.9999 15.9998H22.9999C23.0164 15.9998 23.0317 16.0044 23.0472 16.0089C23.0598 16.0127 23.0724 16.0165 23.0859 16.0178L21.3679 13.5748C21.0499 13.1238 21.1589 12.4998 21.6109 12.1818C22.0619 11.8628 22.6859 11.9728 23.0039 12.4248Z" fill="#0E0E10"/>
<mask id="mask0" mask-type="alpha" maskUnits="userSpaceOnUse" x="9" y="9" width="18" height="16">
<path fill-rule="evenodd" clip-rule="evenodd" d="M13 10C13 10.55 12.55 11 12 11H11V23H12C12.55 23 13 23.45 13 24C13 24.55 12.55 25 12 25H10C9.45 25 9 24.55 9 24V10C9 9.45 9.45 9 10 9H12C12.55 9 13 9.45 13 10ZM23.0039 12.4248L25.8179 16.4248C26.0679 16.7788 26.0599 17.2538 25.7999 17.5998L22.7999 21.5998C22.6039 21.8618 22.3029 21.9998 21.9989 21.9998C21.7909 21.9998 21.5799 21.9348 21.3999 21.7998C20.9579 21.4688 20.8689 20.8418 21.1999 20.4008L23.0009 17.9998H22.9999H14.9999C14.4479 17.9998 13.9999 17.5528 13.9999 16.9998C13.9999 16.4468 14.4479 15.9998 14.9999 15.9998H22.9999C23.0164 15.9998 23.0317 16.0044 23.0472 16.0089C23.0598 16.0127 23.0724 16.0165 23.0859 16.0178L21.3679 13.5748C21.0499 13.1238 21.1589 12.4998 21.6109 12.1818C22.0619 11.8628 22.6859 11.9728 23.0039 12.4248Z" fill="white"/>
</mask>
<g mask="url(#mask0)">
</g>
</g>
<defs>
<clipPath id="clip0">
<rect width="315" height="755" fill="white" transform="translate(-26 -690)"/>
</clipPath>
</defs>
</svg>
