<svg width="19" height="9" viewBox="0 0 19 9" fill="none" xmlns="http://www.w3.org/2000/svg">
<rect width="19" height="9" fill="#E8E8E8"/>
<rect x="-364" y="-336" width="850" height="529" rx="10" fill="white"/>
<path d="M16.343 0.270508H1.67684C0.750747 0.270508 0 1.02126 0 1.94735C0 2.50801 0.280202 3.03157 0.746697 3.34257L7.23486 7.66801L7.23487 7.66802C7.87638 8.09569 8.19714 8.30953 8.54383 8.39261C8.85021 8.46603 9.1696 8.46603 9.47598 8.39261C9.82267 8.30953 10.1434 8.09569 10.7849 7.66802L10.7849 7.66801L17.2731 3.34257C17.7396 3.03157 18.0198 2.50801 18.0198 1.94735C18.0198 1.02126 17.2691 0.270508 16.343 0.270508Z" fill="#0E0E10"/>
<path d="M3.2 13.9998H14.8198C15.9399 13.9998 16.5 13.9998 16.9278 13.7818C17.3041 13.5901 17.6101 13.2841 17.8018 12.9078C18.0198 12.48 18.0198 11.9199 18.0198 10.7998V4.13184L11.6725 8.3634C10.7102 9.00491 10.2291 9.32567 9.70902 9.45029C9.24945 9.56042 8.77036 9.56042 8.31079 9.45029C7.79075 9.32567 7.30962 9.00492 6.34735 8.3634L0 4.13184V10.7998C0 11.9199 0 12.48 0.217987 12.9078C0.409734 13.2841 0.715695 13.5901 1.09202 13.7818C1.51984 13.9998 2.07989 13.9998 3.2 13.9998Z" fill="#0E0E10"/>
</svg>
