<svg width="16" height="15" viewBox="0 0 16 15" fill="none" xmlns="http://www.w3.org/2000/svg">
<rect width="16" height="15" fill="#E8E8E8"/>
<rect x="-364" y="-156" width="850" height="529" rx="10" fill="white"/>
<g clip-path="url(#clip0)">
<path d="M3.91504 8.64648L-0.452637 16.8753L3.5136 16.5089L5.43325 19.9993L9.80092 11.7704L3.91504 8.64648Z" fill="#E95454"/>
<path d="M4.41492 17.6033C4.53747 17.3401 4.40929 17.0256 4.15292 16.8893L3.90155 16.7554C3.65018 16.6123 3.55451 16.294 3.69145 16.0364C3.83027 15.7744 4.15667 15.6743 4.41867 15.8131L5.129 16.1902C5.34848 16.3065 5.62361 16.2221 5.73679 16.0013L5.75429 15.9676C5.88436 15.7594 5.80744 15.4842 5.59109 15.3698L3.46635 14.2424C3.20748 14.1048 3.08054 13.7916 3.20122 13.5277C3.33441 13.2469 3.67082 13.1363 3.94157 13.2801L5.91249 14.3262C6.13197 14.4425 6.4071 14.3581 6.52341 14.1386L6.53466 14.1098L6.53779 14.1036C6.66347 13.8735 6.5753 13.5846 6.34332 13.4614L5.2378 12.8749C4.97893 12.7373 4.852 12.424 4.97455 12.157C5.10649 11.8794 5.44415 11.7656 5.7149 11.9094L6.9361 12.5579C7.16433 12.6792 7.43696 12.5779 7.55514 12.3478C7.55701 12.3446 7.55701 12.3446 7.55827 12.3415C7.56014 12.3384 7.56014 12.3384 7.56139 12.3353C7.68582 12.1083 7.61704 11.8256 7.38819 11.705L6.07069 11.0059C5.81495 10.8702 5.68801 10.5569 5.80869 10.293C5.94188 10.0123 6.27829 9.90161 6.54904 10.0454L9.79932 11.7706L5.43164 19.9995L4.22795 17.8116C4.30549 17.759 4.37302 17.694 4.41492 17.6033Z" fill="#ED6362"/>
<path d="M12.0846 8.64648L16.4523 16.8753L12.4861 16.5089L10.5664 19.9993L6.19873 11.7704L12.0846 8.64648Z" fill="#ED6362"/>
<path d="M11.5847 17.6037C11.4622 17.3404 11.5904 17.0259 11.8467 16.8896L12.0981 16.7558C12.3495 16.6126 12.4451 16.2943 12.3082 16.0367C12.1694 15.7747 11.843 15.6747 11.581 15.8135L10.8706 16.1905C10.6512 16.3068 10.376 16.2224 10.2629 16.0017L10.2454 15.9679C10.1153 15.7597 10.1922 15.4846 10.4086 15.3701L12.5339 14.2421C12.7928 14.1046 12.9197 13.7913 12.7991 13.5274C12.6659 13.2467 12.3295 13.136 12.0587 13.2798L10.0878 14.3259C9.8683 14.4422 9.59317 14.3578 9.47687 14.1383L9.46561 14.1096L9.46249 14.1033C9.3368 13.8732 9.42497 13.5843 9.65695 13.4611L10.7625 12.8746C11.0213 12.737 11.1483 12.4238 11.0257 12.1568C10.8938 11.8791 10.5561 11.7653 10.2854 11.9092L9.06292 12.5588C8.83469 12.6801 8.56206 12.5788 8.44388 12.3487C8.44201 12.3456 8.44201 12.3456 8.44076 12.3425C8.43888 12.3394 8.43888 12.3394 8.43763 12.3362C8.3132 12.1092 8.38198 11.8266 8.61084 11.7059L9.92833 11.0069C10.1841 10.8712 10.311 10.5579 10.1903 10.294C10.0571 10.0133 9.72073 9.90259 9.44998 10.0464L6.19971 11.7716L10.5674 20.0004L11.7711 17.8125C11.6942 17.7594 11.6266 17.6944 11.5847 17.6037Z" fill="#E95454"/>
<path d="M7.99994 14.5956C12.0304 14.5956 15.2977 11.3283 15.2977 7.2978C15.2977 3.26733 12.0304 0 7.99994 0C3.96948 0 0.702148 3.26733 0.702148 7.2978C0.702148 11.3283 3.96948 14.5956 7.99994 14.5956Z" fill="#FFCC5B"/>
<path d="M8.99001 6.46062H4.36534C4.0058 6.46062 3.71066 6.16548 3.71066 5.80594L3.71566 5.76092V5.75092C3.71066 5.37136 4.02018 5.06122 4.40036 5.06122H7.60561C8.03018 5.06122 8.40536 4.7467 8.43037 4.3215C8.45038 3.87691 8.09584 3.50174 7.65063 3.50174H4.25529C3.88074 3.50174 3.60061 3.18721 3.60561 2.81204C3.60561 2.80704 3.60561 2.80704 3.60561 2.80203C3.60561 2.79703 3.60561 2.79703 3.60561 2.79203C3.60061 2.41748 3.88011 2.10233 4.25529 2.10233H7.8082C8.22778 2.10233 8.60295 1.78781 8.62796 1.36761C8.64797 0.918025 8.29343 0.547852 7.84822 0.547852H5.24638C2.59326 1.64149 0.723633 4.25021 0.723633 7.29789C0.723633 10.3456 2.59326 12.9537 5.247 14.0461H8.55043C8.97 14.0461 9.34517 13.7315 9.37019 13.3113C9.39019 12.8617 9.03565 12.4922 8.59045 12.4922L4.83243 12.4916C4.3891 12.4916 4.03206 12.1208 4.05582 11.6718C4.0777 11.2516 4.45538 10.9358 4.8762 10.9358H6.33314C6.75208 10.924 7.09037 10.5807 7.09037 10.1586C7.09037 9.72903 6.74083 9.37887 6.31063 9.37887H4.10209C3.74255 9.37887 3.44741 9.08435 3.45241 8.72418V8.66916C3.4274 8.31462 3.71253 8.01448 4.06708 8.01448H8.94499C9.36956 8.01448 9.74474 7.69995 9.76975 7.27976C9.78976 6.8308 9.43459 6.46062 8.99001 6.46062Z" fill="#FDBC4B"/>
<path d="M7.99984 12.5059C5.12725 12.5059 2.79053 10.1686 2.79053 7.29658C2.79053 4.42461 5.12725 2.08789 7.99984 2.08789C10.8724 2.08789 13.2092 4.42524 13.2092 7.29721C13.2092 10.1692 10.8724 12.5059 7.99984 12.5059Z" fill="#FFDB70"/>
<path opacity="0.2" d="M13.2095 7.29783C13.2095 4.52653 11.0322 2.25984 8.29907 2.10352H7.81384C7.49369 2.10352 7.20794 2.34363 7.18855 2.66378C7.17354 3.00644 7.44367 3.28907 7.7832 3.28907L10.6495 3.2897C10.9878 3.2897 11.2598 3.57233 11.2417 3.91499C11.2248 4.23577 10.9372 4.4765 10.6158 4.4765H9.50463C9.18511 4.48588 8.92686 4.74726 8.92686 5.06928C8.92686 5.39693 9.19386 5.66393 9.52151 5.66393H11.206C11.4806 5.66393 11.705 5.88904 11.7013 6.16292V6.20419C11.72 6.47494 11.5031 6.70317 11.2323 6.70317H7.51245C7.18855 6.70317 6.90279 6.94328 6.88341 7.26343C6.8684 7.6061 7.13853 7.88873 7.47806 7.88873H11.0047C11.2792 7.88873 11.5037 8.11383 11.5037 8.38771L11.4999 8.4221V8.42961C11.5037 8.71912 11.2673 8.95548 10.9778 8.95548H8.53293C8.20903 8.95548 7.92327 9.19559 7.90388 9.51949C7.88888 9.8584 8.159 10.1448 8.49854 10.1448H11.0879C11.3736 10.1448 11.5869 10.3849 11.5831 10.6707C11.5831 10.6744 11.5831 10.6744 11.5831 10.6782C11.5831 10.6819 11.5831 10.6819 11.5831 10.6857C11.5869 10.9714 11.3736 11.2115 11.0879 11.2115H8.37848C8.05833 11.2115 7.77257 11.4516 7.75319 11.7718C7.73818 12.1151 8.00831 12.3971 8.34784 12.3971H9.06255C11.428 11.9044 13.2095 9.80525 13.2095 7.29783Z" fill="white"/>
<path d="M11.6368 6.14397H9.10311L8.31962 3.73409C8.21895 3.42457 7.78062 3.42457 7.67995 3.73409L6.89708 6.14397H4.36339C4.03761 6.14397 3.90193 6.56104 4.1658 6.75238L6.21551 8.24183L5.43264 10.6517C5.33197 10.9612 5.68651 11.2189 5.95039 11.0275L8.0001 9.53806L10.0498 11.0275C10.3137 11.2189 10.6682 10.9612 10.5676 10.6517L9.78468 8.24183L11.8344 6.75238C12.0976 6.56104 11.9626 6.14397 11.6368 6.14397Z" fill="#EC9922"/>
</g>
<defs>
<clipPath id="clip0">
<rect width="20" height="20" fill="white" transform="translate(-2)"/>
</clipPath>
</defs>
</svg>
