<svg width="34" height="35" viewBox="0 0 34 35" fill="none" xmlns="http://www.w3.org/2000/svg">
<rect width="34" height="35" fill="#E8E8E8"/>
<g clip-path="url(#clip0)">
<path fill-rule="evenodd" clip-rule="evenodd" d="M254.576 -262.686C253.92 -263.105 253.08 -263.105 252.424 -262.686L245.273 -258.123H261.727L254.576 -262.686ZM-16 -258C-21.5229 -258 -26 -253.523 -26 -248V482C-26 487.523 -21.5229 492 -16 492H278C283.523 492 288 487.523 288 482V-248C288 -253.523 283.523 -258 278 -258H-16Z" fill="#F2F2F2"/>
<rect x="-15" y="-80" width="292" height="129" rx="8" stroke="#E8E5E5"/>
<circle cx="17" cy="17.5811" r="17" fill="white"/>
<path fill-rule="evenodd" clip-rule="evenodd" d="M18 24.5811H22.5V20.5811H18V24.5811ZM11.5 24.5811H16V20.5811H11.5V24.5811ZM10 14.7811C10 14.6981 10.013 14.6311 10.026 14.5811H13.143H16V18.5811H10.026C10.013 18.5311 10 18.4641 10 18.3811V14.7811ZM12 11.5811C12 11.0291 12.513 10.5811 13.143 10.5811C14.4 10.5811 15.17 11.6711 15.594 12.5811H13.143C12.513 12.5811 12 12.1331 12 11.5811ZM20.857 10.5811C21.487 10.5811 22 11.0291 22 11.5811C22 12.1331 21.487 12.5811 20.857 12.5811H18.4C18.82 11.6711 19.588 10.5811 20.857 10.5811ZM24 14.7811V18.3811C24 18.4641 23.987 18.5311 23.974 18.5811H18V14.5811H20.857H23.974C23.987 14.6311 24 14.6981 24 14.7811ZM24.2 12.5811H23.807C23.925 12.2671 24 11.9341 24 11.5811C24 9.92705 22.59 8.58105 20.857 8.58105C18.935 8.58105 17.729 9.78005 17 10.9781C16.271 9.78005 15.065 8.58105 13.143 8.58105C11.41 8.58105 10 9.92705 10 11.5811C10 11.9341 10.076 12.2671 10.193 12.5811H9.8C8.791 12.5811 8 13.5481 8 14.7811V18.3811C8 19.4881 8.64 20.3741 9.5 20.5451V24.9141C9.5 25.8331 10.313 26.5811 11.312 26.5811H22.687C23.687 26.5811 24.5 25.8331 24.5 24.9141V20.5451C25.36 20.3741 26 19.4881 26 18.3811V14.7811C26 13.5481 25.209 12.5811 24.2 12.5811Z" fill="#0E0E10"/>
<mask id="mask0" mask-type="alpha" maskUnits="userSpaceOnUse" x="8" y="8" width="18" height="19">
<path fill-rule="evenodd" clip-rule="evenodd" d="M18 24.5811H22.5V20.5811H18V24.5811ZM11.5 24.5811H16V20.5811H11.5V24.5811ZM10 14.7811C10 14.6981 10.013 14.6311 10.026 14.5811H13.143H16V18.5811H10.026C10.013 18.5311 10 18.4641 10 18.3811V14.7811ZM12 11.5811C12 11.0291 12.513 10.5811 13.143 10.5811C14.4 10.5811 15.17 11.6711 15.594 12.5811H13.143C12.513 12.5811 12 12.1331 12 11.5811ZM20.857 10.5811C21.487 10.5811 22 11.0291 22 11.5811C22 12.1331 21.487 12.5811 20.857 12.5811H18.4C18.82 11.6711 19.588 10.5811 20.857 10.5811ZM24 14.7811V18.3811C24 18.4641 23.987 18.5311 23.974 18.5811H18V14.5811H20.857H23.974C23.987 14.6311 24 14.6981 24 14.7811ZM24.2 12.5811H23.807C23.925 12.2671 24 11.9341 24 11.5811C24 9.92705 22.59 8.58105 20.857 8.58105C18.935 8.58105 17.729 9.78005 17 10.9781C16.271 9.78005 15.065 8.58105 13.143 8.58105C11.41 8.58105 10 9.92705 10 11.5811C10 11.9341 10.076 12.2671 10.193 12.5811H9.8C8.791 12.5811 8 13.5481 8 14.7811V18.3811C8 19.4881 8.64 20.3741 9.5 20.5451V24.9141C9.5 25.8331 10.313 26.5811 11.312 26.5811H22.687C23.687 26.5811 24.5 25.8331 24.5 24.9141V20.5451C25.36 20.3741 26 19.4881 26 18.3811V14.7811C26 13.5481 25.209 12.5811 24.2 12.5811Z" fill="white"/>
</mask>
<g mask="url(#mask0)">
</g>
</g>
<defs>
<clipPath id="clip0">
<rect width="315" height="755" fill="white" transform="translate(-26 -263)"/>
</clipPath>
</defs>
</svg>
