<svg width="80" height="80" viewBox="0 0 80 80" fill="none" xmlns="http://www.w3.org/2000/svg">
<path d="M71.6262 59.4814C70.2414 58.4513 68.2839 58.7389 67.2537 60.1234C66.6871 60.885 66.0809 61.632 65.4517 62.3438C64.3087 63.6367 64.4301 65.6117 65.7231 66.7548C66.3178 67.2805 67.056 67.5386 67.7917 67.5386C68.656 67.5386 69.5167 67.1819 70.1342 66.4833C70.8793 65.6405 71.5973 64.7558 72.2682 63.8538C73.2984 62.4692 73.011 60.5114 71.6262 59.4814Z" fill="#F2994A"/>
<path d="M76.8518 44.8259C75.1664 44.4589 73.5007 45.5284 73.1336 47.2147C72.9316 48.1423 72.6875 49.0717 72.4077 49.9773C71.8982 51.6264 72.8219 53.3761 74.4708 53.8856C74.7782 53.9805 75.0888 54.0256 75.3944 54.0256C76.7288 54.0256 77.9644 53.1641 78.3791 51.8222C78.7113 50.7475 79.001 49.6445 79.2407 48.5441C79.6077 46.8578 78.5382 45.1931 76.8518 44.8259Z" fill="#F2994A"/>
<path d="M56.5841 69.4897C55.7544 69.9528 54.8954 70.3856 54.031 70.7761C52.458 71.4864 51.7588 73.3373 52.4691 74.9103C52.991 76.0659 54.1283 76.7498 55.319 76.7498C55.749 76.7498 56.186 76.6606 56.6033 76.4722C57.6288 76.0091 58.6472 75.4958 59.631 74.9466C61.138 74.1053 61.6776 72.2016 60.836 70.6947C59.9949 69.188 58.0912 68.6484 56.5841 69.4897Z" fill="#F2994A"/>
<path d="M36.8745 15V38.7056L25.4152 50.1647C24.1949 51.3852 24.1949 53.3638 25.4152 54.5841C26.0255 55.1944 26.8251 55.4994 27.6251 55.4994C28.4248 55.4994 29.2246 55.1942 29.8349 54.5841L42.2093 42.2097C42.7952 41.6237 43.1245 40.8288 43.1245 40V15C43.1245 13.2741 41.7254 11.875 39.9995 11.875C38.2735 11.875 36.8745 13.2741 36.8745 15Z" fill="#F2994A"/>
<path d="M76.875 6.71875C75.1491 6.71875 73.75 8.11781 73.75 9.84375V18.5212C66.4762 7.11375 53.7736 0 40 0C29.3156 0 19.2708 4.16078 11.7156 11.7156C4.16078 19.2708 0 29.3156 0 40C0 50.6844 4.16078 60.7292 11.7156 68.2844C19.2708 75.8392 29.3156 80 40 80C40.0264 80 40.0519 79.9967 40.0781 79.9961C40.1044 79.9967 40.1298 80 40.1562 80C41.2825 80 42.4198 79.9525 43.537 79.8591C45.2569 79.715 46.5344 78.2041 46.3905 76.4842C46.2462 74.7644 44.7373 73.4863 43.0155 73.6309C42.0711 73.7098 41.1092 73.75 40.1562 73.75C40.1298 73.75 40.1044 73.7533 40.0781 73.7539C40.0519 73.7533 40.0264 73.75 40 73.75C21.3902 73.75 6.25 58.6098 6.25 40C6.25 21.3902 21.3902 6.25 40 6.25C51.9934 6.25 63.0245 12.6427 69.0525 22.8125H60.4598C58.7339 22.8125 57.3348 24.2116 57.3348 25.9375C57.3348 27.6634 58.7339 29.0625 60.4598 29.0625H70C71.9031 29.0625 73.6836 28.5277 75.1995 27.6011C75.297 27.5455 75.3908 27.4856 75.4802 27.4211C78.1998 25.6319 80 22.5542 80 19.0625V9.84375C80 8.11781 78.6009 6.71875 76.875 6.71875Z" fill="#F2994A"/>
</svg>
