<svg width="14" height="14" viewBox="0 0 14 14" fill="none" xmlns="http://www.w3.org/2000/svg">
<path d="M10.0335 9.7118L9.57766 10.3955C9.48668 10.532 9.36636 10.6484 9.20778 10.6903C8.68836 10.8276 7.30938 10.8896 5.20992 8.7901C3.11045 6.69064 3.17242 5.31164 3.30967 4.79222C3.35157 4.63364 3.46801 4.51332 3.60448 4.42234L4.2882 3.96653C4.79724 3.62717 4.93479 2.9394 4.59543 2.43036L3.30412 0.493396C3.00791 0.049083 2.43688 -0.120669 1.94606 0.0896837L1.36355 0.339332C0.921034 0.52898 0.560066 0.869339 0.344759 1.29995C0.164879 1.65971 0.0254581 2.03856 0.006568 2.44034C-0.0529622 3.70652 0.224677 6.82599 3.69935 10.3007C7.17403 13.7753 10.2935 14.053 11.5597 13.9934C11.9614 13.9745 12.3403 13.8351 12.7 13.6552C13.1307 13.4399 13.471 13.079 13.6607 12.6365L13.9103 12.0539C14.1207 11.5631 13.9509 10.9921 13.5066 10.6959L11.5696 9.40457C11.0606 9.06521 10.3728 9.20276 10.0335 9.7118Z" fill="#0E0E10"/>
</svg>
