<svg width="34" height="35" viewBox="0 0 34 35" fill="none" xmlns="http://www.w3.org/2000/svg">
<rect width="34" height="35" fill="#E8E8E8"/>
<g clip-path="url(#clip0)">
<path fill-rule="evenodd" clip-rule="evenodd" d="M254.576 -195.686C253.92 -196.105 253.08 -196.105 252.424 -195.686L245.273 -191.123H261.727L254.576 -195.686ZM-16 -191C-21.5229 -191 -26 -186.523 -26 -181V549C-26 554.523 -21.5229 559 -16 559H278C283.523 559 288 554.523 288 549V-181C288 -186.523 283.523 -191 278 -191H-16Z" fill="#F2F2F2"/>
<rect x="-15" y="-13" width="292" height="129" rx="8" stroke="#E8E5E5"/>
<circle cx="17" cy="17.5811" r="17" fill="white"/>
<path fill-rule="evenodd" clip-rule="evenodd" d="M16 20.5811H12C11.45 20.5811 11 20.1311 11 19.5811C11 19.0311 11.45 18.5811 12 18.5811H16C16.55 18.5811 17 19.0311 17 19.5811C17 20.1311 16.55 20.5811 16 20.5811ZM22 20.5811H20C19.45 20.5811 19 20.1311 19 19.5811C19 19.0311 19.45 18.5811 20 18.5811H22C22.55 18.5811 23 19.0311 23 19.5811C23 20.1311 22.55 20.5811 22 20.5811ZM25 21.5811C25 22.1321 24.552 22.5811 24 22.5811H10C9.448 22.5811 9 22.1321 9 21.5811V16.5811H25V21.5811ZM9 13.5811C9 13.0301 9.448 12.5811 10 12.5811H24C24.552 12.5811 25 13.0301 25 13.5811V14.5811H9V13.5811ZM24 10.5811H10C8.346 10.5811 7 11.9271 7 13.5811V21.5811C7 23.2351 8.346 24.5811 10 24.5811H24C25.654 24.5811 27 23.2351 27 21.5811V13.5811C27 11.9271 25.654 10.5811 24 10.5811Z" fill="#0E0E10"/>
<mask id="mask0" mask-type="alpha" maskUnits="userSpaceOnUse" x="7" y="10" width="20" height="15">
<path fill-rule="evenodd" clip-rule="evenodd" d="M16 20.5811H12C11.45 20.5811 11 20.1311 11 19.5811C11 19.0311 11.45 18.5811 12 18.5811H16C16.55 18.5811 17 19.0311 17 19.5811C17 20.1311 16.55 20.5811 16 20.5811ZM22 20.5811H20C19.45 20.5811 19 20.1311 19 19.5811C19 19.0311 19.45 18.5811 20 18.5811H22C22.55 18.5811 23 19.0311 23 19.5811C23 20.1311 22.55 20.5811 22 20.5811ZM25 21.5811C25 22.1321 24.552 22.5811 24 22.5811H10C9.448 22.5811 9 22.1321 9 21.5811V16.5811H25V21.5811ZM9 13.5811C9 13.0301 9.448 12.5811 10 12.5811H24C24.552 12.5811 25 13.0301 25 13.5811V14.5811H9V13.5811ZM24 10.5811H10C8.346 10.5811 7 11.9271 7 13.5811V21.5811C7 23.2351 8.346 24.5811 10 24.5811H24C25.654 24.5811 27 23.2351 27 21.5811V13.5811C27 11.9271 25.654 10.5811 24 10.5811Z" fill="white"/>
</mask>
<g mask="url(#mask0)">
</g>
</g>
<defs>
<clipPath id="clip0">
<rect width="315" height="755" fill="white" transform="translate(-26 -196)"/>
</clipPath>
</defs>
</svg>
