<svg width="80" height="74" viewBox="0 0 80 74" fill="none" xmlns="http://www.w3.org/2000/svg">
<path d="M79.6577 69.4964L42.4272 1.83345C41.9405 0.948859 41.0105 0.399231 40.001 0.399231C38.9912 0.399231 38.0617 0.948859 37.5747 1.83345L0.344021 69.4964C-0.128069 70.3542 -0.111897 71.3976 0.386335 72.2408C0.884566 73.0837 1.79087 73.6008 2.77005 73.6008H77.2317C78.2111 73.6008 79.1174 73.0837 79.6156 72.2408C80.1138 71.3976 80.1298 70.3542 79.6577 69.4964ZM7.45463 68.0622L40.001 8.91259L72.5473 68.0622H7.45463Z" fill="#EB5757"/>
<path d="M36.5303 28.6983V48.7142C36.5303 50.6305 38.0841 52.1846 40.0006 52.1846C41.9169 52.1846 43.471 50.6305 43.471 48.7142V28.6983C43.471 26.7818 41.9169 25.228 40.0006 25.228C38.0841 25.228 36.5303 26.7821 36.5303 28.6983Z" fill="#EB5757"/>
<path d="M40.0001 55.7874C37.9847 55.7874 36.3447 57.4265 36.3447 59.4427C36.3447 61.4582 37.9847 63.098 40.0001 63.098C42.0154 63.098 43.6554 61.4582 43.6554 59.4427C43.6554 57.4267 42.0151 55.7874 40.0001 55.7874Z" fill="#EB5757"/>
</svg>
