<svg width="34" height="34" viewBox="0 0 34 34" fill="none" xmlns="http://www.w3.org/2000/svg">
<rect width="34" height="34" fill="#E8E8E8"/>
<g clip-path="url(#clip0)">
<path fill-rule="evenodd" clip-rule="evenodd" d="M254.576 -397.686C253.92 -398.105 253.08 -398.105 252.424 -397.686L245.273 -393.123H261.727L254.576 -397.686ZM-16 -393C-21.5229 -393 -26 -388.523 -26 -383V347C-26 352.523 -21.5229 357 -16 357H278C283.523 357 288 352.523 288 347V-383C288 -388.523 283.523 -393 278 -393H-16Z" fill="#F2F2F2"/>
<rect x="-15" y="-80" width="292" height="284" rx="8" stroke="#E8E5E5"/>
<circle cx="17" cy="17" r="17" fill="white"/>
<path fill-rule="evenodd" clip-rule="evenodd" d="M9.40281 16.622C10.5188 17.005 11.4078 17.939 11.7798 19.123L11.8198 19.243C12.2458 20.499 12.0728 21.851 11.3588 22.865C11.2288 23.049 11.2578 23.269 11.3948 23.373L13.4668 24.947C13.5398 25.002 13.6108 25.002 13.6548 24.997C13.7048 24.989 13.7778 24.962 13.8368 24.878L14.0678 24.55C14.7568 23.573 15.8668 22.97 17.0388 22.936C18.3548 22.909 19.5368 23.512 20.2728 24.575L20.3908 24.746C20.4498 24.83 20.5218 24.858 20.5728 24.866C20.6168 24.875 20.6888 24.872 20.7608 24.816L22.8218 23.261C22.9658 23.153 22.9978 22.922 22.8908 22.767L22.6308 22.392C21.9608 21.424 21.7618 20.168 22.0988 19.033C22.4648 17.797 23.3958 16.819 24.5908 16.419L24.7918 16.351C24.9528 16.298 25.0398 16.098 24.9828 15.914L24.1958 13.393C24.1588 13.275 24.0828 13.222 24.0408 13.2C23.9808 13.169 23.9158 13.164 23.8538 13.185L23.5138 13.298C22.3508 13.685 21.0678 13.475 20.0828 12.734L19.9748 12.653C19.0388 11.949 18.4818 10.814 18.4858 9.618L18.4878 9.338C18.4878 9.205 18.4248 9.122 18.3868 9.084C18.3508 9.047 18.2898 9.003 18.2038 9.003L15.6568 9C15.5008 9 15.3738 9.149 15.3728 9.333L15.3718 9.575C15.3668 10.79 14.7978 11.946 13.8498 12.669L13.7208 12.767C12.6778 13.56 11.3178 13.784 10.0858 13.364C10.0388 13.348 9.99481 13.351 9.95281 13.373C9.92081 13.389 9.86281 13.43 9.83481 13.521L9.01781 16.117C8.95881 16.306 9.05581 16.503 9.23881 16.566L9.40281 16.622ZM13.6138 27C13.1278 27 12.6558 26.842 12.2578 26.539L10.1858 24.966C9.19581 24.216 8.97681 22.773 9.69681 21.75C10.0708 21.22 10.1478 20.539 9.92781 19.893L9.87281 19.725C9.68981 19.143 9.27181 18.691 8.75481 18.514H8.75381L8.59081 18.457C7.37281 18.04 6.72281 16.749 7.10981 15.517L7.92581 12.922C8.11081 12.335 8.50981 11.861 9.04981 11.588C9.57781 11.322 10.1748 11.281 10.7328 11.472C11.3318 11.676 11.9968 11.565 12.5098 11.175L12.6388 11.077C13.0948 10.729 13.3698 10.164 13.3718 9.567L13.3728 9.326C13.3778 8.042 14.4028 7 15.6558 7H15.6598L18.2068 7.003C18.8088 7.004 19.3768 7.242 19.8048 7.673C20.2478 8.118 20.4898 8.713 20.4878 9.348L20.4858 9.627C20.4838 10.193 20.7428 10.728 21.1798 11.056L21.2868 11.137C21.7458 11.482 22.3438 11.581 22.8808 11.401L23.2198 11.288C23.7968 11.096 24.4108 11.143 24.9518 11.42C25.5068 11.704 25.9168 12.193 26.1048 12.798L26.8918 15.319C27.2718 16.537 26.6138 17.851 25.4268 18.248L25.2258 18.315C24.6498 18.509 24.1968 18.989 24.0158 19.601C23.8498 20.162 23.9458 20.779 24.2748 21.253L24.5348 21.628C25.2488 22.66 25.0208 24.108 24.0268 24.857L21.9658 26.413C21.4708 26.787 20.8638 26.938 20.2548 26.841C19.6408 26.742 19.1048 26.402 18.7458 25.884L18.6278 25.712C18.2778 25.208 17.7178 24.902 17.1308 24.935C16.5428 24.951 16.0348 25.23 15.7028 25.702L15.4718 26.03C15.1098 26.543 14.5728 26.878 13.9618 26.974C13.8448 26.992 13.7288 27 13.6138 27ZM17 15.4999C16.173 15.4999 15.5 16.1729 15.5 16.9999C15.5 17.8269 16.173 18.4999 17 18.4999C17.827 18.4999 18.5 17.8269 18.5 16.9999C18.5 16.1729 17.827 15.4999 17 15.4999ZM17 20.4999C15.07 20.4999 13.5 18.9299 13.5 16.9999C13.5 15.0699 15.07 13.4999 17 13.4999C18.93 13.4999 20.5 15.0699 20.5 16.9999C20.5 18.9299 18.93 20.4999 17 20.4999Z" fill="#0E0E10"/>
<mask id="mask0" mask-type="alpha" maskUnits="userSpaceOnUse" x="6" y="7" width="21" height="20">
<path fill-rule="evenodd" clip-rule="evenodd" d="M9.40281 16.622C10.5188 17.005 11.4078 17.939 11.7798 19.123L11.8198 19.243C12.2458 20.499 12.0728 21.851 11.3588 22.865C11.2288 23.049 11.2578 23.269 11.3948 23.373L13.4668 24.947C13.5398 25.002 13.6108 25.002 13.6548 24.997C13.7048 24.989 13.7778 24.962 13.8368 24.878L14.0678 24.55C14.7568 23.573 15.8668 22.97 17.0388 22.936C18.3548 22.909 19.5368 23.512 20.2728 24.575L20.3908 24.746C20.4498 24.83 20.5218 24.858 20.5728 24.866C20.6168 24.875 20.6888 24.872 20.7608 24.816L22.8218 23.261C22.9658 23.153 22.9978 22.922 22.8908 22.767L22.6308 22.392C21.9608 21.424 21.7618 20.168 22.0988 19.033C22.4648 17.797 23.3958 16.819 24.5908 16.419L24.7918 16.351C24.9528 16.298 25.0398 16.098 24.9828 15.914L24.1958 13.393C24.1588 13.275 24.0828 13.222 24.0408 13.2C23.9808 13.169 23.9158 13.164 23.8538 13.185L23.5138 13.298C22.3508 13.685 21.0678 13.475 20.0828 12.734L19.9748 12.653C19.0388 11.949 18.4818 10.814 18.4858 9.618L18.4878 9.338C18.4878 9.205 18.4248 9.122 18.3868 9.084C18.3508 9.047 18.2898 9.003 18.2038 9.003L15.6568 9C15.5008 9 15.3738 9.149 15.3728 9.333L15.3718 9.575C15.3668 10.79 14.7978 11.946 13.8498 12.669L13.7208 12.767C12.6778 13.56 11.3178 13.784 10.0858 13.364C10.0388 13.348 9.99481 13.351 9.95281 13.373C9.92081 13.389 9.86281 13.43 9.83481 13.521L9.01781 16.117C8.95881 16.306 9.05581 16.503 9.23881 16.566L9.40281 16.622ZM13.6138 27C13.1278 27 12.6558 26.842 12.2578 26.539L10.1858 24.966C9.19581 24.216 8.97681 22.773 9.69681 21.75C10.0708 21.22 10.1478 20.539 9.92781 19.893L9.87281 19.725C9.68981 19.143 9.27181 18.691 8.75481 18.514H8.75381L8.59081 18.457C7.37281 18.04 6.72281 16.749 7.10981 15.517L7.92581 12.922C8.11081 12.335 8.50981 11.861 9.04981 11.588C9.57781 11.322 10.1748 11.281 10.7328 11.472C11.3318 11.676 11.9968 11.565 12.5098 11.175L12.6388 11.077C13.0948 10.729 13.3698 10.164 13.3718 9.567L13.3728 9.326C13.3778 8.042 14.4028 7 15.6558 7H15.6598L18.2068 7.003C18.8088 7.004 19.3768 7.242 19.8048 7.673C20.2478 8.118 20.4898 8.713 20.4878 9.348L20.4858 9.627C20.4838 10.193 20.7428 10.728 21.1798 11.056L21.2868 11.137C21.7458 11.482 22.3438 11.581 22.8808 11.401L23.2198 11.288C23.7968 11.096 24.4108 11.143 24.9518 11.42C25.5068 11.704 25.9168 12.193 26.1048 12.798L26.8918 15.319C27.2718 16.537 26.6138 17.851 25.4268 18.248L25.2258 18.315C24.6498 18.509 24.1968 18.989 24.0158 19.601C23.8498 20.162 23.9458 20.779 24.2748 21.253L24.5348 21.628C25.2488 22.66 25.0208 24.108 24.0268 24.857L21.9658 26.413C21.4708 26.787 20.8638 26.938 20.2548 26.841C19.6408 26.742 19.1048 26.402 18.7458 25.884L18.6278 25.712C18.2778 25.208 17.7178 24.902 17.1308 24.935C16.5428 24.951 16.0348 25.23 15.7028 25.702L15.4718 26.03C15.1098 26.543 14.5728 26.878 13.9618 26.974C13.8448 26.992 13.7288 27 13.6138 27ZM17 15.4999C16.173 15.4999 15.5 16.1729 15.5 16.9999C15.5 17.8269 16.173 18.4999 17 18.4999C17.827 18.4999 18.5 17.8269 18.5 16.9999C18.5 16.1729 17.827 15.4999 17 15.4999ZM17 20.4999C15.07 20.4999 13.5 18.9299 13.5 16.9999C13.5 15.0699 15.07 13.4999 17 13.4999C18.93 13.4999 20.5 15.0699 20.5 16.9999C20.5 18.9299 18.93 20.4999 17 20.4999Z" fill="white"/>
</mask>
<g mask="url(#mask0)">
</g>
</g>
<defs>
<clipPath id="clip0">
<rect width="315" height="755" fill="white" transform="translate(-26 -398)"/>
</clipPath>
</defs>
</svg>
