<svg width="34" height="34" viewBox="0 0 34 34" fill="none" xmlns="http://www.w3.org/2000/svg">
<rect width="34" height="34" fill="#E8E8E8"/>
<g clip-path="url(#clip0)">
<path fill-rule="evenodd" clip-rule="evenodd" d="M254.576 -537.686C253.92 -538.105 253.08 -538.105 252.424 -537.686L245.273 -533.123H261.727L254.576 -537.686ZM-16 -533C-21.5229 -533 -26 -528.523 -26 -523V207C-26 212.523 -21.5229 217 -16 217H278C283.523 217 288 212.523 288 207V-523C288 -528.523 283.523 -533 278 -533H-16Z" fill="#F2F2F2"/>
<rect x="-15" y="-220" width="292" height="284" rx="8" stroke="#E8E5E5"/>
<circle cx="17" cy="17" r="17" fill="white"/>
<path fill-rule="evenodd" clip-rule="evenodd" d="M18.5459 16.5005C14.9829 16.5005 11.7689 18.1345 9.73591 20.7595C10.6709 16.8905 14.2659 14.0005 18.5459 14.0005C19.0989 14.0005 19.5459 13.5535 19.5459 13.0005V11.0775L24.3699 15.2515L19.5459 19.4635V17.5005C19.5459 16.9475 19.0989 16.5005 18.5459 16.5005ZM8.77891 26.0005C9.23991 26.0005 9.64191 25.6855 9.75091 25.2375C10.6409 21.5885 13.7719 18.9525 17.5459 18.5535V19.6745C17.5459 20.3805 17.9649 21.0095 18.6389 21.3145C19.3699 21.6475 20.2229 21.5275 20.8159 21.0105L25.8819 16.5865C26.2749 16.2425 26.4999 15.7555 26.4999 15.2505C26.4999 14.7455 26.2749 14.2585 25.8819 13.9145L20.8159 9.49047C20.2229 8.97347 19.3699 8.85347 18.6389 9.18647C17.9649 9.49147 17.5459 10.1205 17.5459 10.8265V12.0445C11.9219 12.5375 7.49991 17.1505 7.49991 22.7505C7.49991 23.5605 7.60391 24.3965 7.80791 25.2365C7.91591 25.6855 8.31691 26.0005 8.77891 26.0005Z" fill="#0E0E10"/>
<mask id="mask0" mask-type="alpha" maskUnits="userSpaceOnUse" x="7" y="9" width="20" height="18">
<path fill-rule="evenodd" clip-rule="evenodd" d="M18.5459 16.5005C14.9829 16.5005 11.7689 18.1345 9.73591 20.7595C10.6709 16.8905 14.2659 14.0005 18.5459 14.0005C19.0989 14.0005 19.5459 13.5535 19.5459 13.0005V11.0775L24.3699 15.2515L19.5459 19.4635V17.5005C19.5459 16.9475 19.0989 16.5005 18.5459 16.5005ZM8.77891 26.0005C9.23991 26.0005 9.64191 25.6855 9.75091 25.2375C10.6409 21.5885 13.7719 18.9525 17.5459 18.5535V19.6745C17.5459 20.3805 17.9649 21.0095 18.6389 21.3145C19.3699 21.6475 20.2229 21.5275 20.8159 21.0105L25.8819 16.5865C26.2749 16.2425 26.4999 15.7555 26.4999 15.2505C26.4999 14.7455 26.2749 14.2585 25.8819 13.9145L20.8159 9.49047C20.2229 8.97347 19.3699 8.85347 18.6389 9.18647C17.9649 9.49147 17.5459 10.1205 17.5459 10.8265V12.0445C11.9219 12.5375 7.49991 17.1505 7.49991 22.7505C7.49991 23.5605 7.60391 24.3965 7.80791 25.2365C7.91591 25.6855 8.31691 26.0005 8.77891 26.0005Z" fill="white"/>
</mask>
<g mask="url(#mask0)">
</g>
</g>
<defs>
<clipPath id="clip0">
<rect width="315" height="755" fill="white" transform="translate(-26 -538)"/>
</clipPath>
</defs>
</svg>
