<svg width="20" height="13" viewBox="0 0 20 13" fill="none" xmlns="http://www.w3.org/2000/svg">
<path d="M10 5.5C10.5143 5.5 10.9993 5.59766 11.4551 5.79297C11.9108 5.98828 12.3079 6.25521 12.6465 6.59375C12.985 6.93229 13.2552 7.33268 13.457 7.79492C13.6589 8.25716 13.7565 8.74219 13.75 9.25C13.75 9.77083 13.6523 10.2559 13.457 10.7051C13.2617 11.1543 12.9948 11.5514 12.6562 11.8965C12.3177 12.2415 11.9173 12.5117 11.4551 12.707C10.9928 12.9023 10.5078 13 10 13C9.47917 13 8.99414 12.9023 8.54492 12.707C8.0957 12.5117 7.69857 12.2448 7.35352 11.9062C7.00846 11.5677 6.73828 11.1706 6.54297 10.7148C6.34766 10.2591 6.25 9.77083 6.25 9.25C6.25 8.73568 6.34766 8.25065 6.54297 7.79492C6.73828 7.33919 7.00521 6.94206 7.34375 6.60352C7.68229 6.26497 8.07943 5.99479 8.53516 5.79297C8.99089 5.59115 9.47917 5.49349 10 5.5ZM10 11.75C10.3451 11.75 10.6673 11.6849 10.9668 11.5547C11.2663 11.4245 11.5332 11.2454 11.7676 11.0176C12.002 10.7897 12.181 10.526 12.3047 10.2266C12.4284 9.92708 12.4935 9.60156 12.5 9.25C12.5 8.90495 12.4349 8.58268 12.3047 8.2832C12.1745 7.98372 11.9954 7.7168 11.7676 7.48242C11.5397 7.24805 11.276 7.06901 10.9766 6.94531C10.6771 6.82161 10.3516 6.75651 10 6.75C9.65495 6.75 9.33268 6.8151 9.0332 6.94531C8.73372 7.07552 8.4668 7.25456 8.23242 7.48242C7.99805 7.71029 7.81901 7.97396 7.69531 8.27344C7.57161 8.57292 7.50651 8.89844 7.5 9.25C7.5 9.59505 7.5651 9.91732 7.69531 10.2168C7.82552 10.5163 8.00456 10.7832 8.23242 11.0176C8.46029 11.252 8.72396 11.431 9.02344 11.5547C9.32292 11.6784 9.64844 11.7435 10 11.75ZM10 0.5C10.931 0.5 11.8555 0.613932 12.7734 0.841797C13.6914 1.06966 14.5573 1.41146 15.3711 1.86719C16.1849 2.32292 16.9206 2.8763 17.5781 3.52734C18.2357 4.17839 18.776 4.9401 19.1992 5.8125C19.4596 6.35286 19.6582 6.90951 19.7949 7.48242C19.9316 8.05534 20 8.64453 20 9.25H18.75C18.75 8.48177 18.6328 7.76237 18.3984 7.0918C18.1641 6.42122 17.8418 5.80924 17.4316 5.25586C17.0215 4.70247 16.5332 4.20768 15.9668 3.77148C15.4004 3.33529 14.7982 2.96745 14.1602 2.66797C13.5221 2.36849 12.8418 2.14062 12.1191 1.98438C11.3965 1.82812 10.6901 1.75 10 1.75C9.29688 1.75 8.5905 1.82812 7.88086 1.98438C7.17122 2.14062 6.49414 2.36849 5.84961 2.66797C5.20508 2.96745 4.59961 3.33529 4.0332 3.77148C3.4668 4.20768 2.98177 4.70247 2.57812 5.25586C2.17448 5.80924 1.84896 6.42122 1.60156 7.0918C1.35417 7.76237 1.23698 8.48177 1.25 9.25H0C0 8.65104 0.0683594 8.0651 0.205078 7.49219C0.341797 6.91927 0.540365 6.35938 0.800781 5.8125C1.21745 4.95312 1.75456 4.19466 2.41211 3.53711C3.06966 2.87956 3.80859 2.32292 4.62891 1.86719C5.44922 1.41146 6.3151 1.07292 7.22656 0.851562C8.13802 0.630208 9.0625 0.513021 10 0.5Z" fill="#333333"/>
</svg>
