<svg width="16" height="16" viewBox="0 0 16 16" fill="none" xmlns="http://www.w3.org/2000/svg">
<rect width="16" height="16" fill="#E8E8E8"/>
<rect x="-364" y="-364" width="850" height="529" rx="10" fill="white"/>
<circle cx="8" cy="8" r="9" fill="#0E0E10"/>
<path d="M13.3833 13.3845C10.408 16.3599 5.59177 16.3603 2.61599 13.3845C-0.359404 10.4091 -0.35985 5.59295 2.61599 2.61714C5.5913 -0.35823 10.4075 -0.358675 13.3833 2.61714C16.3587 5.5925 16.3591 10.4087 13.3833 13.3845ZM13.0651 3.70245C12.7094 4.02055 12.3289 4.30206 11.9278 4.54467C12.1929 5.46041 12.3499 6.46812 12.3871 7.51563H14.6255C14.5243 6.10369 13.9818 4.77918 13.0651 3.70245ZM1.37379 7.51563H3.61223C3.64935 6.46812 3.80641 5.46041 4.07151 4.54467C3.67043 4.30206 3.28991 4.02055 2.93418 3.70245C2.01751 4.77918 1.47503 6.10369 1.37379 7.51563ZM2.93421 12.2992C3.28994 11.9811 3.67046 11.6996 4.07154 11.457C3.80644 10.5412 3.64938 9.53352 3.61226 8.48601H1.37379C1.47503 9.89793 2.01751 11.2224 2.93421 12.2992ZM7.51449 11.3567C6.72319 11.4133 5.96022 11.6082 5.2529 11.9297C5.66427 12.989 6.42263 14.2595 7.51449 14.5744V11.3567ZM7.51449 10.3845V8.48598H4.58302C4.61661 9.37209 4.74216 10.223 4.95097 11.0015C5.75477 10.6501 6.61925 10.4403 7.51449 10.3845ZM7.51449 7.51563V5.61711C6.61925 5.56132 5.75477 5.35148 4.95097 5.00009C4.74216 5.77863 4.61661 6.62952 4.58302 7.51563H7.51449ZM7.51449 4.64492V1.42725C6.42269 1.74211 5.66433 3.01249 5.2529 4.07192C5.96022 4.39343 6.72319 4.58833 7.51449 4.64492ZM8.48483 4.64492C9.27613 4.58833 10.0391 4.39343 10.7464 4.07192C10.335 3.01258 9.57669 1.74211 8.48483 1.42725V4.64492ZM8.48483 5.61711V7.51563H11.4163C11.3827 6.62952 11.2572 5.77863 11.0484 5.00009C10.2445 5.35148 9.38007 5.56132 8.48483 5.61711ZM8.48483 8.48598V10.3845C9.38007 10.4403 10.2445 10.6501 11.0484 11.0015C11.2572 10.223 11.3827 9.37209 11.4163 8.48598H8.48483ZM8.48483 11.3567V14.5744C9.57669 14.2595 10.3351 12.989 10.7464 11.9297C10.0391 11.6082 9.27613 11.4133 8.48483 11.3567ZM10.6641 14.09C11.2852 13.818 11.8646 13.4492 12.3841 12.9917C12.1368 12.7737 11.8759 12.576 11.6035 12.3992C11.3616 12.9982 11.0526 13.5803 10.6641 14.09ZM4.39576 12.3992C4.12335 12.576 3.8625 12.7737 3.61523 12.9917C4.13464 13.4492 4.71407 13.818 5.33514 14.09C4.94672 13.5803 4.63768 12.9982 4.39576 12.3992ZM4.39579 3.60238C4.63768 3.00342 4.94678 2.42129 5.33517 1.91165C4.7141 2.18362 4.13467 2.5524 3.61526 3.00996C3.8625 3.22795 4.12338 3.42561 4.39579 3.60238ZM11.6035 3.60238C11.8759 3.42561 12.1368 3.22795 12.3841 3.00999C11.8646 2.55243 11.2852 2.18365 10.6641 1.91168C11.0525 2.42126 11.3616 3.00339 11.6035 3.60238ZM12.3871 8.48598C12.35 9.53349 12.1929 10.5412 11.9278 11.4569C12.3289 11.6996 12.7094 11.9811 13.0651 12.2992C13.9818 11.2224 14.5243 9.89793 14.6255 8.48598H12.3871Z" fill="white"/>
</svg>
