<svg width="18" height="18" viewBox="0 0 18 18" fill="none" xmlns="http://www.w3.org/2000/svg">
<path fill-rule="evenodd" clip-rule="evenodd" d="M4.09091 6.57534V1.47945C2.64493 1.47945 1.47273 2.657 1.47273 4.10959C1.47273 5.56217 2.64493 6.73973 4.09091 6.73973L4.09359 6.73972C4.09181 6.68515 4.09091 6.63035 4.09091 6.57534ZM0 4.10959C0 1.83993 1.83156 0 4.09091 0H13.9091C16.1684 0 18 1.83993 18 4.10959C18 6.37925 16.1684 8.21918 13.9091 8.21918C13.8163 8.21918 13.7242 8.21607 13.633 8.20997C13.0401 9.90569 11.5509 11.1775 9.73636 11.4517V15.2877H11.0455C11.4521 15.2877 11.7818 15.6189 11.7818 16.0274C11.7818 16.2169 11.7109 16.3897 11.5943 16.5205H12.2727C12.6794 16.5205 13.0091 16.8517 13.0091 17.2603C13.0091 17.6688 12.6794 18 12.2727 18H9H5.72727C5.32059 18 4.99091 17.6688 4.99091 17.2603C4.99091 16.8517 5.32059 16.5205 5.72727 16.5205H6.40568C6.28908 16.3897 6.21818 16.2169 6.21818 16.0274C6.21818 15.6189 6.54786 15.2877 6.95455 15.2877H8.26364V11.4517C6.44913 11.1775 4.95986 9.90569 4.36702 8.20997C4.27577 8.21607 4.1837 8.21918 4.09091 8.21918C1.83156 8.21918 0 6.37925 0 4.10959ZM13.9091 6.57534C13.9091 6.63035 13.9082 6.68515 13.9064 6.73972L13.9091 6.73973C15.3551 6.73973 16.5273 5.56217 16.5273 4.10959C16.5273 2.657 15.3551 1.47945 13.9091 1.47945V6.57534ZM9.295 3.08261C9.17614 2.83407 8.82386 2.83407 8.705 3.08261L8.2483 4.0376C8.20059 4.13736 8.10612 4.20631 7.99693 4.22107L6.95167 4.36229C6.67965 4.39904 6.57079 4.73561 6.76936 4.92597L7.53235 5.65741C7.61206 5.73382 7.64814 5.84539 7.62837 5.95427L7.43907 6.99654C7.3898 7.26779 7.67481 7.4758 7.91638 7.34492L8.84464 6.84198C8.94161 6.78944 9.05839 6.78944 9.15536 6.84198L10.0836 7.34492C10.3252 7.4758 10.6102 7.26779 10.5609 6.99654L10.3716 5.95427C10.3519 5.84539 10.3879 5.73382 10.4676 5.65741L11.2306 4.92597C11.4292 4.73561 11.3203 4.39904 11.0483 4.36229L10.0031 4.22107C9.89388 4.20631 9.79941 4.13736 9.7517 4.0376L9.295 3.08261Z" fill="#F2C94C"/>
</svg>
