<svg width="20" height="20" viewBox="0 0 20 20" fill="none" xmlns="http://www.w3.org/2000/svg">
<path d="M4.1313 4.20235L3.4949 3.56595L2.85851 4.20235L3.4949 4.83874L4.1313 4.20235ZM7.01857 7.08961L7.66251 7.71837L8.28381 7.08207L7.65496 6.45322L7.01857 7.08961ZM4.20201 4.13164L4.83841 3.49524L4.20201 2.85884L3.56562 3.49524L4.20201 4.13164ZM7.08928 7.0189L6.45288 7.6553L7.08173 8.28415L7.71804 7.66284L7.08928 7.0189ZM12.9107 7.0189L12.2819 7.66284L12.9182 8.28415L13.5471 7.6553L12.9107 7.0189ZM15.798 4.13164L16.4344 3.49524L15.798 2.85885L15.1616 3.49524L15.798 4.13164ZM15.8687 4.20235L16.5051 4.83874L17.1415 4.20235L16.5051 3.56595L15.8687 4.20235ZM12.9814 7.08961L12.345 6.45322L11.7162 7.08207L12.3375 7.71838L12.9814 7.08961ZM12.9814 12.911L12.3375 12.2823L11.7162 12.9186L12.345 13.5474L12.9814 12.911ZM15.8687 15.7983L16.5051 16.4347L17.1415 15.7983L16.5051 15.1619L15.8687 15.7983ZM15.798 15.869L15.1616 16.5054L15.798 17.1418L16.4344 16.5054L15.798 15.869ZM12.9107 12.9817L13.5471 12.3454L12.9182 11.7165L12.2819 12.3378L12.9107 12.9817ZM7.08928 12.9817L7.71804 12.3378L7.08173 11.7165L6.45288 12.3454L7.08928 12.9817ZM4.20201 15.869L3.56561 16.5054L4.20201 17.1418L4.83841 16.5054L4.20201 15.869ZM4.1313 15.7983L3.4949 15.1619L2.85851 15.7983L3.4949 16.4347L4.1313 15.7983ZM7.01857 12.911L7.65496 13.5474L8.28382 12.9186L7.66251 12.2823L7.01857 12.911ZM9.99999 19.2337C15.0994 19.2337 19.2333 15.0998 19.2333 10.0003H17.4333C17.4333 14.1056 14.1053 17.4337 9.99999 17.4337V19.2337ZM0.766657 10.0003C0.766657 15.0998 4.90056 19.2337 9.99999 19.2337V17.4337C5.89467 17.4337 2.56666 14.1056 2.56666 10.0003H0.766657ZM9.99999 0.766992C4.90056 0.766992 0.766657 4.9009 0.766657 10.0003H2.56666C2.56666 5.89501 5.89467 2.56699 9.99999 2.56699V0.766992ZM19.2333 10.0003C19.2333 4.9009 15.0994 0.766992 9.99999 0.766992V2.56699C14.1053 2.56699 17.4333 5.89501 17.4333 10.0003H19.2333ZM3.4949 4.83874L6.38217 7.72601L7.65496 6.45322L4.7677 3.56595L3.4949 4.83874ZM3.56562 3.49524L3.4949 3.56595L4.7677 4.83874L4.83841 4.76803L3.56562 3.49524ZM7.72567 6.38251L4.83841 3.49524L3.56562 4.76803L6.45288 7.6553L7.72567 6.38251ZM7.71804 7.66284C8.30776 7.08702 9.1117 6.73366 9.99999 6.73366V4.93366C8.62306 4.93366 7.37287 5.48411 6.46052 6.37496L7.71804 7.66284ZM9.99999 6.73366C10.8883 6.73366 11.6922 7.08702 12.2819 7.66284L13.5395 6.37496C12.6271 5.48411 11.3769 4.93366 9.99999 4.93366V6.73366ZM15.1616 3.49524L12.2743 6.38251L13.5471 7.6553L16.4344 4.76803L15.1616 3.49524ZM16.5051 3.56595L16.4344 3.49524L15.1616 4.76803L15.2323 4.83875L16.5051 3.56595ZM13.6178 7.72601L16.5051 4.83874L15.2323 3.56595L12.345 6.45322L13.6178 7.72601ZM12.3375 7.71838C12.9133 8.3081 13.2667 9.11204 13.2667 10.0003H15.0667C15.0667 8.62339 14.5162 7.37321 13.6254 6.46085L12.3375 7.71838ZM13.2667 10.0003C13.2667 10.8886 12.9133 11.6926 12.3375 12.2823L13.6254 13.5398C14.5162 12.6274 15.0667 11.3773 15.0667 10.0003H13.2667ZM16.5051 15.1619L13.6178 12.2746L12.345 13.5474L15.2323 16.4347L16.5051 15.1619ZM16.4344 16.5054L16.5051 16.4347L15.2323 15.1619L15.1616 15.2326L16.4344 16.5054ZM12.2743 13.6181L15.1616 16.5054L16.4344 15.2326L13.5471 12.3454L12.2743 13.6181ZM12.2819 12.3378C11.6922 12.9136 10.8883 13.267 9.99999 13.267V15.067C11.3769 15.067 12.6271 14.5165 13.5395 13.6257L12.2819 12.3378ZM9.99999 13.267C9.1117 13.267 8.30777 12.9136 7.71804 12.3378L6.46052 13.6257C7.37288 14.5165 8.62306 15.067 9.99999 15.067V13.267ZM4.83841 16.5054L7.72567 13.6181L6.45288 12.3454L3.56562 15.2326L4.83841 16.5054ZM3.4949 16.4347L3.56561 16.5054L4.83841 15.2326L4.7677 15.1619L3.4949 16.4347ZM6.38217 12.2746L3.4949 15.1619L4.7677 16.4347L7.65496 13.5474L6.38217 12.2746ZM7.66251 12.2823C7.08668 11.6926 6.73332 10.8886 6.73332 10.0003H4.93332C4.93332 11.3773 5.48377 12.6274 6.37463 13.5398L7.66251 12.2823ZM6.73332 10.0003C6.73332 9.11204 7.08668 8.3081 7.66251 7.71837L6.37463 6.46085C5.48377 7.37321 4.93332 8.62339 4.93332 10.0003H6.73332Z" fill="#0E0E10"/>
</svg>
