<svg width="24" height="25" viewBox="0 0 24 25" fill="none" xmlns="http://www.w3.org/2000/svg">
<path fill-rule="evenodd" clip-rule="evenodd" d="M13 19.5811H17.5V15.5811H13V19.5811ZM6.5 19.5811H11V15.5811H6.5V19.5811ZM5 9.78105C5 9.69805 5.013 9.63105 5.026 9.58105H8.143H11V13.5811H5.026C5.013 13.5311 5 13.4641 5 13.3811V9.78105ZM7 6.58105C7 6.02905 7.513 5.58105 8.143 5.58105C9.4 5.58105 10.17 6.67105 10.594 7.58105H8.143C7.513 7.58105 7 7.13305 7 6.58105ZM15.857 5.58105C16.487 5.58105 17 6.02905 17 6.58105C17 7.13305 16.487 7.58105 15.857 7.58105H13.4C13.82 6.67105 14.588 5.58105 15.857 5.58105ZM19 9.78105V13.3811C19 13.4641 18.987 13.5311 18.974 13.5811H13V9.58105H15.857H18.974C18.987 9.63105 19 9.69805 19 9.78105ZM19.2 7.58105H18.807C18.925 7.26705 19 6.93405 19 6.58105C19 4.92705 17.59 3.58105 15.857 3.58105C13.935 3.58105 12.729 4.78005 12 5.97805C11.271 4.78005 10.065 3.58105 8.143 3.58105C6.41 3.58105 5 4.92705 5 6.58105C5 6.93405 5.076 7.26705 5.193 7.58105H4.8C3.791 7.58105 3 8.54805 3 9.78105V13.3811C3 14.4881 3.64 15.3741 4.5 15.5451V19.9141C4.5 20.8331 5.313 21.5811 6.312 21.5811H17.687C18.687 21.5811 19.5 20.8331 19.5 19.9141V15.5451C20.36 15.3741 21 14.4881 21 13.3811V9.78105C21 8.54805 20.209 7.58105 19.2 7.58105Z" fill="#0E0E10"/>
<mask id="mask0" mask-type="alpha" maskUnits="userSpaceOnUse" x="3" y="3" width="18" height="19">
<path fill-rule="evenodd" clip-rule="evenodd" d="M13 19.5811H17.5V15.5811H13V19.5811ZM6.5 19.5811H11V15.5811H6.5V19.5811ZM5 9.78105C5 9.69805 5.013 9.63105 5.026 9.58105H8.143H11V13.5811H5.026C5.013 13.5311 5 13.4641 5 13.3811V9.78105ZM7 6.58105C7 6.02905 7.513 5.58105 8.143 5.58105C9.4 5.58105 10.17 6.67105 10.594 7.58105H8.143C7.513 7.58105 7 7.13305 7 6.58105ZM15.857 5.58105C16.487 5.58105 17 6.02905 17 6.58105C17 7.13305 16.487 7.58105 15.857 7.58105H13.4C13.82 6.67105 14.588 5.58105 15.857 5.58105ZM19 9.78105V13.3811C19 13.4641 18.987 13.5311 18.974 13.5811H13V9.58105H15.857H18.974C18.987 9.63105 19 9.69805 19 9.78105ZM19.2 7.58105H18.807C18.925 7.26705 19 6.93405 19 6.58105C19 4.92705 17.59 3.58105 15.857 3.58105C13.935 3.58105 12.729 4.78005 12 5.97805C11.271 4.78005 10.065 3.58105 8.143 3.58105C6.41 3.58105 5 4.92705 5 6.58105C5 6.93405 5.076 7.26705 5.193 7.58105H4.8C3.791 7.58105 3 8.54805 3 9.78105V13.3811C3 14.4881 3.64 15.3741 4.5 15.5451V19.9141C4.5 20.8331 5.313 21.5811 6.312 21.5811H17.687C18.687 21.5811 19.5 20.8331 19.5 19.9141V15.5451C20.36 15.3741 21 14.4881 21 13.3811V9.78105C21 8.54805 20.209 7.58105 19.2 7.58105Z" fill="white"/>
</mask>
<g mask="url(#mask0)">
</g>
</svg>
