<svg width="24" height="25" viewBox="0 0 24 25" fill="none" xmlns="http://www.w3.org/2000/svg">
<path fill-rule="evenodd" clip-rule="evenodd" d="M11 15.5811H7C6.45 15.5811 6 15.1311 6 14.5811C6 14.0311 6.45 13.5811 7 13.5811H11C11.55 13.5811 12 14.0311 12 14.5811C12 15.1311 11.55 15.5811 11 15.5811ZM17 15.5811H15C14.45 15.5811 14 15.1311 14 14.5811C14 14.0311 14.45 13.5811 15 13.5811H17C17.55 13.5811 18 14.0311 18 14.5811C18 15.1311 17.55 15.5811 17 15.5811ZM20 16.5811C20 17.1321 19.552 17.5811 19 17.5811H5C4.448 17.5811 4 17.1321 4 16.5811V11.5811H20V16.5811ZM4 8.58105C4 8.03005 4.448 7.58105 5 7.58105H19C19.552 7.58105 20 8.03005 20 8.58105V9.58105H4V8.58105ZM19 5.58105H5C3.346 5.58105 2 6.92705 2 8.58105V16.5811C2 18.2351 3.346 19.5811 5 19.5811H19C20.654 19.5811 22 18.2351 22 16.5811V8.58105C22 6.92705 20.654 5.58105 19 5.58105Z" fill="#0E0E10"/>
<mask id="mask0" mask-type="alpha" maskUnits="userSpaceOnUse" x="2" y="5" width="20" height="15">
<path fill-rule="evenodd" clip-rule="evenodd" d="M11 15.5811H7C6.45 15.5811 6 15.1311 6 14.5811C6 14.0311 6.45 13.5811 7 13.5811H11C11.55 13.5811 12 14.0311 12 14.5811C12 15.1311 11.55 15.5811 11 15.5811ZM17 15.5811H15C14.45 15.5811 14 15.1311 14 14.5811C14 14.0311 14.45 13.5811 15 13.5811H17C17.55 13.5811 18 14.0311 18 14.5811C18 15.1311 17.55 15.5811 17 15.5811ZM20 16.5811C20 17.1321 19.552 17.5811 19 17.5811H5C4.448 17.5811 4 17.1321 4 16.5811V11.5811H20V16.5811ZM4 8.58105C4 8.03005 4.448 7.58105 5 7.58105H19C19.552 7.58105 20 8.03005 20 8.58105V9.58105H4V8.58105ZM19 5.58105H5C3.346 5.58105 2 6.92705 2 8.58105V16.5811C2 18.2351 3.346 19.5811 5 19.5811H19C20.654 19.5811 22 18.2351 22 16.5811V8.58105C22 6.92705 20.654 5.58105 19 5.58105Z" fill="white"/>
</mask>
<g mask="url(#mask0)">
</g>
</svg>
