<svg width="24" height="24" viewBox="0 0 24 24" fill="none" xmlns="http://www.w3.org/2000/svg">
<path fill-rule="evenodd" clip-rule="evenodd" d="M13.5459 11.5005C9.98291 11.5005 6.76891 13.1345 4.73591 15.7595C5.67091 11.8905 9.26591 9.00047 13.5459 9.00047C14.0989 9.00047 14.5459 8.55347 14.5459 8.00047V6.07747L19.3699 10.2515L14.5459 14.4635V12.5005C14.5459 11.9475 14.0989 11.5005 13.5459 11.5005ZM3.77891 21.0005C4.23991 21.0005 4.64191 20.6855 4.75091 20.2375C5.64091 16.5885 8.77191 13.9525 12.5459 13.5535V14.6745C12.5459 15.3805 12.9649 16.0095 13.6389 16.3145C14.3699 16.6475 15.2229 16.5275 15.8159 16.0105L20.8819 11.5865C21.2749 11.2425 21.4999 10.7555 21.4999 10.2505C21.4999 9.74547 21.2749 9.25847 20.8819 8.91447L15.8159 4.49047C15.2229 3.97347 14.3699 3.85347 13.6389 4.18647C12.9649 4.49147 12.5459 5.12047 12.5459 5.82647V7.04447C6.92191 7.53747 2.49991 12.1505 2.49991 17.7505C2.49991 18.5605 2.60391 19.3965 2.80791 20.2365C2.91591 20.6855 3.31691 21.0005 3.77891 21.0005Z" fill="#0E0E10"/>
<mask id="mask0" mask-type="alpha" maskUnits="userSpaceOnUse" x="2" y="4" width="20" height="18">
<path fill-rule="evenodd" clip-rule="evenodd" d="M13.5459 11.5005C9.98291 11.5005 6.76891 13.1345 4.73591 15.7595C5.67091 11.8905 9.26591 9.00047 13.5459 9.00047C14.0989 9.00047 14.5459 8.55347 14.5459 8.00047V6.07747L19.3699 10.2515L14.5459 14.4635V12.5005C14.5459 11.9475 14.0989 11.5005 13.5459 11.5005ZM3.77891 21.0005C4.23991 21.0005 4.64191 20.6855 4.75091 20.2375C5.64091 16.5885 8.77191 13.9525 12.5459 13.5535V14.6745C12.5459 15.3805 12.9649 16.0095 13.6389 16.3145C14.3699 16.6475 15.2229 16.5275 15.8159 16.0105L20.8819 11.5865C21.2749 11.2425 21.4999 10.7555 21.4999 10.2505C21.4999 9.74547 21.2749 9.25847 20.8819 8.91447L15.8159 4.49047C15.2229 3.97347 14.3699 3.85347 13.6389 4.18647C12.9649 4.49147 12.5459 5.12047 12.5459 5.82647V7.04447C6.92191 7.53747 2.49991 12.1505 2.49991 17.7505C2.49991 18.5605 2.60391 19.3965 2.80791 20.2365C2.91591 20.6855 3.31691 21.0005 3.77891 21.0005Z" fill="white"/>
</mask>
<g mask="url(#mask0)">
</g>
</svg>
