<svg width="25" height="25" viewBox="0 0 25 25" fill="none" xmlns="http://www.w3.org/2000/svg">
<path fill-rule="evenodd" clip-rule="evenodd" d="M7.51611 7.22656C7.51611 6.67356 7.96411 6.22656 8.51611 6.22656C9.06811 6.22656 9.51611 6.67356 9.51611 7.22656C9.51611 7.77956 9.06811 8.22656 8.51611 8.22656C7.96411 8.22656 7.51611 7.77956 7.51611 7.22656ZM11.5161 7.22656C11.5161 6.67356 11.9641 6.22656 12.5161 6.22656C13.0681 6.22656 13.5161 6.67356 13.5161 7.22656C13.5161 7.77956 13.0681 8.22656 12.5161 8.22656C11.9641 8.22656 11.5161 7.77956 11.5161 7.22656ZM5.51611 9.22656V6.22656C5.51611 5.67456 5.96511 5.22656 6.51611 5.22656H18.5161C19.0671 5.22656 19.5161 5.67456 19.5161 6.22656V9.22656H5.51611ZM19.5161 18.2266C19.5161 18.7786 19.0671 19.2266 18.5161 19.2266H6.51611C5.96511 19.2266 5.51611 18.7786 5.51611 18.2266V11.2266H19.5161V18.2266ZM18.5161 3.22656H6.51611C4.86211 3.22656 3.51611 4.57256 3.51611 6.22656V9.22656V11.2266V18.2266C3.51611 19.8806 4.86211 21.2266 6.51611 21.2266H18.5161C20.1701 21.2266 21.5161 19.8806 21.5161 18.2266V11.2266V9.22656V6.22656C21.5161 4.57256 20.1701 3.22656 18.5161 3.22656Z" fill="#0E0E10"/>
<mask id="mask0" mask-type="alpha" maskUnits="userSpaceOnUse" x="3" y="3" width="19" height="19">
<path fill-rule="evenodd" clip-rule="evenodd" d="M7.51611 7.22656C7.51611 6.67356 7.96411 6.22656 8.51611 6.22656C9.06811 6.22656 9.51611 6.67356 9.51611 7.22656C9.51611 7.77956 9.06811 8.22656 8.51611 8.22656C7.96411 8.22656 7.51611 7.77956 7.51611 7.22656ZM11.5161 7.22656C11.5161 6.67356 11.9641 6.22656 12.5161 6.22656C13.0681 6.22656 13.5161 6.67356 13.5161 7.22656C13.5161 7.77956 13.0681 8.22656 12.5161 8.22656C11.9641 8.22656 11.5161 7.77956 11.5161 7.22656ZM5.51611 9.22656V6.22656C5.51611 5.67456 5.96511 5.22656 6.51611 5.22656H18.5161C19.0671 5.22656 19.5161 5.67456 19.5161 6.22656V9.22656H5.51611ZM19.5161 18.2266C19.5161 18.7786 19.0671 19.2266 18.5161 19.2266H6.51611C5.96511 19.2266 5.51611 18.7786 5.51611 18.2266V11.2266H19.5161V18.2266ZM18.5161 3.22656H6.51611C4.86211 3.22656 3.51611 4.57256 3.51611 6.22656V9.22656V11.2266V18.2266C3.51611 19.8806 4.86211 21.2266 6.51611 21.2266H18.5161C20.1701 21.2266 21.5161 19.8806 21.5161 18.2266V11.2266V9.22656V6.22656C21.5161 4.57256 20.1701 3.22656 18.5161 3.22656Z" fill="white"/>
</mask>
<g mask="url(#mask0)">
</g>
</svg>
