<svg width="46" height="46" viewBox="0 0 46 46" fill="none" xmlns="http://www.w3.org/2000/svg">
<rect width="46" height="46" fill="#E8E8E8"/>
<g clip-path="url(#clip0)">
<rect x="-29" y="-482" width="414" height="896" rx="40" fill="white"/>
<rect x="-29" y="-482" width="414" height="906" fill="#F2F2F2"/>
<g filter="url(#filter0_b)">
<path d="M-29 -482H385V414H-29V-482Z" fill="#9A9A9A" fill-opacity="0.7"/>
</g>
<rect x="-19" y="-278" width="394" height="488" rx="4" fill="white"/>
<rect width="46" height="46" rx="8" fill="#FD5344"/>
<path d="M32.9804 18.8801C32.9335 17.8174 32.7617 17.0868 32.5155 16.4537C32.2616 15.7818 31.8709 15.1801 31.359 14.68C30.8589 14.1721 30.2533 13.7774 29.5891 13.5274C28.9524 13.2813 28.2256 13.1094 27.1629 13.0626C26.0923 13.0118 25.7524 13 23.0371 13C20.3217 13 19.9818 13.0118 18.9152 13.0586C17.8525 13.1055 17.1219 13.2775 16.489 13.5235C15.8169 13.7774 15.2153 14.1681 14.7151 14.68C14.2072 15.1801 13.8127 15.7857 13.5626 16.4499C13.3164 17.0868 13.1446 17.8134 13.0977 18.8761C13.0469 19.9467 13.0351 20.2866 13.0351 23.002C13.0351 25.7173 13.0469 26.0572 13.0937 27.1239C13.1406 28.1865 13.3126 28.9171 13.5588 29.5502C13.8127 30.2221 14.2072 30.8238 14.7151 31.3239C15.2153 31.8318 15.8209 32.2265 16.485 32.4765C17.1219 32.7226 17.8485 32.8945 18.9114 32.9413C19.9778 32.9883 20.3179 32.9999 23.0332 32.9999C25.7486 32.9999 26.0885 32.9883 27.1551 32.9413C28.2178 32.8945 28.9484 32.7226 29.5813 32.4765C30.9254 31.9568 31.9881 30.8941 32.5077 29.5502C32.7538 28.9133 32.9258 28.1865 32.9726 27.1239C33.0195 26.0572 33.0312 25.7173 33.0312 23.002C33.0312 20.2866 33.0273 19.9467 32.9804 18.8801ZM31.1794 27.0457C31.1363 28.0225 30.9723 28.5499 30.8355 28.9015C30.4994 29.7728 29.8079 30.4643 28.9366 30.8004C28.585 30.9372 28.0538 31.1012 27.0808 31.1441C26.0259 31.1911 25.7095 31.2027 23.041 31.2027C20.3725 31.2027 20.0522 31.1911 19.0011 31.1441C18.0243 31.1012 17.4969 30.9372 17.1453 30.8004C16.7117 30.6402 16.317 30.3862 15.9967 30.0541C15.6646 29.7298 15.4106 29.3391 15.2504 28.9055C15.1136 28.5539 14.9496 28.0225 14.9067 27.0497C14.8597 25.9948 14.8481 25.6783 14.8481 23.0097C14.8481 20.3412 14.8597 20.0209 14.9067 18.9699C14.9496 17.9932 15.1136 17.4657 15.2504 17.1141C15.4106 16.6804 15.6646 16.2859 16.0006 15.9654C16.3248 15.6333 16.7155 15.3793 17.1492 15.2192C17.5009 15.0825 18.0323 14.9184 19.0051 14.8754C20.06 14.8285 20.3765 14.8168 23.0448 14.8168C25.7173 14.8168 26.0337 14.8285 27.0848 14.8754C28.0615 14.9184 28.589 15.0825 28.9406 15.2192C29.3742 15.3793 29.7689 15.6333 30.0892 15.9654C30.4213 16.2897 30.6753 16.6804 30.8355 17.1141C30.9723 17.4657 31.1363 17.997 31.1794 18.9699C31.2262 20.0248 31.238 20.3412 31.238 23.0097C31.238 25.6783 31.2262 25.9908 31.1794 27.0457Z" fill="white"/>
<path d="M23.0371 17.8642C20.2007 17.8642 17.8993 20.1654 17.8993 23.002C17.8993 25.8385 20.2007 28.1397 23.0371 28.1397C25.8736 28.1397 28.1748 25.8385 28.1748 23.002C28.1748 20.1654 25.8736 17.8642 23.0371 17.8642ZM23.0371 26.3347C21.1969 26.3347 19.7043 24.8422 19.7043 23.002C19.7043 21.1617 21.1969 19.6692 23.0371 19.6692C24.8773 19.6692 26.3698 21.1617 26.3698 23.002C26.3698 24.8422 24.8773 26.3347 23.0371 26.3347Z" fill="white"/>
<path d="M29.5775 17.6611C29.5775 18.3235 29.0405 18.8605 28.3779 18.8605C27.7156 18.8605 27.1785 18.3235 27.1785 17.6611C27.1785 16.9986 27.7156 16.4617 28.3779 16.4617C29.0405 16.4617 29.5775 16.9986 29.5775 17.6611Z" fill="white"/>
</g>
<defs>
<filter id="filter0_b" x="-53" y="-506" width="462" height="944" filterUnits="userSpaceOnUse" color-interpolation-filters="sRGB">
<feFlood flood-opacity="0" result="BackgroundImageFix"/>
<feGaussianBlur in="BackgroundImage" stdDeviation="12"/>
<feComposite in2="SourceAlpha" operator="in" result="effect1_backgroundBlur"/>
<feBlend mode="normal" in="SourceGraphic" in2="effect1_backgroundBlur" result="shape"/>
</filter>
<clipPath id="clip0">
<rect x="-29" y="-482" width="414" height="896" rx="40" fill="white"/>
</clipPath>
</defs>
</svg>
