<svg width="46" height="45" viewBox="0 0 46 45" fill="none" xmlns="http://www.w3.org/2000/svg">
<g clip-path="url(#clip0)">
<path d="M8.81502 11.8963C8.98202 11.8952 9.14793 11.8752 9.31022 11.836L8.50716 12.6398L17.7372 21.8698V42.3804C17.7372 43.6122 18.736 44.611 19.9678 44.611C21.1996 44.611 22.1983 43.6122 22.1983 42.3804V31.9712H23.6854V42.3804C23.6854 43.6122 24.6841 44.611 25.9159 44.611C27.1477 44.611 28.1464 43.6122 28.1464 42.3804V21.8698L37.3765 12.6398L36.5735 11.836C36.7357 11.8752 36.9016 11.8952 37.0686 11.8963C38.3005 11.8963 39.2992 10.8975 39.2992 9.66571C39.2992 8.4339 38.3005 7.43516 37.0686 7.43516C36.8149 7.43771 36.5633 7.48381 36.3251 7.57203V0H9.55854V7.57203C9.32038 7.48381 9.06879 7.43771 8.81502 7.43516C7.58321 7.43516 6.58447 8.4339 6.58447 9.66571C6.58447 10.8975 7.58321 11.8963 8.81502 11.8963ZM25.8117 11.1527C26.1403 12.3617 25.6759 13.6472 24.6507 14.3668C23.6251 15.0867 22.2586 15.0867 21.233 14.3668C20.2077 13.6472 19.7434 12.3617 20.072 11.1527H25.8117ZM22.9418 16.3574C24.2571 16.3646 25.5078 15.7881 26.3563 14.7828C27.2051 13.7779 27.5638 12.4481 27.3361 11.1527H32.2997L24.8645 18.5879H21.0191L13.584 11.1527H18.5475C18.3199 12.4481 18.6786 13.7779 19.5274 14.7828C20.3758 15.7881 21.6265 16.3646 22.9418 16.3574ZM10.6099 12.6398L11.7891 11.4606L18.9164 18.5879H17.7372V19.7671L10.6099 12.6398ZM20.7113 42.3804C20.7113 42.791 20.3784 43.124 19.9678 43.124C19.5572 43.124 19.2243 42.791 19.2243 42.3804V31.9712H20.7113V42.3804ZM26.6594 42.3804C26.6594 42.791 26.3265 43.124 25.9159 43.124C25.5053 43.124 25.1724 42.791 25.1724 42.3804V31.9712H26.6594V42.3804ZM19.2243 30.4842V20.0749H26.6594V30.4842H19.2243ZM28.1464 19.7671V18.5879H26.9673L34.0946 11.4606L34.1534 11.5194L34.519 11.1527H34.5259L34.1541 11.5245L35.2694 12.6398L28.1464 19.7671ZM37.0686 8.9222C37.4792 8.9222 37.8122 9.25511 37.8122 9.66571C37.8122 10.0763 37.4792 10.4092 37.0686 10.4092C36.658 10.4092 36.3251 10.0763 36.3251 9.66571C36.3251 9.25511 36.658 8.9222 37.0686 8.9222ZM11.0456 1.48703H34.8381V9.66571H11.0456V1.48703ZM8.81502 8.9222C9.22563 8.9222 9.55854 9.25511 9.55854 9.66571C9.55854 10.0763 9.22563 10.4092 8.81502 10.4092C8.40442 10.4092 8.07151 10.0763 8.07151 9.66571C8.07151 9.25511 8.40442 8.9222 8.81502 8.9222Z" fill="#979797"/>
<path d="M2.12329 5.20459H5.09736V6.69162H2.12329V5.20459Z" fill="#979797"/>
<path d="M2.34155 1.26915L3.39293 0.217773L5.62348 2.44832L4.5721 3.50006L2.34155 1.26915Z" fill="#979797"/>
<path d="M2.34155 10.6267L4.57246 8.39612L5.62384 9.44749L3.39293 11.6784L2.34155 10.6267Z" fill="#979797"/>
<path d="M40.7861 5.20459H43.7602V6.69162H40.7861V5.20459Z" fill="#979797"/>
<path d="M40.2605 2.44832L42.491 0.217773L43.5424 1.26915L41.3119 3.4997L40.2605 2.44832Z" fill="#979797"/>
<path d="M40.2605 9.44786L41.3119 8.39612L43.5428 10.627L42.491 11.6784L40.2605 9.44786Z" fill="#979797"/>
<path d="M2.84546 20.075C2.87051 20.8555 3.22847 21.5878 3.82822 22.0877L8.04681 26.3048L12.2901 22.1113C12.925 21.6266 13.2975 20.8737 13.2975 20.075C13.2975 19.2763 12.925 18.5233 12.2901 18.0387C11.1149 17.0094 9.40859 16.8591 8.07149 17.6669C6.7344 16.8591 5.02809 17.0094 3.85291 18.0387C3.24082 18.5418 2.87378 19.2832 2.84546 20.075ZM4.85274 19.1372C5.63328 18.466 6.7874 18.466 7.56831 19.1372L8.06932 19.5939L8.57032 19.1372C9.35087 18.466 10.505 18.466 11.2859 19.1372C11.5781 19.3674 11.7655 19.7054 11.8061 20.075C11.7615 20.4547 11.5651 20.8003 11.2619 21.0334L8.05298 24.209L4.85564 21.0116C4.56266 20.7826 4.37388 20.4449 4.33249 20.075C4.37352 19.705 4.56194 19.367 4.85491 19.1372H4.85274Z" fill="#979797"/>
<path d="M36.3251 25.1151C35.2131 24.4856 33.8252 24.6253 32.8609 25.464C32.2851 25.9987 31.9613 26.7517 31.9696 27.5377C31.978 28.3237 32.3174 29.0697 32.9048 29.5918L36.3251 32.1571L39.7893 29.5548C40.3567 29.0262 40.6791 28.2856 40.6791 27.5101C40.6791 26.7346 40.3567 25.994 39.7893 25.4654C38.8254 24.6264 37.4375 24.4859 36.3251 25.1151ZM38.809 26.5821C39.3042 27.0813 39.3235 27.88 38.853 28.4025L36.3251 30.2983L33.8411 28.4395C33.5939 28.1933 33.4552 27.859 33.4552 27.5101C33.4552 27.1612 33.5939 26.8268 33.8411 26.5807C34.4126 26.083 35.2635 26.083 35.835 26.5807L36.3251 27.0098L36.8152 26.5807C37.387 26.0837 38.238 26.0844 38.809 26.5821Z" fill="#979797"/>
<path d="M15.5066 2.97412H18.4807V4.46115H15.5066V2.97412Z" fill="#979797"/>
<path d="M19.9678 2.97412H27.4029V4.46115H19.9678V2.97412Z" fill="#979797"/>
<path d="M28.8899 2.97412H30.3769V4.46115H28.8899V2.97412Z" fill="#979797"/>
<path d="M14.0195 5.94812H15.5066V7.43515H14.0195V5.94812Z" fill="#979797"/>
<path d="M27.4028 5.94812H31.8639V7.43515H27.4028V5.94812Z" fill="#979797"/>
<path d="M16.9937 5.94812H18.4807V7.43515H16.9937V5.94812Z" fill="#979797"/>
</g>
<defs>
<clipPath id="clip0">
<rect width="44.611" height="44.611" fill="white" transform="translate(0.63623)"/>
</clipPath>
</defs>
</svg>
