<svg width="46" height="45" viewBox="0 0 46 45" fill="none" xmlns="http://www.w3.org/2000/svg">
<path d="M44.359 26.0233H42.0787L40.6416 5.15439C40.6146 4.76366 40.2898 4.46088 39.8979 4.46143H35.4368C35.045 4.46088 34.7202 4.76366 34.6932 5.15439L33.2561 26.0233H31.7196V21.5622C31.7196 21.1519 31.3866 20.8186 30.9763 20.8186C30.8069 20.8183 30.643 20.8761 30.5112 20.9817L24.2844 25.9631V21.5622C24.2844 21.1519 23.9516 20.8186 23.541 20.8186C23.372 20.8183 23.208 20.8761 23.0763 20.9817L16.8494 25.9631V21.5622C16.8494 21.1519 16.5167 20.8186 16.1061 20.8186C15.937 20.8183 15.7728 20.8761 15.6413 20.9817L9.41441 25.9631V21.5622C9.41414 21.1519 9.08114 20.8189 8.6708 20.8189C8.53548 20.8189 8.40342 20.8556 8.2877 20.9251L0.852447 25.3862C0.628902 25.5207 0.491943 25.7622 0.491943 26.0233V43.8677C0.491943 44.2783 0.824946 44.611 1.23555 44.611H44.359C44.7696 44.611 45.1027 44.2783 45.1027 43.8677V26.7669C45.1027 26.356 44.7696 26.0233 44.359 26.0233ZM36.1312 5.94837H39.2036L40.5885 26.0233H34.7463L36.1312 5.94837ZM25.771 43.1241V34.2019H30.2321V43.1241H25.771ZM43.6157 43.1241H31.7196V33.4583C31.7196 33.048 31.3864 32.715 30.9758 32.715H25.0277C24.6171 32.715 24.2841 33.048 24.2841 33.4583V43.1241H1.97889V26.4443L7.92693 22.8754V27.5103C7.92693 27.9211 8.25966 28.2539 8.67026 28.2544C8.83908 28.2544 9.00326 28.1967 9.13532 28.091L15.3622 23.1096V27.5103C15.3622 27.9211 15.6946 28.2539 16.1055 28.2544C16.2743 28.2544 16.4382 28.1967 16.5703 28.0913L22.7972 23.1099V27.5105C22.7972 27.9211 23.1296 28.2544 23.5405 28.2544C23.7093 28.2544 23.8732 28.1967 24.0053 28.0913L30.2321 23.1099V26.7669C30.2321 27.1778 30.5651 27.5105 30.9758 27.5105H43.6152V43.1241H43.6157Z" fill="#BA9B39"/>
<path d="M25.7661 1.48759C26.0364 1.63245 26.2807 1.82141 26.489 2.04659C26.9058 2.55494 27.4994 2.88604 28.1505 2.97453C28.8363 2.88713 29.4626 2.5416 29.9023 2.00792C30.0905 1.81052 30.301 1.63598 30.5299 1.48759C30.683 1.4944 31.0838 1.8696 31.2994 2.07109C31.7005 2.56747 32.2766 2.89067 32.9089 2.97453C33.6392 2.88196 34.3065 2.51573 34.7768 1.94993C34.9589 1.77893 35.2347 1.51945 35.2881 1.48759C35.6873 1.48759 35.7788 1.61992 36.0244 1.97389C36.347 2.58353 36.9776 2.96773 37.6676 2.97453C38.0779 2.97453 38.4109 2.64153 38.4109 2.2312C38.4109 1.82032 38.0779 1.48759 37.6676 1.48759C37.5187 1.48759 37.4898 1.47724 37.2483 1.12845C36.8535 0.419148 36.0995 -0.0146 35.2881 0.000375655C34.6866 0.0839668 34.1393 0.393281 33.7581 0.865966C33.5112 1.09877 33.0973 1.48759 32.9402 1.49113C32.7098 1.35172 32.4996 1.18182 32.3139 0.986588C31.8669 0.44202 31.2286 0.0894125 30.5297 0.000375655C29.8852 0.0883233 29.2981 0.416698 28.8856 0.919334C28.677 1.14315 28.4361 1.33457 28.1711 1.48759C27.9234 1.34546 27.6979 1.16793 27.5021 0.959632C27.0676 0.431946 26.449 0.0894125 25.771 0.000375655C25.3606 -0.000985764 25.0263 0.330656 25.0249 0.741532C25.0235 1.15186 25.3555 1.48623 25.7661 1.48759Z" fill="#BA9B39"/>
<path d="M8.67089 34.2019H5.69646C5.28586 34.2019 4.95312 34.5349 4.95312 34.9452V39.4063C4.95312 39.8172 5.28586 40.1499 5.69646 40.1499H8.67089C9.08122 40.1499 9.41422 39.8172 9.41422 39.4063V34.9452C9.41422 34.5349 9.08122 34.2019 8.67089 34.2019ZM7.92701 38.663H6.44007V35.6891H7.92701V38.663Z" fill="#BA9B39"/>
<path d="M14.6189 34.2019H11.6447C11.2339 34.2019 10.9011 34.5349 10.9011 34.9452V39.4063C10.9011 39.8172 11.2339 40.1499 11.6447 40.1499H14.6189C15.0292 40.1499 15.3622 39.8172 15.3622 39.4063V34.9452C15.3622 34.5349 15.0292 34.2019 14.6189 34.2019ZM13.875 38.663H12.3881V35.6891H13.875V38.663Z" fill="#BA9B39"/>
<path d="M20.567 34.2019H17.5929C17.182 34.2019 16.8492 34.5349 16.8492 34.9452V39.4063C16.8492 39.8172 17.182 40.1499 17.5929 40.1499H20.567C20.9773 40.1499 21.3103 39.8172 21.3103 39.4063V34.9452C21.3103 34.5349 20.9773 34.2019 20.567 34.2019ZM19.8231 38.663H18.3362V35.6891H19.8231V38.663Z" fill="#BA9B39"/>
</svg>
