<svg width="33" height="42" viewBox="0 0 33 42" fill="none" xmlns="http://www.w3.org/2000/svg">
<path d="M17.8186 18.2449H15.0304C14.8456 18.2449 14.6683 18.1715 14.5375 18.0408C14.4068 17.91 14.3334 17.7327 14.3334 17.5479V15.8352C13.9427 15.7122 13.5637 15.555 13.2007 15.3654L11.9892 16.5769C11.8585 16.7076 11.6812 16.781 11.4964 16.781C11.3116 16.781 11.1343 16.7076 11.0036 16.5769L9.03095 14.6042C8.90027 14.4735 8.82686 14.2963 8.82686 14.1114C8.82686 13.9266 8.90027 13.7493 9.03095 13.6186L10.2424 12.4072C10.0528 12.0441 9.8956 11.6651 9.77261 11.2745H8.05996C7.87509 11.2745 7.6978 11.201 7.56707 11.0703C7.43635 10.9396 7.36292 10.7623 7.36292 10.5774V7.78922C7.36292 7.60435 7.43635 7.42705 7.56707 7.29633C7.6978 7.16561 7.87509 7.09217 8.05996 7.09217H9.77261C9.8956 6.70152 10.0528 6.32249 10.2424 5.95947L9.03095 4.748C8.90027 4.61729 8.82686 4.44002 8.82686 4.25519C8.82686 4.07036 8.90027 3.89309 9.03095 3.76238L11.0036 1.78974C11.1343 1.65906 11.3116 1.58565 11.4964 1.58565C11.6812 1.58565 11.8585 1.65906 11.9892 1.78974L13.2007 3.0012C13.5637 2.8116 13.9427 2.65439 14.3334 2.53139V0.818751C14.3334 0.633882 14.4068 0.456586 14.5375 0.325864C14.6683 0.195143 14.8456 0.121704 15.0304 0.121704H17.8186C18.0035 0.121704 18.1808 0.195143 18.3115 0.325864C18.4422 0.456586 18.5157 0.633882 18.5157 0.818751V2.53139C18.9063 2.65439 19.2853 2.8116 19.6484 3.0012L20.8598 1.78974C20.9905 1.65906 21.1678 1.58565 21.3526 1.58565C21.5375 1.58565 21.7147 1.65906 21.8455 1.78974L23.8181 3.76238C23.9488 3.89309 24.0222 4.07036 24.0222 4.25519C24.0222 4.44002 23.9488 4.61729 23.8181 4.748L22.6066 5.95947C22.7962 6.32249 22.9534 6.70152 23.0764 7.09217H24.7891C24.9739 7.09217 25.1512 7.16561 25.282 7.29633C25.4127 7.42705 25.4861 7.60435 25.4861 7.78922V10.5774C25.4861 10.7623 25.4127 10.9396 25.282 11.0703C25.1512 11.201 24.9739 11.2745 24.7891 11.2745H23.0764C22.9534 11.6651 22.7962 12.0441 22.6066 12.4072L23.8181 13.6186C23.9488 13.7493 24.0222 13.9266 24.0222 14.1114C24.0222 14.2963 23.9488 14.4735 23.8181 14.6042L21.8455 16.5769C21.7147 16.7076 21.5375 16.781 21.3526 16.781C21.1678 16.781 20.9905 16.7076 20.8598 16.5769L19.6484 15.3654C19.2853 15.555 18.9063 15.7122 18.5157 15.8352V17.5479C18.5157 17.7327 18.4422 17.91 18.3115 18.0408C18.1808 18.1715 18.0035 18.2449 17.8186 18.2449ZM15.7275 16.8508H17.1216V15.3034C17.1215 15.1456 17.175 14.9925 17.2732 14.869C17.3715 14.7456 17.5087 14.6591 17.6625 14.6238C18.2748 14.4824 18.8591 14.2395 19.3912 13.9051C19.5249 13.8207 19.6835 13.7843 19.8407 13.8019C19.9979 13.8195 20.1444 13.8901 20.2562 14.002L21.3526 15.0984L22.3397 14.1114L21.2432 13.0171C21.1313 12.9053 21.0607 12.7587 21.0431 12.6015C21.0255 12.4443 21.0619 12.2858 21.1463 12.152C21.4805 11.6195 21.7236 11.0351 21.8657 10.4227C21.9007 10.2687 21.987 10.1313 22.1103 10.0328C22.2336 9.93426 22.3867 9.88052 22.5446 9.88036H24.092V8.48626H22.5446C22.387 8.48621 22.2341 8.43277 22.1108 8.33466C21.9875 8.23656 21.9011 8.09958 21.8657 7.94605C21.7236 7.33364 21.4805 6.74918 21.1463 6.21668C21.0614 6.08269 21.0247 5.92374 21.0423 5.76608C21.0599 5.60842 21.1308 5.46149 21.2432 5.34955L22.3397 4.25519L21.3526 3.26817L20.2583 4.36463C20.1465 4.47653 19.9999 4.54709 19.8427 4.56469C19.6855 4.5823 19.527 4.54592 19.3932 4.46152C18.8607 4.12733 18.2763 3.88422 17.6639 3.74216C17.51 3.70712 17.3725 3.62088 17.274 3.49754C17.1755 3.37421 17.1217 3.22109 17.1216 3.06324V1.5158H15.7275V3.06324C15.7274 3.2208 15.674 3.3737 15.5759 3.497C15.4778 3.62029 15.3408 3.70671 15.1873 3.74216C14.5748 3.88422 13.9904 4.12733 13.4579 4.46152C13.3239 4.54645 13.165 4.58314 13.0073 4.56552C12.8496 4.54791 12.7027 4.47704 12.5908 4.36463L11.4964 3.26817L10.5094 4.25519L11.6058 5.34955C11.7177 5.46135 11.7883 5.60789 11.8059 5.76509C11.8235 5.92229 11.7871 6.0808 11.7027 6.21459C11.3685 6.74708 11.1254 7.33155 10.9834 7.94396C10.9483 8.09787 10.8621 8.23533 10.7388 8.33385C10.6154 8.43236 10.4623 8.4861 10.3045 8.48626H8.75701V9.88036H10.3045C10.462 9.88041 10.6149 9.93385 10.7382 10.032C10.8615 10.1301 10.9479 10.267 10.9834 10.4206C11.1254 11.033 11.3685 11.6174 11.7027 12.1499C11.7871 12.2837 11.8235 12.4422 11.8059 12.5994C11.7883 12.7566 11.7177 12.9032 11.6058 13.015L10.5094 14.1114L11.4964 15.0984L12.5908 14.002C12.7026 13.8901 12.8491 13.8195 13.0063 13.8019C13.1635 13.7843 13.322 13.8207 13.4558 13.9051C13.9878 14.2395 14.5722 14.4824 15.1845 14.6238C15.3386 14.6587 15.4763 14.745 15.575 14.8685C15.6737 14.992 15.7274 15.1453 15.7275 15.3034V16.8508Z" fill="#979797"/>
<path d="M16.4246 12.6685C15.7352 12.6685 15.0614 12.4641 14.4883 12.0811C13.9151 11.6981 13.4684 11.1538 13.2046 10.517C12.9408 9.88013 12.8718 9.17936 13.0063 8.50329C13.1408 7.82723 13.4727 7.20622 13.9601 6.7188C14.4476 6.23138 15.0686 5.89945 15.7446 5.76497C16.4207 5.63049 17.1215 5.69951 17.7583 5.9633C18.3951 6.22709 18.9395 6.6738 19.3224 7.24694C19.7054 7.82008 19.9098 8.49392 19.9098 9.18323C19.9087 10.1072 19.5411 10.9931 18.8878 11.6464C18.2344 12.2998 17.3486 12.6674 16.4246 12.6685ZM16.4246 7.09209C16.011 7.09209 15.6067 7.21473 15.2628 7.44451C14.9189 7.67429 14.6509 8.00088 14.4926 8.38298C14.3343 8.76509 14.2929 9.18555 14.3736 9.59119C14.4543 9.99683 14.6535 10.3694 14.9459 10.6619C15.2384 10.9543 15.611 11.1535 16.0166 11.2342C16.4222 11.3149 16.8427 11.2735 17.2248 11.1152C17.6069 10.9569 17.9335 10.6889 18.1633 10.345C18.3931 10.0011 18.5157 9.59682 18.5157 9.18323C18.5157 8.62862 18.2954 8.09674 17.9032 7.70457C17.5111 7.31241 16.9792 7.09209 16.4246 7.09209Z" fill="#979797"/>
<path d="M24.7891 19.639H8.05997C6.02682 19.6403 4.0773 20.4486 2.63965 21.8862C1.20199 23.3239 0.393749 25.2734 0.392456 27.3066V41.2475C0.392456 41.4324 0.465895 41.6096 0.596616 41.7404C0.727338 41.8711 0.904634 41.9445 1.0895 41.9445H31.7596C31.9444 41.9445 32.1217 41.8711 32.2524 41.7404C32.3832 41.6096 32.4566 41.4324 32.4566 41.2475V27.3066C32.4553 25.2734 31.6471 23.3239 30.2094 21.8862C28.7718 20.4486 26.8222 19.6403 24.7891 19.639ZM19.6867 21.0331H23.0953L19.5961 30.5827L18.5366 23.905L19.6867 21.0331ZM18.1811 21.0331L17.3446 23.1243H15.5044L14.668 21.0331H18.1811ZM13.1624 21.0331L14.3125 23.905L13.253 30.5827L9.75379 21.0331H13.1624ZM1.78655 40.5504V27.3066C1.78913 25.6435 2.45091 24.0494 3.62684 22.8734C4.80278 21.6975 6.39695 21.0357 8.05997 21.0331H8.26908L15.4278 40.5504H1.78655ZM14.2428 33.2733L15.6229 24.5184H17.2261L18.6063 33.2733L16.4245 39.226L14.2428 33.2733ZM31.0625 40.5504H17.4213L24.58 21.0331H24.7891C26.4521 21.0357 28.0463 21.6975 29.2222 22.8734C30.3982 24.0494 31.0599 25.6435 31.0625 27.3066V40.5504Z" fill="#979797"/>
</svg>
