<svg width="46" height="45" viewBox="0 0 46 45" fill="none" xmlns="http://www.w3.org/2000/svg">
<path d="M41.5296 6.98423H26.9814C26.4966 5.60199 25.362 4.54736 23.9482 4.16459C22.5343 3.78183 21.0227 4.12016 19.9068 5.06901L15.9131 1.07528C15.0433 0.247018 13.677 0.245537 12.8054 1.07206C11.9994 1.8626 11.9341 3.13915 12.6554 4.00776C12.9672 4.97047 13.0062 6.0007 12.7682 6.98423H4.35384C2.30165 6.98659 0.63867 8.64965 0.63623 10.7018V35.2378C0.63867 37.29 2.30165 38.953 4.35384 38.9554H16.2501V40.4425H11.0455C10.6348 40.4425 10.302 40.7753 10.302 41.186V44.16C10.302 44.5706 10.6348 44.9035 11.0455 44.9035H34.838C35.2487 44.9035 35.5815 44.5706 35.5815 44.16V41.186C35.5815 40.7753 35.2486 40.4425 34.838 40.4425H29.6334V38.9554H41.5296C43.5818 38.953 45.2448 37.29 45.2472 35.2378V10.7018C45.2448 8.64965 43.5818 6.98659 41.5296 6.98423ZM23.8209 5.68267C24.7877 6.04122 25.4997 6.87523 25.7022 7.8863H25.7023C25.7422 8.07869 25.7615 8.27473 25.7596 8.47121C25.7609 9.13323 25.5398 9.77652 25.1317 10.2978L20.9576 6.12669C21.7704 5.49212 22.8541 5.32413 23.8209 5.68267ZM13.8533 2.12704C13.9857 1.99277 14.1657 1.91601 14.3543 1.91357C14.5449 1.91505 14.7273 1.99164 14.8618 2.12669L19.3171 6.58195C19.3352 6.60504 19.3547 6.627 19.3755 6.64765L29.2711 16.5366C29.4072 16.6708 29.4834 16.8542 29.4827 17.0453C29.4828 17.2318 29.4078 17.4104 29.2747 17.5408L29.2674 17.5481C29.137 17.681 28.9585 17.756 28.7723 17.7561H28.7697C28.5794 17.756 28.3971 17.6799 28.2632 17.5445L13.8536 3.13479C13.7179 3.00027 13.6416 2.81694 13.642 2.62578C13.6425 2.43792 13.7187 2.25817 13.8533 2.12704ZM14.4094 5.79351L15.4301 6.81416L25.6022 16.9869C21.0435 17.1146 15.5857 21.3174 13.8818 22.7242L8.67178 17.5143C10.0786 15.8103 14.2814 10.3525 14.4094 5.79351ZM4.0921 23.2298C3.80239 22.939 3.80239 22.4688 4.0921 22.178L7.66263 18.6078L12.7881 23.7333L9.36221 27.1595L9.21792 27.3038C8.92716 27.5936 8.45692 27.5936 8.16616 27.3038L4.0921 23.2298ZM6.61123 27.8517L5.6256 28.8373C5.04427 29.4168 4.10378 29.4168 3.52253 28.8373L2.55903 27.8734C2.28013 27.5945 2.12338 27.2163 2.12338 26.8218C2.12338 26.4274 2.28013 26.0492 2.55903 25.7703L3.54431 24.7846L6.61123 27.8517ZM12.5718 26.0526L13.8395 24.7847L18.9653 29.9105L17.5342 31.3417L10.9442 27.6803L12.5718 26.0526ZM2.12329 10.7018C2.1246 9.47043 3.12251 8.47252 4.35384 8.47121H12.3633C11.1987 11.8532 8.50301 15.4754 7.11563 17.052L3.04069 21.1266C2.38451 21.7864 2.20737 22.7845 2.59659 23.6297L2.12329 24.1031V10.7018ZM2.12329 29.5408L2.47112 29.8887C3.63344 31.048 5.51469 31.048 6.67701 29.8887L7.76641 28.7993C8.4036 29.1015 9.1483 29.0734 9.76092 28.724L14.7941 31.5202H2.12329V29.5408ZM34.0945 41.9294V43.4165H11.789V41.9294H34.0945ZM17.7371 40.4425V38.9554H28.1464V40.4425H17.7371ZM43.7602 35.2378C43.7588 36.4691 42.7609 37.467 41.5296 37.4683H4.35384C3.12251 37.467 2.1246 36.4691 2.12329 35.2378V33.0073H43.7602V35.2378H43.7602ZM43.7602 31.5203H19.4583L20.5424 30.4362C20.6819 30.2968 20.7602 30.1077 20.7602 29.9105C20.7602 29.7134 20.6819 29.5243 20.5424 29.3849L14.9365 23.779C17.6761 21.526 23.7937 17.3904 27.3867 18.74C27.7754 19.0632 28.2643 19.241 28.7697 19.2432H28.777C29.6662 19.2404 30.4663 18.7025 30.8045 17.88C31.1427 17.0576 30.9524 16.1125 30.3225 15.4849L26.1846 11.35C26.8705 10.5477 27.2471 9.52671 27.2467 8.47121H41.5296C42.7609 8.47252 43.7588 9.47043 43.7602 10.7018V31.5203Z" fill="#979797"/>
</svg>
