<svg width="20" height="21" viewBox="0 0 20 21" fill="none" xmlns="http://www.w3.org/2000/svg">
<path d="M18.5 6.25H1.5M4 19.25H16C17.6569 19.25 19 17.9069 19 16.25V6.25C19 4.59315 17.6569 3.25 16 3.25H4C2.34315 3.25 1 4.59315 1 6.25V16.25C1 17.9069 2.34315 19.25 4 19.25Z" stroke="#828282" stroke-width="1.8" stroke-linecap="round"/>
<path d="M5.5 3.25V1" stroke="#828282" stroke-width="1.8" stroke-linecap="round" stroke-linejoin="round"/>
<path d="M14.5 3.25V1" stroke="#828282" stroke-width="1.8" stroke-linecap="round" stroke-linejoin="round"/>
<path d="M6.25 15.75H4.75M6.25 12.75H4.75M6.25 9.75H4.75M10.75 15.75H9.25M10.75 12.75H9.25M10.75 9.75H9.25M15.25 15.75H13.75M15.25 12.75H13.75M15.25 9.75H13.75" stroke="#828282" stroke-width="1.8" stroke-linecap="round"/>
</svg>
