<svg width="35" height="46" viewBox="0 0 35 46" fill="none" xmlns="http://www.w3.org/2000/svg">
<path d="M10.1495 16.308C14.4385 16.308 17.9153 12.8313 17.9153 8.54217C17.9153 4.25308 14.4386 0.776367 10.1495 0.776367C5.86038 0.776367 2.38367 4.25308 2.38367 8.54217C2.38367 12.8313 5.86047 16.308 10.1495 16.308ZM10.1495 3.88278C12.7231 3.88278 14.8089 5.96866 14.8089 8.54226C14.8089 11.1159 12.7231 13.2017 10.1495 13.2017C7.57587 13.2017 5.48999 11.1159 5.48999 8.54226C5.48999 5.96866 7.57596 3.88278 10.1495 3.88278Z" fill="#FDD647"/>
<path d="M10.1495 13.2027C12.7228 13.2027 14.809 11.1166 14.809 8.54327C14.809 5.96991 12.7228 3.88379 10.1495 3.88379C7.57611 3.88379 5.48999 5.96991 5.48999 8.54327C5.48999 11.1166 7.57611 13.2027 10.1495 13.2027Z" fill="#FF8838"/>
</svg>