<svg width="16" height="18" viewBox="0 0 16 18" fill="none" xmlns="http://www.w3.org/2000/svg">
<path d="M14.75 3.59375H10.9688V2.875C10.9688 1.84113 10.1276 1 9.09375 1H6.90625C5.87238 1 5.03125 1.84113 5.03125 2.875V3.59375H1.25C0.904813 3.59375 0.625 3.87356 0.625 4.21875C0.625 4.56394 0.904813 4.84375 1.25 4.84375H1.89725L2.65894 14.7183C2.65916 14.7212 2.65941 14.7241 2.65966 14.727C2.71641 15.3497 3.00197 15.9247 3.46372 16.3463C3.92547 16.7678 4.52409 17 5.14931 17H10.8507C12.1528 17 13.2231 16.0302 13.3403 14.7443C13.3717 14.4005 13.1184 14.0964 12.7747 14.0651C12.4306 14.0338 12.1268 14.287 12.0955 14.6307C12.0373 15.2688 11.5022 15.75 10.8507 15.75H5.14931C4.50003 15.75 3.96572 15.2634 3.90484 14.6174L3.15097 4.84375H12.849L12.1 14.7644C12.0735 15.1086 11.6558 15.4091 12 15.4357C12.0164 15.4369 12 15.4375 12.9391 15.4375C13.2624 15.4375 13.2747 15.1883 13.3 14.8606L14.1027 4.84375H14.75C15.0952 4.84375 15.375 4.56394 15.375 4.21875C15.375 3.87356 15.0952 3.59375 14.75 3.59375ZM9.71875 3.59375H6.28125V2.875C6.28125 2.53038 6.56163 2.25 6.90625 2.25H9.09375C9.43838 2.25 9.71875 2.53038 9.71875 2.875V3.59375Z" fill="#333333" stroke="#333333" stroke-width="0.2"/>
<path d="M5.16023 6.09439C4.81539 6.10945 4.54804 6.4012 4.56311 6.74608L4.87561 13.9002C4.89026 14.2358 5.16692 14.498 5.49954 14.498C5.50873 14.498 5.51801 14.4978 5.52729 14.4974C5.87213 14.4823 6.13948 14.1905 6.12442 13.8457L5.81192 6.69148C5.79685 6.34667 5.50454 6.07889 5.16023 6.09439Z" fill="#333333" stroke="#333333" stroke-width="0.2"/>
<path d="M10.188 6.69148L9.87555 13.8457C9.86048 14.1905 10.1278 14.4823 10.4727 14.4974C10.482 14.4978 10.4912 14.498 10.5004 14.498C10.833 14.498 11.1097 14.2358 11.1244 13.9002L11.4369 6.74607C11.4519 6.40123 11.1846 6.10945 10.8397 6.09438C10.4954 6.07898 10.2031 6.34663 10.188 6.69148Z" fill="#333333" stroke="#333333" stroke-width="0.2"/>
<path d="M7.375 6.71875V13.8729C7.375 14.2181 7.65481 14.4979 8 14.4979C8.34519 14.4979 8.625 14.2181 8.625 13.8729V6.71875C8.625 6.37356 8.34519 6.09375 8 6.09375C7.65481 6.09375 7.375 6.37356 7.375 6.71875Z" fill="#333333" stroke="#333333" stroke-width="0.2"/>
</svg>
