<svg width="35" height="46" viewBox="0 0 35 46" fill="none" xmlns="http://www.w3.org/2000/svg">
<path d="M3.93689 13.2021H31.8937C33.6092 13.2021 35 14.593 35 16.3085V17.085C35 18.8005 33.6092 20.1914 31.8937 20.1914H3.93689C2.22139 20.1914 0.830566 18.8005 0.830566 17.085V16.3085C0.830566 14.5931 2.22139 13.2021 3.93689 13.2021Z" fill="#0E0E10"/>
<path d="M10.1495 16.308C14.4385 16.308 17.9153 12.8313 17.9153 8.54217C17.9153 4.25308 14.4386 0.776367 10.1495 0.776367C5.86038 0.776367 2.38367 4.25308 2.38367 8.54217C2.38367 12.8313 5.86047 16.308 10.1495 16.308ZM10.1495 3.88278C12.7231 3.88278 14.8089 5.96866 14.8089 8.54226C14.8089 11.1159 12.7231 13.2017 10.1495 13.2017C7.57587 13.2017 5.48999 11.1159 5.48999 8.54226C5.48999 5.96866 7.57596 3.88278 10.1495 3.88278Z" fill="#FDD647"/>
<path d="M25.9249 13.2021C23.7831 11.7794 20.8934 12.3618 19.4707 14.5036C18.2957 16.2719 18.4666 18.6117 19.8854 20.1912H26.8172C28.535 18.2824 28.3804 15.343 26.4716 13.6253C26.2999 13.4708 26.1175 13.3295 25.9249 13.2021Z" fill="#FF8838"/>
<path d="M18.6918 17.0847C18.6871 14.5111 20.7699 12.4213 23.3435 12.4174C25.9171 12.4128 28.0068 14.4955 28.0108 17.0691C28.0131 18.2215 27.5876 19.3336 26.8172 20.1909H30.467C32.1856 16.2614 30.3933 11.6827 26.4638 9.96418C22.5343 8.24564 17.9556 10.0379 16.237 13.9674C15.3696 15.9516 15.3696 18.2076 16.237 20.1909H19.8869C19.1174 19.3391 18.6918 18.2325 18.6918 17.0847Z" fill="#FDD647"/>
<path d="M10.1495 13.2027C12.7228 13.2027 14.809 11.1166 14.809 8.54327C14.809 5.96991 12.7228 3.88379 10.1495 3.88379C7.57611 3.88379 5.48999 5.96991 5.48999 8.54327C5.48999 11.1166 7.57611 13.2027 10.1495 13.2027Z" fill="#FF8838"/>
<path d="M17.9153 32.0634C17.9153 33.7788 19.3061 35.1697 21.0216 35.1697H35V28.957H21.0216C19.3061 28.957 17.9153 30.3479 17.9153 32.0634Z" fill="#6FCF97"/>
<path d="M31.8936 20.1903H3.93689C2.22139 20.1903 0.830566 18.7995 0.830566 17.084V42.711C0.830566 44.4265 2.22139 45.8174 3.93689 45.8174H31.8937C33.6092 45.8174 35 44.4265 35 42.711V35.1687H21.0216C19.3061 35.1687 17.9152 33.7778 17.9152 32.0623C17.9152 30.3468 19.3061 28.956 21.0216 28.956H34.9999V17.084C34.9999 18.7995 33.6091 20.1903 31.8936 20.1903Z" fill="white"/>
<path d="M21.7982 0H20.245V1.55316H21.7982V0Z" fill="#FDD647"/>
<path d="M21.7982 3.10645H20.245V6.98934H21.7982V3.10645Z" fill="#FDD647"/>
<path d="M24.9045 0H23.3513V1.55316H24.9045V0Z" fill="#FDD647"/>
<path d="M24.9045 3.10645H23.3513V6.98934H24.9045V3.10645Z" fill="#FDD647"/>
</svg>
