<svg width="46" height="37" viewBox="0 0 46 37" fill="none" xmlns="http://www.w3.org/2000/svg">
<rect width="46" height="37" fill="#4867AA"/>
<path d="M27.6354 9.83719L25.321 9.83337C22.7209 9.83337 21.0405 11.6043 21.0405 14.3452V16.4255H18.7135C18.5124 16.4255 18.3496 16.593 18.3496 16.7995V19.8136C18.3496 20.0201 18.5126 20.1874 18.7135 20.1874H21.0405V27.7929C21.0405 27.9994 21.2034 28.1667 21.4044 28.1667H24.4405C24.6416 28.1667 24.8045 27.9992 24.8045 27.7929V20.1874H27.5253C27.7264 20.1874 27.8892 20.0201 27.8892 19.8136L27.8903 16.7995C27.8903 16.7003 27.8519 16.6054 27.7837 16.5352C27.7156 16.465 27.6227 16.4255 27.5262 16.4255H24.8045V14.662C24.8045 13.8144 25.0011 13.3842 26.0759 13.3842L27.635 13.3836C27.8359 13.3836 27.9987 13.2161 27.9987 13.0098V10.211C27.9987 10.0048 27.8361 9.83757 27.6354 9.83719Z" fill="white"/>
</svg>
