<svg width="46" height="37" viewBox="0 0 46 37" fill="none" xmlns="http://www.w3.org/2000/svg">
<path d="M0 0V18.6909V37H38.6288H45.9981V8.10432L46 0C46 0 36.0272 0.00779111 30.5247 0C11.0069 0.00779111 0 0 0 0Z" fill="url(#paint0_linear)"/>
<path fill-rule="evenodd" clip-rule="evenodd" d="M14.666 19C14.666 16.359 14.666 15.0385 15.1101 14.0016C15.6665 12.7023 16.7017 11.6671 18.0009 11.1107C19.0379 10.6666 20.3584 10.6666 22.9993 10.6666C25.6403 10.6666 26.9608 10.6666 27.9978 11.1107C29.297 11.6671 30.3322 12.7023 30.8886 14.0016C31.3327 15.0385 31.3327 16.359 31.3327 19C31.3327 21.6409 31.3327 22.9614 30.8886 23.9984C30.3322 25.2976 29.297 26.3328 27.9978 26.8892C26.9608 27.3333 25.6403 27.3333 22.9993 27.3333C20.3584 27.3333 19.0379 27.3333 18.0009 26.8892C16.7017 26.3328 15.6665 25.2976 15.1101 23.9984C14.666 22.9614 14.666 21.6409 14.666 19ZM22.9993 14.5882C20.5629 14.5882 18.5876 16.5635 18.5876 18.9999C18.5876 21.4363 20.5629 23.4117 22.9993 23.4117C25.4357 23.4117 27.4111 21.4363 27.4111 18.9999C27.4111 16.5635 25.4357 14.5882 22.9993 14.5882ZM22.9993 21.7573C21.4795 21.7573 20.242 20.5198 20.242 18.9999C20.242 17.479 21.4795 16.2426 22.9993 16.2426C24.5192 16.2426 25.7567 17.479 25.7567 18.9999C25.7567 20.5198 24.5192 21.7573 22.9993 21.7573ZM28.3299 14.2573C28.3299 14.582 28.0667 14.8452 27.7421 14.8452C27.4174 14.8452 27.1542 14.582 27.1542 14.2573C27.1542 13.9326 27.4174 13.6694 27.7421 13.6694C28.0667 13.6694 28.3299 13.9326 28.3299 14.2573Z" fill="white"/>
<defs>
<linearGradient id="paint0_linear" x1="2.96523" y1="35.0088" x2="38.0145" y2="-2.34139" gradientUnits="userSpaceOnUse">
<stop stop-color="#FFDD55"/>
<stop offset="0.5" stop-color="#FF543E"/>
<stop offset="1" stop-color="#C837AB"/>
</linearGradient>
</defs>
</svg>
