<svg width="12" height="14" viewBox="0 0 12 14" fill="none" xmlns="http://www.w3.org/2000/svg">
<path d="M6.875 4.375C7.45833 4.375 8.0166 4.48438 8.5498 4.70312C9.08301 4.92188 9.55697 5.23861 9.97168 5.65332C10.3864 6.06803 10.7031 6.54199 10.9219 7.0752C11.1406 7.6084 11.25 8.16667 11.25 8.75C11.25 9.35612 11.1361 9.9235 10.9082 10.4521C10.6803 10.9808 10.3682 11.4456 9.97168 11.8467C9.5752 12.2477 9.11263 12.5599 8.58398 12.7832C8.05534 13.0065 7.48568 13.1204 6.875 13.125V12.25C7.35807 12.25 7.81152 12.1589 8.23535 11.9766C8.65918 11.7943 9.02832 11.5436 9.34277 11.2246C9.65723 10.9056 9.90788 10.5342 10.0947 10.1104C10.2816 9.68652 10.375 9.23307 10.375 8.75C10.375 8.26693 10.2839 7.81348 10.1016 7.38965C9.91927 6.96582 9.66862 6.59668 9.34961 6.28223C9.0306 5.96777 8.65918 5.71712 8.23535 5.53027C7.81152 5.34342 7.35807 5.25 6.875 5.25H2.24707L4.99512 8.00488L4.37988 8.62012L0.572266 4.8125L4.37988 1.00488L4.99512 1.62012L2.24707 4.375H6.875Z" fill="#828282" stroke="#828282" stroke-width="0.5"/>
</svg>
