<svg width="46" height="37" viewBox="0 0 46 37" fill="none" xmlns="http://www.w3.org/2000/svg">
<rect width="46" height="37" fill="#50ABF1"/>
<path d="M31.75 13.8105C31.1059 14.0838 30.4148 14.2691 29.6887 14.3518C30.4301 13.9267 30.9976 13.2524 31.2666 12.4514C30.5711 12.8451 29.8035 13.1309 28.9855 13.2859C28.3305 12.6168 27.3988 12.2001 26.3653 12.2001C24.3827 12.2001 22.7752 13.7393 22.7752 15.6366C22.7752 15.9057 22.8069 16.1685 22.8682 16.4198C19.885 16.2764 17.2397 14.9078 15.4693 12.8283C15.1598 13.3351 14.9837 13.9256 14.9837 14.556C14.9837 15.7487 15.618 16.801 16.5803 17.4166C15.992 17.3978 15.4387 17.2428 14.9542 16.9852V17.0282C14.9542 18.693 16.1921 20.0825 17.8335 20.3988C17.5328 20.4762 17.2157 20.5192 16.8876 20.5192C16.6558 20.5192 16.4316 20.4972 16.2118 20.4553C16.6689 21.8218 17.9943 22.8154 19.5646 22.8427C18.3366 23.7641 16.7881 24.3117 15.1062 24.3117C14.8165 24.3117 14.531 24.295 14.25 24.2646C15.8389 25.2416 17.7253 25.8112 19.7527 25.8112C26.3566 25.8112 29.9665 20.5736 29.9665 16.0314L29.9544 15.5864C30.6597 15.1047 31.2699 14.4995 31.75 13.8105Z" fill="white"/>
</svg>
