<svg width="59" height="59" viewBox="0 0 59 59" fill="none" xmlns="http://www.w3.org/2000/svg">
<path fill-rule="evenodd" clip-rule="evenodd" d="M13.4091 21.5525V4.84931C8.66948 4.84931 4.82727 8.70907 4.82727 13.4703C4.82727 18.2316 8.66948 22.0913 13.4091 22.0913L13.4179 22.0913C13.412 21.9124 13.4091 21.7328 13.4091 21.5525ZM0 13.4703C0 6.03087 6.00345 0 13.4091 0H45.5909C52.9965 0 59 6.03087 59 13.4703C59 20.9098 52.9965 26.9406 45.5909 26.9406C45.2868 26.9406 44.985 26.9305 44.6859 26.9104C42.7427 32.4686 37.8612 36.6375 31.9136 37.5363V50.1096H36.2045C37.5376 50.1096 38.6182 51.1951 38.6182 52.5342C38.6182 53.1552 38.3858 53.7217 38.0036 54.1507H40.2273C41.5603 54.1507 42.6409 55.2362 42.6409 56.5753C42.6409 57.9144 41.5603 59 40.2273 59H29.5H18.7727C17.4397 59 16.3591 57.9144 16.3591 56.5753C16.3591 55.2362 17.4397 54.1507 18.7727 54.1507H20.9964C20.6142 53.7217 20.3818 53.1552 20.3818 52.5342C20.3818 51.1951 21.4624 50.1096 22.7955 50.1096H27.0864V37.5363C21.1388 36.6375 16.2573 32.4686 14.3141 26.9104C14.015 26.9305 13.7132 26.9406 13.4091 26.9406C6.00345 26.9406 0 20.9098 0 13.4703ZM45.5909 21.5525C45.5909 21.7328 45.588 21.9124 45.5821 22.0913L45.5909 22.0913C50.3305 22.0913 54.1727 18.2316 54.1727 13.4703C54.1727 8.70907 50.3305 4.84931 45.5909 4.84931V21.5525ZM30.4669 10.1041C30.0774 9.28946 28.9226 9.28946 28.5331 10.1041L27.0361 13.2344C26.8797 13.5613 26.5701 13.7874 26.2122 13.8357L22.786 14.2986C21.8944 14.4191 21.5376 15.5223 22.1884 16.1462L24.6894 18.5437C24.9506 18.7942 25.0689 19.1599 25.0041 19.5168L24.3836 22.9331C24.2221 23.8222 25.1563 24.504 25.9481 24.075L28.9908 22.4265C29.3086 22.2543 29.6914 22.2543 30.0092 22.4265L33.0519 24.075C33.8437 24.504 34.7779 23.8222 34.6164 22.9331L33.9959 19.5168C33.9311 19.1599 34.0494 18.7942 34.3106 18.5437L36.8116 16.1462C37.4624 15.5223 37.1056 14.4191 36.214 14.2986L32.7878 13.8357C32.4299 13.7874 32.1203 13.5613 31.9639 13.2344L30.4669 10.1041Z" fill="#E0E0E0"/>
</svg>
