<svg width="6" height="7" viewBox="0 0 6 7" fill="none" xmlns="http://www.w3.org/2000/svg">
<path fill-rule="evenodd" clip-rule="evenodd" d="M3 0C2.1124 0 1.39286 0.770657 1.39286 1.72131V2.6403C0.998777 2.6442 0.769055 2.66398 0.58501 2.76442C0.383408 2.87444 0.2195 3.04999 0.116779 3.26591C0 3.51139 0 3.83273 0 4.47541V5.16394C0 5.80662 0 6.12796 0.116779 6.37343C0.2195 6.58936 0.383408 6.76491 0.58501 6.87493C0.814201 7 1.11423 7 1.71429 7H4.28571C4.88577 7 5.1858 7 5.41499 6.87493C5.61659 6.76491 5.7805 6.58936 5.88322 6.37343C6 6.12796 6 5.80662 6 5.16394V4.47541C6 3.83273 6 3.51139 5.88322 3.26591C5.7805 3.04999 5.61659 2.87444 5.41499 2.76442C5.23095 2.66398 5.00122 2.6442 4.60714 2.6403V1.72131C4.60714 0.770657 3.8876 0 3 0ZM3.96429 2.63935V1.72131C3.96429 1.15092 3.53256 0.688524 3 0.688524C2.46744 0.688524 2.03571 1.15092 2.03571 1.72131V2.63935H3.96429ZM3.32143 5.07182C3.51358 4.95277 3.64286 4.73026 3.64286 4.47541C3.64286 4.09515 3.35504 3.78689 3 3.78689C2.64496 3.78689 2.35714 4.09515 2.35714 4.47541C2.35714 4.73026 2.48642 4.95277 2.67857 5.07182V5.62296C2.67857 5.81309 2.82248 5.96722 3 5.96722C3.17752 5.96722 3.32143 5.81309 3.32143 5.62296V5.07182Z" fill="white"/>
</svg>
