<svg width="51" height="12" viewBox="0 0 51 12" fill="none" xmlns="http://www.w3.org/2000/svg">
<path d="M1.9209 9.61914H6.43945V11H0.191406V1.04688H1.9209V9.61914ZM15.2715 6.2832C15.2715 7.25846 15.1029 8.11523 14.7656 8.85352C14.4284 9.58724 13.9453 10.1523 13.3164 10.5488C12.6921 10.9408 11.972 11.1367 11.1562 11.1367C10.3496 11.1367 9.62956 10.9408 8.99609 10.5488C8.36719 10.1523 7.87956 9.58952 7.5332 8.86035C7.19141 8.13118 7.01823 7.29036 7.01367 6.33789V5.77734C7.01367 4.80664 7.18457 3.94987 7.52637 3.20703C7.87272 2.46419 8.35807 1.89681 8.98242 1.50488C9.61133 1.1084 10.3314 0.910156 11.1426 0.910156C11.9538 0.910156 12.6715 1.10612 13.2959 1.49805C13.9248 1.88542 14.4102 2.44596 14.752 3.17969C15.0938 3.90885 15.2669 4.75879 15.2715 5.72949V6.2832ZM13.542 5.76367C13.542 4.66081 13.3324 3.81543 12.9131 3.22754C12.4984 2.63965 11.9082 2.3457 11.1426 2.3457C10.3952 2.3457 9.80957 2.63965 9.38574 3.22754C8.96647 3.81087 8.75228 4.63802 8.74316 5.70898V6.2832C8.74316 7.37695 8.95508 8.22233 9.37891 8.81934C9.80729 9.41634 10.3997 9.71484 11.1562 9.71484C11.9219 9.71484 12.5098 9.42318 12.9199 8.83984C13.3346 8.25651 13.542 7.4043 13.542 6.2832V5.76367ZM24.5889 7.75977C24.4886 8.82161 24.0967 9.65104 23.4131 10.248C22.7295 10.8405 21.8203 11.1367 20.6855 11.1367C19.8926 11.1367 19.193 10.9499 18.5869 10.5762C17.9854 10.1979 17.5205 9.66243 17.1924 8.96973C16.8643 8.27702 16.6934 7.47266 16.6797 6.55664V5.62695C16.6797 4.68815 16.846 3.861 17.1787 3.14551C17.5114 2.43001 17.9876 1.87858 18.6074 1.49121C19.2318 1.10384 19.9518 0.910156 20.7676 0.910156C21.8659 0.910156 22.75 1.20866 23.4199 1.80566C24.0898 2.40267 24.4795 3.24577 24.5889 4.33496H22.8662C22.7842 3.61947 22.5745 3.10449 22.2373 2.79004C21.9046 2.47103 21.4147 2.31152 20.7676 2.31152C20.0156 2.31152 19.4368 2.58724 19.0312 3.13867C18.6302 3.68555 18.4251 4.48991 18.416 5.55176V6.43359C18.416 7.50911 18.6074 8.32943 18.9902 8.89453C19.3776 9.45964 19.9427 9.74219 20.6855 9.74219C21.3646 9.74219 21.875 9.58952 22.2168 9.28418C22.5586 8.97884 22.7751 8.4707 22.8662 7.75977H24.5889ZM28.998 6.7002L27.8701 7.89648V11H26.1406V1.04688H27.8701V5.71582L28.8271 4.5332L31.7393 1.04688H33.8311L30.1328 5.45605L34.043 11H31.9922L28.998 6.7002ZM40.79 6.55664H36.7021V9.61914H41.4805V11H34.9727V1.04688H41.4326V2.44141H36.7021V5.18945H40.79V6.55664ZM42.8887 11V1.04688H45.8281C46.7077 1.04688 47.487 1.24284 48.166 1.63477C48.8496 2.02669 49.3783 2.58268 49.752 3.30273C50.1257 4.02279 50.3125 4.84766 50.3125 5.77734V6.27637C50.3125 7.21973 50.1234 8.04915 49.7451 8.76465C49.3714 9.48014 48.8359 10.0316 48.1387 10.4189C47.446 10.8063 46.6507 11 45.7529 11H42.8887ZM44.6182 2.44141V9.61914H45.7461C46.653 9.61914 47.348 9.33659 47.8311 8.77148C48.3187 8.20182 48.5671 7.38607 48.5762 6.32422V5.77051C48.5762 4.69043 48.3415 3.86556 47.8721 3.2959C47.4027 2.72624 46.7214 2.44141 45.8281 2.44141H44.6182Z" fill="white"/>
</svg>
