<svg width="19" height="17" viewBox="0 0 19 17" fill="none" xmlns="http://www.w3.org/2000/svg">
<path fill-rule="evenodd" clip-rule="evenodd" d="M17.2866 7.48267C17.1646 8.21742 16.9134 8.91859 16.5524 9.57038C16.5978 9.78835 16.6212 10.0098 16.6212 10.2328C16.6212 10.8826 16.4328 11.5034 16.0856 12.0658C15.9354 12.3092 15.8909 12.5938 15.8725 12.7932C15.8519 13.0168 15.8548 13.2619 15.8683 13.5C15.8887 13.8571 15.936 14.2416 15.9884 14.5898C15.6006 14.4743 15.162 14.3539 14.7529 14.2649C14.4884 14.2074 14.2204 14.1596 13.978 14.137C13.7625 14.1168 13.4666 14.105 13.2024 14.1904C12.5496 14.4014 11.8319 14.519 11.0759 14.519C10.101 14.519 9.2091 14.3304 8.43899 14.006C8.33914 14.0086 8.23889 14.0099 8.13826 14.0099C7.18464 14.0099 6.26478 13.8916 5.39941 13.672C6.7105 15.1223 8.81852 16.019 11.0759 16.019C11.9803 16.019 12.8476 15.8795 13.646 15.6234V15.6234C13.646 15.6238 13.6487 15.6237 13.6542 15.6234C13.674 15.6226 13.7308 15.6204 13.8384 15.6304C13.9968 15.6452 14.1996 15.6797 14.4343 15.7307C14.9019 15.8323 15.4339 15.9859 15.8726 16.1227C16.7894 16.4085 17.6786 15.6093 17.5215 14.6786C17.4536 14.2763 17.3886 13.8118 17.3659 13.4145C17.3545 13.215 17.3551 13.0516 17.3662 12.9309C17.3718 12.8701 17.3788 12.8356 17.3822 12.8208C17.8515 12.0482 18.1212 11.1688 18.1212 10.2328C18.1212 9.21897 17.8159 8.28792 17.2866 7.48267Z" fill="white"/>
<path d="M15.2728 6.45585C15.2728 9.46903 12.0785 11.9117 8.13823 11.9117C7.09095 11.9117 6.09637 11.7391 5.20047 11.4292C4.65331 11.2399 2.8408 11.8663 1.6563 12.3207C1.24741 12.4775 0.822758 12.0752 0.957512 11.6585C1.31465 10.5541 1.7689 8.95481 1.55046 8.55425C1.19819 7.90829 1.00366 7.19944 1.00366 6.45585C1.00366 3.44267 4.19792 1 8.13823 1C12.0785 1 15.2728 3.44267 15.2728 6.45585Z" stroke="white" stroke-width="1.5"/>
<circle cx="5.20074" cy="6.28796" r="0.755425" fill="white"/>
<circle cx="7.71832" cy="6.28796" r="0.755425" fill="white"/>
<ellipse cx="10.2368" cy="6.28795" rx="0.755371" ry="0.755417" fill="white"/>
</svg>
