<svg width="14" height="14" viewBox="0 0 14 14" fill="none" xmlns="http://www.w3.org/2000/svg">
<rect width="14" height="14" fill="#E8E8E8"/>
<g clip-path="url(#clip0)">
<path fill-rule="evenodd" clip-rule="evenodd" d="M46.5758 -43.686C45.9197 -44.1047 45.0802 -44.1047 44.4241 -43.686L37.2727 -39.1225H53.7272L46.5758 -43.686ZM-224 -39C-229.523 -39 -234 -34.5229 -234 -29V701C-234 706.523 -229.523 711 -224 711H70C75.5229 711 80 706.523 80 701V-29C80 -34.5228 75.5229 -39 70 -39H-224Z" fill="#F2F2F2"/>
<g clip-path="url(#clip1)">
<rect x="-7" y="-8.12891" width="76" height="30" rx="8" fill="#27AE60"/>
<path d="M14.6667 7.52935C14.6735 10.9971 12.0485 13.9045 8.59806 14.2507C5.14758 14.5969 1.9973 12.269 1.31509 8.86897C0.632881 5.46894 2.64131 2.10597 5.95826 1.0943C9.27522 0.0826373 12.8186 1.75232 14.15 4.95435C14.4928 5.76947 14.6685 6.64509 14.6667 7.52935Z" fill="#FFA600"/>
<path d="M13.95 7.52958C13.9431 10.9791 11.3212 13.8611 7.88773 14.1934C4.45422 14.5256 1.32845 12.1997 0.660362 8.81543C-0.00772321 5.43119 1.99968 2.09194 5.30186 1.09445C8.60404 0.0969643 12.1244 1.76643 13.4417 4.95458C13.7786 5.7712 13.9513 6.64619 13.95 7.52958Z" fill="#FFBF00"/>
<path d="M13.7667 6.98746C13.8521 9.37875 12.625 11.6259 10.5672 12.8468C8.50931 14.0678 5.94902 14.0678 3.89116 12.8468C1.83331 11.6259 0.606279 9.37875 0.691668 6.98746C0.69231 6.29135 0.801972 5.59963 1.01667 4.93746C2.06389 2.43198 4.51364 0.800781 7.22917 0.800781C9.9447 0.800781 12.3944 2.43198 13.4417 4.93746C13.6579 5.59928 13.7676 6.29123 13.7667 6.98746Z" fill="#FFCE00"/>
<ellipse cx="7.225" cy="7.52891" rx="5.65" ry="5.65" fill="#FFA600"/>
<ellipse cx="7.35834" cy="6.96244" rx="4.99167" ry="4.63333" fill="#FFBA00"/>
<ellipse cx="7.35833" cy="6.34622" rx="4.31667" ry="4.00833" fill="#FFCE00"/>
<path d="M1.24167 6.96261C1.24167 6.96261 2.28334 1.52095 7.25 1.52095V0.97928C7.25 0.97928 2.08334 0.620947 1.24167 6.96261Z" fill="#F9E238"/>
<path d="M13.2667 6.96261C13.2667 6.96261 12.225 1.52095 7.25 1.52095V0.97928C7.25 0.97928 12.425 0.620947 13.2667 6.96261Z" fill="#F9E238"/>
<g style="mix-blend-mode:lighten" opacity="0.2">
<path d="M9.83333 1.32873L1.39167 10.8787C0.935554 10.0707 0.651812 9.1769 0.558334 8.25373L7.13333 0.803728H7.225C8.12089 0.801692 9.008 0.980247 9.83333 1.32873Z" fill="#404040"/>
<path d="M13.85 6.36999L6.88334 14.245C5.69566 14.18 4.54602 13.8035 3.55 13.1533L12.3667 3.15332C12.8201 3.68344 13.1858 4.28268 13.45 4.92832C13.6386 5.39181 13.7728 5.87559 13.85 6.36999Z" fill="#404040"/>
</g>
<path fill-rule="evenodd" clip-rule="evenodd" d="M7.475 10.9207V11.6374C7.475 11.7064 7.41903 11.7624 7.35 11.7624H6.75C6.68424 11.758 6.63318 11.7033 6.63333 11.6374V10.954C6.63348 10.8881 6.58243 10.8334 6.51666 10.829C5.84062 10.785 5.18685 10.5699 4.61666 10.204C4.58026 10.1607 4.58026 10.0974 4.61666 10.054L4.98333 9.2207C4.99704 9.18808 5.02481 9.16344 5.05884 9.15372C5.09286 9.144 5.12946 9.15025 5.15833 9.1707C5.57495 9.43518 6.04414 9.60579 6.53333 9.6707C6.56785 9.67541 6.60277 9.66549 6.62967 9.64334C6.65656 9.62119 6.67299 9.58882 6.675 9.55404V8.42904C6.67629 8.37322 6.63787 8.32432 6.58333 8.31237C5.675 8.08737 4.7 7.75404 4.7 6.58737C4.7 5.75404 5.30833 4.9707 6.56666 4.7957C6.62607 4.78781 6.67152 4.73887 6.675 4.67904V3.9707C6.67485 3.9048 6.7259 3.8501 6.79166 3.8457H7.39166C7.4607 3.8457 7.51666 3.90167 7.51666 3.9707V4.65404C7.5161 4.71705 7.56254 4.77064 7.625 4.77904C8.13761 4.82 8.63657 4.96459 9.09166 5.20404C9.14317 5.23873 9.1639 5.30439 9.14166 5.36237L8.80833 6.1957C8.79589 6.22724 8.77035 6.25181 8.73835 6.26301C8.70635 6.27421 8.67106 6.27093 8.64166 6.25404C8.31931 6.08704 7.97384 5.96908 7.61666 5.90404C7.58073 5.8992 7.54448 5.9102 7.51729 5.93419C7.49011 5.95818 7.47467 5.99278 7.475 6.02904V7.21237C7.4737 7.26818 7.51213 7.31709 7.56666 7.32904C8.475 7.5457 9.43333 7.87904 9.43333 8.9957C9.43333 9.82904 8.825 10.5874 7.575 10.779C7.54216 10.7829 7.51253 10.8006 7.49346 10.8276C7.47439 10.8546 7.46768 10.8885 7.475 10.9207ZM6.64166 6.92071V6.03738C6.63874 5.9985 6.61783 5.96322 6.58514 5.94197C6.55245 5.92072 6.51172 5.91594 6.475 5.92905C6.21186 5.99288 6.02408 6.22504 6.01666 6.49571C6.01666 6.74571 6.19166 6.89571 6.475 7.01238C6.50818 7.02251 6.54409 7.01839 6.57411 7.001C6.60414 6.98362 6.62559 6.95453 6.63333 6.92071H6.64166ZM7.65 8.61236C7.91666 8.72903 8.09166 8.87903 8.09166 9.1207H8.08333C8.07918 9.3789 7.90099 9.60164 7.65 9.66236C7.61338 9.67975 7.57036 9.67688 7.53638 9.65479C7.50239 9.6327 7.48231 9.59455 7.48333 9.55403V8.7207C7.48626 8.68182 7.50716 8.64653 7.53985 8.62528C7.57255 8.60404 7.61328 8.59926 7.65 8.61236Z" fill="#FFA600"/>
<path fill-rule="evenodd" clip-rule="evenodd" d="M7.725 10.6288V11.3454C7.72732 11.3778 7.71606 11.4097 7.69392 11.4334C7.67179 11.4571 7.64077 11.4705 7.60833 11.4704H7.00833C6.9393 11.4704 6.88333 11.4145 6.88333 11.3454V10.6621C6.87986 10.6023 6.83441 10.5533 6.775 10.5454C6.09766 10.5074 5.44105 10.2981 4.86667 9.93711C4.83333 9.89267 4.83333 9.83156 4.86667 9.78712L5.225 8.95378C5.25867 8.92909 5.30244 8.92284 5.34167 8.93711C5.76052 9.19701 6.22871 9.36726 6.71667 9.43711C6.75124 9.43942 6.78522 9.42728 6.81049 9.40358C6.83577 9.37989 6.85008 9.34676 6.85 9.31211V8.13712C6.84832 8.08234 6.81116 8.03504 6.75833 8.02045C5.85 7.79545 4.875 7.47045 4.875 6.30378C4.875 5.47045 5.49167 4.68711 6.75 4.50378C6.78762 4.51421 6.82794 4.50359 6.85554 4.47599C6.88314 4.44838 6.89376 4.40807 6.88333 4.37045V3.67878C6.8785 3.64285 6.8895 3.60659 6.91349 3.57941C6.93747 3.55222 6.97208 3.53679 7.00833 3.53711H7.60833C7.67277 3.53711 7.725 3.58935 7.725 3.65378V4.37045C7.72847 4.43028 7.77392 4.47922 7.83333 4.48711C8.36169 4.53188 8.87515 4.68506 9.34167 4.93711C9.36888 4.94963 9.3897 4.97286 9.39917 5.00128C9.40865 5.0297 9.40593 5.06077 9.39167 5.08711L9.06667 5.92045C9.05239 5.9525 9.0253 5.97707 8.99202 5.98816C8.95873 5.99926 8.92232 5.99585 8.89167 5.97878C8.56648 5.79459 8.21082 5.67039 7.84167 5.61211C7.80669 5.60443 7.77012 5.61324 7.74247 5.63601C7.71482 5.65877 7.69917 5.69298 7.7 5.72878V6.92045C7.69917 6.95625 7.71482 6.99046 7.74247 7.01322C7.77012 7.03599 7.80669 7.0448 7.84167 7.03711C8.75 7.26211 9.71667 7.58711 9.71667 8.70378C9.71667 9.53711 9.10833 10.2954 7.85833 10.4788C7.81894 10.4753 7.78022 10.4907 7.75395 10.5203C7.72767 10.5498 7.71694 10.5901 7.725 10.6288ZM6.89167 6.63712V5.80378C6.89128 5.76341 6.87143 5.72571 6.83836 5.70256C6.80528 5.67941 6.76306 5.67366 6.725 5.68712C6.45891 5.75174 6.27034 5.98832 6.26667 6.26212C6.26667 6.51212 6.45 6.66212 6.725 6.77045C6.76523 6.78704 6.81135 6.77987 6.84463 6.75184C6.87792 6.72381 6.89284 6.67958 6.88333 6.63712H6.89167ZM7.90833 8.32044C8.175 8.4371 8.34167 8.59544 8.34167 8.8371H8.33333C8.33608 9.09949 8.15574 9.32837 7.9 9.3871C7.8621 9.39707 7.82174 9.38985 7.78964 9.36738C7.75754 9.34491 7.73694 9.30946 7.73333 9.27044V8.4371C7.73262 8.39457 7.75358 8.35458 7.78898 8.33099C7.82438 8.30739 7.86935 8.30341 7.90833 8.32044Z" fill="#404040"/>
<path d="M6.4 1.4041C5.73726 1.4041 5.2 1.94136 5.2 2.6041C5.19542 1.94001 4.65577 1.40409 3.99167 1.4041C4.31137 1.40632 4.61874 1.28087 4.84559 1.05559C5.07244 0.830305 5.20001 0.52381 5.2 0.204102C5.19776 0.523042 5.32347 0.829569 5.549 1.0551C5.77453 1.28063 6.08106 1.40634 6.4 1.4041Z" fill="#404040"/>
<path d="M4.81667 2.22031C4.60682 2.22473 4.43776 2.39379 4.43334 2.60365C4.43334 2.39194 4.26171 2.22031 4.05 2.22031C4.25093 2.22522 4.42 2.07085 4.43334 1.87031C4.45067 2.06891 4.61732 2.22107 4.81667 2.22031Z" fill="#404040"/>
<path d="M5.825 2.79557C5.61329 2.79557 5.44167 2.9672 5.44167 3.17891C5.43725 2.96906 5.26819 2.79999 5.05833 2.79557C5.26819 2.79115 5.43725 2.62209 5.44167 2.41224C5.44167 2.62395 5.61329 2.79557 5.825 2.79557Z" fill="#404040"/>
<path d="M6.025 12.3127C5.70092 12.3104 5.38968 12.4392 5.16209 12.67C4.9345 12.9007 4.80991 13.2137 4.81667 13.5377C4.81891 13.2188 4.6932 12.9122 4.46767 12.6867C4.24214 12.4612 3.93561 12.3355 3.61667 12.3377C4.27941 12.3377 4.81667 11.8004 4.81667 11.1377C4.83472 11.792 5.37046 12.3129 6.025 12.3127Z" fill="#404040"/>
<path d="M4.44167 13.1296C4.22996 13.1296 4.05834 13.3012 4.05834 13.5129C4.05392 13.303 3.88486 13.134 3.675 13.1296C3.88486 13.1251 4.05392 12.9561 4.05834 12.7462C4.05834 12.9579 4.22996 13.1296 4.44167 13.1296Z" fill="#404040"/>
<path d="M5.44166 13.7038C5.22995 13.7038 5.05833 13.8754 5.05833 14.0871C5.06063 13.9848 5.02098 13.8859 4.94859 13.8135C4.8762 13.7411 4.77735 13.7015 4.675 13.7038C4.8867 13.7038 5.05833 13.5322 5.05833 13.3204C5.06275 13.5303 5.23181 13.6994 5.44166 13.7038Z" fill="#404040"/>
<path d="M14.775 4.3709C14.1141 4.37544 13.5795 4.91005 13.575 5.5709C13.5705 4.91005 13.0359 4.37544 12.375 4.3709C13.0377 4.3709 13.575 3.83364 13.575 3.1709C13.575 3.83364 14.1123 4.3709 14.775 4.3709Z" fill="#404040"/>
</g>
</g>
<defs>
<clipPath id="clip0">
<rect width="315" height="755" fill="white" transform="translate(-234 -44)"/>
</clipPath>
<clipPath id="clip1">
<rect width="76" height="30" fill="white" transform="translate(-7 -8.12891)"/>
</clipPath>
</defs>
</svg>
