<svg width="19" height="16" viewBox="0 0 19 16" fill="none" xmlns="http://www.w3.org/2000/svg">
<path d="M9.24264 9.06142H8.7817C8.54263 9.06142 8.34865 8.86804 8.34865 8.62898C8.34865 8.54059 8.38424 8.45517 8.44771 8.39348C8.71585 8.13306 8.94128 7.78248 9.10441 7.40461C9.13764 7.42893 9.17323 7.44673 9.21357 7.44673C9.47221 7.44673 9.77713 6.87488 9.77713 6.48515C9.77713 6.09542 9.74094 5.77924 9.48171 5.77924C9.45086 5.77924 9.41882 5.78458 9.3856 5.79288C9.36721 4.7358 9.10026 3.41711 7.4861 3.41711C5.80193 3.41711 5.60557 4.73343 5.58659 5.78932C5.56286 5.78458 5.53913 5.77924 5.51718 5.77924C5.25795 5.77924 5.22235 6.09542 5.22235 6.48515C5.22235 6.87488 5.52608 7.44673 5.78532 7.44673C5.81736 7.44673 5.84702 7.43783 5.8749 7.42181C6.03744 7.79375 6.2599 8.13721 6.52389 8.39526C6.58736 8.45695 6.62296 8.54118 6.62296 8.63016C6.62296 8.86922 6.42897 9.0632 6.1899 9.0632H5.72837C4.74243 9.0632 3.94336 9.86224 3.94336 10.8481V11.3429C3.94336 11.6537 4.19548 11.9064 4.50692 11.9064H10.4641C10.7749 11.9064 11.0271 11.6537 11.0271 11.3429V10.8481C11.0276 9.86106 10.2286 9.06142 9.24264 9.06142Z" fill="white"/>
<path d="M14.5864 4.16412H9.59082C9.73497 4.48327 9.8382 4.87596 9.88091 5.3618C9.98769 5.42764 10.0678 5.53382 10.133 5.66196H14.5864C14.8177 5.66196 15.004 5.4751 15.004 5.24434V4.58174C15.004 4.35158 14.8177 4.16412 14.5864 4.16412Z" fill="white"/>
<path d="M14.5865 6.89355H10.2352C10.1172 7.33964 9.82651 7.80649 9.42371 7.93106C9.41184 7.95301 9.3982 7.97199 9.38574 7.99394V8.39139H14.5859C14.8167 8.39139 15.0036 8.20453 15.0036 7.97318V7.31117C15.0042 7.08041 14.8179 6.89355 14.5865 6.89355Z" fill="white"/>
<path d="M14.5872 9.62299H11.1904C11.4147 9.97772 11.5464 10.3959 11.5464 10.8462V11.1208H14.5872C14.8186 11.1208 15.0049 10.934 15.0049 10.7032V10.0406C15.0049 9.80984 14.8186 9.62299 14.5872 9.62299Z" fill="white"/>
<path d="M16.3819 0H2.5657C1.14848 0 0 1.14844 0 2.56559V12.7544C0 14.1722 1.14848 15.32 2.5657 15.32H16.3819C17.7991 15.32 18.947 14.1716 18.947 12.7544V2.56559C18.947 1.14844 17.7991 0 16.3819 0ZM17.7362 12.7544C17.7362 13.5012 17.1288 14.1087 16.3819 14.1087H2.5657C1.81883 14.1087 1.21136 13.5012 1.21136 12.7544V2.56559C1.21136 1.81875 1.81883 1.21132 2.5657 1.21132H16.3819C17.1288 1.21132 17.7362 1.81875 17.7362 2.56559V12.7544Z" fill="white"/>
</svg>
