<svg width="18" height="14" viewBox="0 0 18 14" fill="none" xmlns="http://www.w3.org/2000/svg">
<path d="M8.49987 4.0003H6.99984V1.50027C6.99984 1.29326 6.87284 1.10826 6.68084 1.03326C6.48884 0.959257 6.26983 1.01126 6.12983 1.16426L1.12975 6.66435C0.956749 6.85435 0.956749 7.14535 1.12975 7.33636L6.12983 12.8364C6.22683 12.9424 6.36183 13.0004 6.49984 13.0004C6.56084 13.0004 6.62184 12.9894 6.68084 12.9674C6.87284 12.8924 6.99984 12.7074 6.99984 12.5004V10.0004H8.39087C11.2449 10.0004 14.009 11.0224 16.175 12.8804C16.322 13.0074 16.533 13.0364 16.709 12.9544C16.887 12.8734 17 12.6954 17 12.5004C17 7.81336 13.1869 4.0003 8.49987 4.0003ZM8.39087 9.00038H6.49984C6.22383 9.00038 5.99983 9.22439 5.99983 9.50039V11.2074L2.17577 7.00035L5.99983 2.79329V4.50031C5.99983 4.77632 6.22383 5.00032 6.49984 5.00032H8.49987C10.5029 5.00032 12.3869 5.78033 13.8029 7.19635C14.96 8.35337 15.693 9.8224 15.922 11.4124C13.7319 9.8504 11.0989 9.00038 8.39087 9.00038Z" fill="#E73D2F" stroke="#E73D2F" stroke-width="0.5"/>
</svg>
