<svg width="16" height="16" viewBox="0 0 16 16" fill="none" xmlns="http://www.w3.org/2000/svg">
<path fill-rule="evenodd" clip-rule="evenodd" d="M3.63636 5.84475V1.31507C2.35105 1.31507 1.30909 2.36178 1.30909 3.65297C1.30909 4.94415 2.35105 5.99087 3.63636 5.99087L3.63874 5.99087C3.63716 5.94236 3.63636 5.89365 3.63636 5.84475ZM0 3.65297C0 1.63549 1.62806 0 3.63636 0H12.3636C14.3719 0 16 1.63549 16 3.65297C16 5.67045 14.3719 7.30594 12.3636 7.30594C12.2812 7.30594 12.1993 7.30318 12.1182 7.29775C11.5912 8.80506 10.2674 9.9356 8.65455 10.1793V13.589H9.81818C10.1797 13.589 10.4727 13.8834 10.4727 14.2466C10.4727 14.415 10.4097 14.5686 10.3061 14.6849H10.9091C11.2706 14.6849 11.5636 14.9793 11.5636 15.3425C11.5636 15.7056 11.2706 16 10.9091 16H8H5.09091C4.72941 16 4.43636 15.7056 4.43636 15.3425C4.43636 14.9793 4.72941 14.6849 5.09091 14.6849H5.69394C5.5903 14.5686 5.52727 14.415 5.52727 14.2466C5.52727 13.8834 5.82032 13.589 6.18182 13.589H7.34546V10.1793C5.73256 9.9356 4.40876 8.80506 3.88179 7.29775C3.80068 7.30318 3.71884 7.30594 3.63636 7.30594C1.62806 7.30594 0 5.67045 0 3.65297ZM12.3636 5.84475C12.3636 5.89365 12.3628 5.94236 12.3613 5.99087L12.3636 5.99087C13.649 5.99087 14.6909 4.94415 14.6909 3.65297C14.6909 2.36178 13.649 1.31507 12.3636 1.31507V5.84475ZM8.26222 2.7401C8.15657 2.51918 7.84343 2.51918 7.73778 2.7401L7.33182 3.58898C7.28941 3.67765 7.20544 3.73895 7.10838 3.75206L6.17927 3.87759C5.93747 3.91026 5.8407 4.20944 6.01721 4.37864L6.69542 5.02881C6.76627 5.09673 6.79835 5.1959 6.78077 5.29268L6.61251 6.21915C6.56872 6.46026 6.82205 6.64516 7.03679 6.52882L7.86191 6.08176C7.9481 6.03506 8.0519 6.03506 8.1381 6.08176L8.96322 6.52882C9.17795 6.64516 9.43128 6.46026 9.38749 6.21915L9.21923 5.29268C9.20165 5.1959 9.23373 5.09673 9.30458 5.02881L9.98279 4.37864C10.1593 4.20944 10.0625 3.91026 9.82073 3.87759L8.89162 3.75206C8.79456 3.73895 8.71059 3.67765 8.66818 3.58898L8.26222 2.7401Z" fill="white"/>
</svg>
