<svg width="14" height="15" viewBox="0 0 14 15" fill="none" xmlns="http://www.w3.org/2000/svg">
<path fill-rule="evenodd" clip-rule="evenodd" d="M7 0C4.92893 0 3.25 1.65141 3.25 3.68852V5.65779C2.33048 5.66614 1.79446 5.70854 1.36502 5.92376C0.894619 6.15951 0.512167 6.53569 0.272484 6.99839C0 7.5244 0 8.21299 0 9.59017V11.0656C0 12.4428 0 13.1313 0.272484 13.6574C0.512167 14.12 0.894619 14.4962 1.36502 14.732C1.8998 15 2.59987 15 4 15H10C11.4001 15 12.1002 15 12.635 14.732C13.1054 14.4962 13.4878 14.12 13.7275 13.6574C14 13.1313 14 12.4428 14 11.0656V9.59017C14 8.21299 14 7.5244 13.7275 6.99839C13.4878 6.53569 13.1054 6.15951 12.635 5.92376C12.2055 5.70854 11.6695 5.66614 10.75 5.65779V3.68852C10.75 1.65141 9.07107 0 7 0ZM9.25 5.65574V3.68852C9.25 2.46625 8.24264 1.47541 7 1.47541C5.75736 1.47541 4.75 2.46625 4.75 3.68852V5.65574H9.25ZM7.75 10.8682C8.19835 10.6131 8.5 10.1363 8.5 9.59016C8.5 8.77532 7.82843 8.11475 7 8.11475C6.17157 8.11475 5.5 8.77532 5.5 9.59016C5.5 10.1363 5.80165 10.6131 6.25 10.8682V12.0492C6.25 12.4566 6.58579 12.7869 7 12.7869C7.41421 12.7869 7.75 12.4566 7.75 12.0492V10.8682Z" fill="#E73D2F"/>
</svg>
