<svg width="95" height="30" viewBox="0 0 95 30" fill="none" xmlns="http://www.w3.org/2000/svg">
<path d="M91.6442 0H11.1731C10.0764 0 9.0482 0.551841 8.42 1.47849L0.605048 13.0215C-0.201683 14.2082 -0.201683 15.7904 0.605048 16.9785L8.42 28.5215C9.04954 29.4482 10.0751 30 11.1731 30H91.6442C93.498 30 95 28.4524 95 26.5423V3.45627C95 1.54765 93.498 0 91.6442 0ZM9.70593 18.5178C7.82267 18.504 6.30451 16.9162 6.32062 14.9758C6.33404 13.034 7.87367 11.4725 9.75828 11.4863C11.6429 11.5002 13.1584 13.0865 13.1449 15.027C13.1288 16.9702 11.5905 18.5317 9.70593 18.5178Z" fill="#E73D2F"/>
</svg>
