<svg width="115" height="30" viewBox="0 0 115 30" fill="none" xmlns="http://www.w3.org/2000/svg">
<path d="M3.34328 0H103.869C104.961 0 105.986 0.551841 106.611 1.47849L114.397 13.0215C115.201 14.2082 115.201 15.7904 114.397 16.9785L106.611 28.5215C105.984 29.4482 104.962 30 103.869 30H3.34328C1.49645 30 0 28.4524 0 26.5423V3.45627C0 1.54765 1.49645 0 3.34328 0ZM105.33 18.5178C107.206 18.504 108.719 16.9162 108.703 14.9758C108.69 13.034 107.156 11.4725 105.278 11.4863C103.4 11.5002 101.891 13.0865 101.904 15.027C101.92 16.9702 103.453 18.5316 105.33 18.5178Z" fill="#FDD647"/>
</svg>
