<svg width="11" height="14" viewBox="0 0 11 14" fill="none" xmlns="http://www.w3.org/2000/svg">
<path d="M10.073 2.74616L10.0032 2.77372L10.073 2.74615L9.60005 1.54951C9.45904 1.1923 9.06987 0.925 8.68875 0.925H1.92052C1.5394 0.925 1.15025 1.19228 1.00928 1.54936C1.00928 1.54937 1.00927 1.54938 1.00927 1.54939L0.536298 2.7462L0.536293 2.74621C0.438972 2.9926 0.366406 3.37434 0.366406 3.63992V4.40143C0.366406 4.88814 0.586309 5.32369 0.930428 5.61231V7.81516C0.603657 7.91807 0.366406 8.22651 0.366406 8.58966V12.3971C0.366406 12.8436 0.725278 13.2083 1.16848 13.2083H9.4408C9.884 13.2083 10.2428 12.8436 10.2428 12.3971V8.58966C10.2428 8.22652 10.0056 7.91807 9.67885 7.81516V5.61228C10.023 5.32367 10.2428 4.88814 10.2428 4.40143V3.63992C10.2428 3.37427 10.1703 2.99256 10.073 2.74616ZM1.80068 1.86849L1.80069 1.86846C1.80439 1.85909 1.8216 1.83713 1.8532 1.81546C1.88491 1.79372 1.91119 1.78594 1.92052 1.78594H8.68875C8.69808 1.78594 8.72435 1.79372 8.75606 1.81548C8.78765 1.83715 8.8049 1.85915 8.80863 1.8686L8.80864 1.86863L9.28157 3.06537C9.29687 3.10414 9.31224 3.15393 9.32646 3.20948H1.28277C1.29699 3.15395 1.31235 3.10419 1.32765 3.06542C1.32766 3.06541 1.32766 3.0654 1.32766 3.06539L1.80068 1.86849ZM9.39072 8.6394V12.3474H1.21853V8.6394H1.35648H2.48452H8.12473H9.25278H9.39072ZM2.91057 7.77844V5.61238C2.95902 5.57181 3.00513 5.52836 3.04849 5.48217C3.33169 5.78471 3.73258 5.97416 4.17658 5.97416C4.62056 5.97416 5.02144 5.78473 5.30463 5.48222C5.58782 5.78473 5.98869 5.97416 6.43267 5.97416C6.87667 5.97416 7.27757 5.78473 7.56076 5.48217C7.60412 5.52836 7.65022 5.57181 7.69868 5.61238V7.77844H2.91057ZM1.21851 4.40143V4.07039H2.62249V4.40143C2.62249 4.79474 2.30664 5.1132 1.92052 5.1132C1.53438 5.1132 1.21851 4.79473 1.21851 4.40143ZM4.87858 4.07039V4.40143C4.87858 4.79473 4.56271 5.1132 4.17658 5.1132C3.79047 5.1132 3.47459 4.79471 3.47459 4.40143V4.07039H4.87858ZM7.13468 4.07039V4.40143C7.13468 4.79473 6.81881 5.1132 6.43269 5.1132C6.04655 5.1132 5.7307 4.79471 5.7307 4.40143V4.07039H7.13468ZM7.98678 4.40143V4.07039H9.39075V4.40143C9.39075 4.79473 9.07487 5.1132 8.68875 5.1132C8.30264 5.1132 7.98678 4.79474 7.98678 4.40143ZM1.92052 5.97414C1.96718 5.97414 2.01318 5.97184 2.05849 5.96761V7.77844H1.78255V5.96783C1.82796 5.97197 1.87397 5.97414 1.92052 5.97414ZM8.82675 7.77844H8.55078V5.96761C8.5961 5.97184 8.6421 5.97414 8.68875 5.97414C8.73531 5.97414 8.78133 5.97197 8.82675 5.96783V7.77844Z" fill="#0E0E10" stroke="#0E0E10" stroke-width="0.15"/>
</svg>
