<svg width="19" height="19" viewBox="0 0 19 19" fill="none" xmlns="http://www.w3.org/2000/svg">
<path d="M12.0813 6.18691L14.9688 3.29941M16.6188 1.64941L14.9688 3.29941L16.6188 1.64941ZM8.69058 9.57766C9.11656 9.99797 9.45519 10.4984 9.68698 11.0501C9.91876 11.6018 10.0391 12.194 10.0411 12.7924C10.0431 13.3908 9.92674 13.9837 9.69866 14.537C9.47058 15.0902 9.13531 15.5929 8.71215 16.0161C8.289 16.4392 7.78632 16.7745 7.23305 17.0026C6.67979 17.2307 6.08688 17.3471 5.48845 17.3451C4.89002 17.3431 4.2979 17.2227 3.74618 16.9909C3.19446 16.7591 2.69404 16.4205 2.27373 15.9945C1.44719 15.1387 0.989833 13.9925 1.00017 12.8028C1.01051 11.6131 1.48771 10.4751 2.329 9.63376C3.17029 8.79247 4.30835 8.31527 5.49807 8.30493C6.68779 8.29459 7.83397 8.75195 8.68976 9.57849L8.69058 9.57766ZM8.69058 9.57766L12.0813 6.18691L8.69058 9.57766ZM12.0813 6.18691L14.5563 8.66191L17.4438 5.77441L14.9688 3.29941L12.0813 6.18691Z" stroke="#333333" stroke-width="2" stroke-linecap="round" stroke-linejoin="round"/>
</svg>
