<svg width="16" height="15" viewBox="0 0 16 15" fill="none" xmlns="http://www.w3.org/2000/svg">
<path d="M14.9455 7.32525C14.9523 10.793 12.3273 13.7004 8.87686 14.0466C5.42638 14.3928 2.2761 12.0649 1.59389 8.66487C0.911682 5.26484 2.92011 1.90186 6.23706 0.8902C9.55402 -0.121464 13.0974 1.54822 14.4288 4.75025C14.7716 5.56537 14.9473 6.44099 14.9455 7.32525Z" fill="#FFA600"/>
<path d="M14.2288 7.32548C14.2219 10.775 11.6 13.657 8.16653 13.9893C4.73302 14.3215 1.60725 11.9956 0.939163 8.61132C0.271078 5.22709 2.27849 1.88784 5.58067 0.890351C8.88284 -0.107137 12.4032 1.56233 13.7205 4.75048C14.0574 5.56709 14.2301 6.44209 14.2288 7.32548Z" fill="#FFBF00"/>
<path d="M14.0455 6.78336C14.1309 9.17465 12.9038 11.4218 10.846 12.6427C8.78812 13.8637 6.22782 13.8637 4.16996 12.6427C2.11211 11.4218 0.88508 9.17465 0.970469 6.78336C0.971111 6.08725 1.08077 5.39553 1.29547 4.73336C2.34269 2.22788 4.79244 0.59668 7.50797 0.59668C10.2235 0.59668 12.6732 2.22788 13.7205 4.73336C13.9367 5.39517 14.0464 6.08713 14.0455 6.78336Z" fill="#FFCE00"/>
<ellipse cx="7.5038" cy="7.3248" rx="5.65" ry="5.65" fill="#FFA600"/>
<ellipse cx="7.63713" cy="6.75833" rx="4.99167" ry="4.63333" fill="#FFBA00"/>
<ellipse cx="7.63714" cy="6.14212" rx="4.31667" ry="4.00833" fill="#FFCE00"/>
<path d="M1.52047 6.75851C1.52047 6.75851 2.56213 1.31685 7.5288 1.31685V0.775179C7.5288 0.775179 2.36213 0.416845 1.52047 6.75851Z" fill="#F9E238"/>
<path d="M13.5455 6.75851C13.5455 6.75851 12.5038 1.31685 7.5288 1.31685V0.775179C7.5288 0.775179 12.7038 0.416845 13.5455 6.75851Z" fill="#F9E238"/>
<g style="mix-blend-mode:lighten" opacity="0.2">
<path d="M10.1121 1.12463L1.67047 10.6746C1.21435 9.86658 0.930613 8.97279 0.837135 8.04963L7.41214 0.599627H7.5038C8.39969 0.59759 9.2868 0.776146 10.1121 1.12463Z" fill="#404040"/>
<path d="M14.1288 6.16588L7.16214 14.0409C5.97446 13.9759 4.82482 13.5994 3.8288 12.9492L12.6455 2.94922C13.0989 3.47934 13.4646 4.07857 13.7288 4.72422C13.9174 5.1877 14.0516 5.67149 14.1288 6.16588Z" fill="#404040"/>
</g>
<path fill-rule="evenodd" clip-rule="evenodd" d="M7.7538 10.7166V11.4333C7.7538 11.5023 7.69784 11.5583 7.6288 11.5583H7.0288C6.96304 11.5539 6.91199 11.4992 6.91213 11.4333V10.7499C6.91228 10.684 6.86123 10.6293 6.79547 10.6249C6.11943 10.5809 5.46565 10.3658 4.89547 9.99994C4.85907 9.95656 4.85907 9.89331 4.89547 9.84994L5.26213 9.0166C5.27584 8.98398 5.30362 8.95934 5.33764 8.94962C5.37166 8.9399 5.40826 8.94615 5.43713 8.9666C5.85375 9.23108 6.32295 9.40169 6.81213 9.4666C6.84666 9.4713 6.88158 9.46139 6.90847 9.43924C6.93537 9.41709 6.9518 9.38472 6.9538 9.34994V8.22494C6.95509 8.16912 6.91667 8.12022 6.86213 8.10827C5.9538 7.88327 4.9788 7.54994 4.9788 6.38327C4.9788 5.54993 5.58713 4.7666 6.84547 4.5916C6.90488 4.58371 6.95033 4.53477 6.9538 4.47493V3.7666C6.95365 3.70069 7.00471 3.646 7.07047 3.6416H7.67047C7.7395 3.6416 7.79547 3.69757 7.79547 3.7666V4.44993C7.79491 4.51295 7.84134 4.56653 7.9038 4.57493C8.41641 4.6159 8.91537 4.76049 9.37047 4.99993C9.42197 5.03463 9.44271 5.10029 9.42047 5.15827L9.08713 5.9916C9.07469 6.02314 9.04915 6.0477 9.01715 6.0589C8.98515 6.0701 8.94986 6.06683 8.92047 6.04994C8.59811 5.88294 8.25264 5.76498 7.89547 5.69993C7.85954 5.6951 7.82328 5.7061 7.79609 5.73009C7.76891 5.75407 7.75348 5.78868 7.7538 5.82493V7.00827C7.75251 7.06408 7.79093 7.11299 7.84547 7.12493C8.7538 7.3416 9.71213 7.67493 9.71213 8.7916C9.71213 9.62494 9.1038 10.3833 7.8538 10.5749C7.82097 10.5788 7.79133 10.5965 7.77226 10.6235C7.75319 10.6505 7.74648 10.6844 7.7538 10.7166ZM6.92047 6.71661V5.83328C6.91754 5.7944 6.89663 5.75911 6.86394 5.73787C6.83125 5.71662 6.79052 5.71184 6.7538 5.72495C6.49066 5.78878 6.30288 6.02094 6.29547 6.29161C6.29547 6.54161 6.47047 6.69161 6.7538 6.80828C6.78699 6.81841 6.82289 6.81428 6.85292 6.7969C6.88294 6.77952 6.90439 6.75043 6.91213 6.71661H6.92047ZM7.9288 8.40826C8.19547 8.52493 8.37047 8.67493 8.37047 8.9166H8.36213C8.35798 9.1748 8.17979 9.39753 7.9288 9.45826C7.89218 9.47565 7.84917 9.47278 7.81518 9.45069C7.7812 9.4286 7.76111 9.39045 7.76213 9.34993V8.5166C7.76506 8.47772 7.78597 8.44243 7.81866 8.42118C7.85135 8.39993 7.89208 8.39516 7.9288 8.40826Z" fill="#FFA600"/>
<path fill-rule="evenodd" clip-rule="evenodd" d="M8.0038 10.4247V11.1413C8.00612 11.1737 7.99486 11.2056 7.97272 11.2293C7.95059 11.253 7.91958 11.2664 7.88713 11.2663H7.28713C7.2181 11.2663 7.16213 11.2104 7.16213 11.1413V10.458C7.15866 10.3982 7.11321 10.3492 7.0538 10.3413C6.37646 10.3033 5.71985 10.094 5.14547 9.73301C5.11213 9.68857 5.11213 9.62746 5.14547 9.58301L5.5038 8.74968C5.53747 8.72499 5.58124 8.71874 5.62047 8.73301C6.03933 8.99291 6.50751 9.16315 6.99547 9.23301C7.03004 9.23532 7.06402 9.22318 7.08929 9.19948C7.11457 9.17579 7.12888 9.14266 7.1288 9.10801V7.93301C7.12713 7.87823 7.08996 7.83094 7.03713 7.81635C6.1288 7.59135 5.1538 7.26635 5.1538 6.09968C5.1538 5.26635 5.77047 4.48301 7.0288 4.29968C7.06642 4.31011 7.10674 4.29949 7.13434 4.27189C7.16194 4.24428 7.17256 4.20396 7.16213 4.16635V3.47468C7.1573 3.43875 7.1683 3.40249 7.19229 3.37531C7.21627 3.34812 7.25088 3.33269 7.28713 3.33301H7.88713C7.95157 3.33301 8.0038 3.38525 8.0038 3.44968V4.16635C8.00727 4.22618 8.05272 4.27512 8.11213 4.28301C8.64049 4.32777 9.15395 4.48096 9.62047 4.73301C9.64768 4.74553 9.6685 4.76876 9.67797 4.79718C9.68745 4.8256 9.68473 4.85667 9.67047 4.88301L9.34547 5.71635C9.33119 5.74839 9.3041 5.77296 9.27082 5.78406C9.23753 5.79515 9.20112 5.79175 9.17047 5.77468C8.84528 5.59049 8.48962 5.46629 8.12047 5.40801C8.08549 5.40033 8.04892 5.40914 8.02127 5.4319C7.99362 5.45467 7.97797 5.48888 7.9788 5.52468V6.71635C7.97797 6.75215 7.99362 6.78635 8.02127 6.80912C8.04892 6.83189 8.08549 6.8407 8.12047 6.83301C9.0288 7.05801 9.99547 7.38301 9.99547 8.49968C9.99547 9.33301 9.38713 10.0913 8.13713 10.2747C8.09774 10.2712 8.05902 10.2866 8.03275 10.3162C8.00648 10.3457 7.99574 10.386 8.0038 10.4247ZM7.17047 6.43301V5.59968C7.17009 5.55931 7.15023 5.52161 7.11716 5.49846C7.08408 5.47531 7.04186 5.46956 7.0038 5.48301C6.73772 5.54764 6.54914 5.78422 6.54547 6.05801C6.54547 6.30801 6.7288 6.45801 7.0038 6.56635C7.04403 6.58294 7.09015 6.57576 7.12343 6.54773C7.15672 6.5197 7.17164 6.47548 7.16213 6.43301H7.17047ZM8.18713 8.11633C8.4538 8.233 8.62047 8.39133 8.62047 8.633H8.61214C8.61488 8.89538 8.43454 9.12427 8.1788 9.183C8.1409 9.19297 8.10054 9.18575 8.06844 9.16328C8.03634 9.14081 8.01575 9.10535 8.01213 9.06634V8.233C8.01142 8.19046 8.03238 8.15048 8.06778 8.12688C8.10318 8.10329 8.14815 8.09931 8.18713 8.11633Z" fill="#404040"/>
<path d="M6.6788 1.2C6.01606 1.2 5.4788 1.73726 5.4788 2.4C5.47422 1.73591 4.93457 1.19998 4.27047 1.2C4.59017 1.20222 4.89754 1.07677 5.12439 0.851488C5.35124 0.626203 5.47881 0.319709 5.4788 0C5.47656 0.318941 5.60227 0.625467 5.8278 0.850998C6.05333 1.07653 6.35986 1.20224 6.6788 1.2Z" fill="#404040"/>
<path d="M5.09547 2.01621C4.88562 2.02063 4.71655 2.18969 4.71213 2.39954C4.71213 2.18783 4.54051 2.01621 4.3288 2.01621C4.52972 2.02112 4.69879 1.86675 4.71213 1.66621C4.72947 1.8648 4.89612 2.01697 5.09547 2.01621Z" fill="#404040"/>
<path d="M6.1038 2.59147C5.89209 2.59147 5.72047 2.7631 5.72047 2.97481C5.71605 2.76495 5.54699 2.59589 5.33713 2.59147C5.54699 2.58705 5.71605 2.41799 5.72047 2.20814C5.72047 2.41985 5.89209 2.59147 6.1038 2.59147Z" fill="#404040"/>
<path d="M6.3038 12.1086C5.97972 12.1063 5.66848 12.2351 5.44089 12.4659C5.2133 12.6966 5.08871 13.0096 5.09547 13.3336C5.09771 13.0147 4.972 12.7081 4.74647 12.4826C4.52094 12.2571 4.21441 12.1314 3.89547 12.1336C4.55821 12.1336 5.09547 11.5963 5.09547 10.9336C5.11352 11.5879 5.64926 12.1088 6.3038 12.1086Z" fill="#404040"/>
<path d="M4.72047 12.9255C4.50876 12.9255 4.33713 13.0971 4.33713 13.3088C4.33271 13.0989 4.16365 12.9299 3.9538 12.9255C4.16365 12.921 4.33271 12.752 4.33713 12.5421C4.33713 12.7538 4.50876 12.9255 4.72047 12.9255Z" fill="#404040"/>
<path d="M5.72047 13.4997C5.50876 13.4997 5.33713 13.6713 5.33713 13.883C5.33943 13.7807 5.29979 13.6818 5.22739 13.6094C5.155 13.537 5.05616 13.4974 4.9538 13.4997C5.16551 13.4997 5.33713 13.328 5.33713 13.1163C5.34155 13.3262 5.51062 13.4953 5.72047 13.4997Z" fill="#404040"/>
<path d="M15.0538 4.1668C14.3929 4.17134 13.8583 4.70595 13.8538 5.3668C13.8493 4.70595 13.3147 4.17134 12.6538 4.1668C13.3165 4.1668 13.8538 3.62954 13.8538 2.9668C13.8538 3.62954 14.3911 4.1668 15.0538 4.1668Z" fill="#404040"/>
</svg>
