<svg width="13" height="14" viewBox="0 0 13 14" fill="none" xmlns="http://www.w3.org/2000/svg">
<path fill-rule="evenodd" clip-rule="evenodd" d="M2.66004 3.56002C2.66004 1.59387 4.25391 0 6.22005 0C8.1862 0 9.78007 1.59387 9.78007 3.56002V4.63512C11.1577 5.09655 12.1874 6.30012 12.4002 7.77674C12.4403 8.05482 12.4402 8.36972 12.4401 8.80886V8.80887V8.80891L12.4401 8.8797L12.4401 8.9505V8.95054V8.95055C12.4402 9.38969 12.4403 9.70459 12.4002 9.98267C12.1535 11.6948 10.8085 13.0398 9.09636 13.2865C8.81827 13.3266 8.50336 13.3265 8.06419 13.3264H8.06418H8.06417L7.9934 13.3264H4.44671L4.37594 13.3264H4.37593H4.37592C3.93675 13.3265 3.62184 13.3266 3.34375 13.2865C1.63164 13.0398 0.286626 11.6948 0.0398983 9.98267C-0.00017621 9.70458 -9.79496e-05 9.38966 1.11269e-05 8.95048L2.27498e-05 8.8797L1.11269e-05 8.80893C-9.79496e-05 8.36975 -0.00017621 8.05483 0.0398983 7.77674C0.252691 6.30012 1.28243 5.09655 2.66004 4.63512V3.56002ZM7.98007 3.56002V4.43302H4.46004V3.56002C4.46004 2.58799 5.24802 1.8 6.22005 1.8C7.19208 1.8 7.98007 2.58799 7.98007 3.56002ZM4.44671 6.23302C3.90758 6.23302 3.73339 6.23534 3.60049 6.25449C2.67859 6.38734 1.95435 7.11158 1.82149 8.03349C1.80234 8.16639 1.80002 8.34058 1.80002 8.8797C1.80002 9.41883 1.80234 9.59302 1.82149 9.72592C1.95435 10.6478 2.67859 11.3721 3.60049 11.5049C3.73339 11.5241 3.90758 11.5264 4.44671 11.5264H7.9934C8.53253 11.5264 8.70672 11.5241 8.83962 11.5049C9.76152 11.3721 10.4858 10.6478 10.6186 9.72592C10.6378 9.59302 10.6401 9.41883 10.6401 8.8797C10.6401 8.34058 10.6378 8.16639 10.6186 8.03349C10.4858 7.11158 9.76152 6.38734 8.83962 6.25449C8.70672 6.23534 8.53253 6.23302 7.9934 6.23302H4.44671ZM6.81117 9.31269C7.16454 9.10827 7.40228 8.72621 7.40228 8.28862C7.40228 7.63569 6.87298 7.10639 6.22005 7.10639C5.56712 7.10639 5.03782 7.63569 5.03782 8.28862C5.03782 8.72621 5.27557 9.10827 5.62894 9.31269V10.3575C5.62894 10.684 5.89359 10.9486 6.22005 10.9486C6.54651 10.9486 6.81117 10.684 6.81117 10.3575V9.31269Z" fill="#262F56"/>
</svg>
