<svg width="24" height="24" viewBox="0 0 24 24" fill="none" xmlns="http://www.w3.org/2000/svg">
<rect width="24" height="24" fill="#E8E8E8"/>
<g id="Pubic Demos" clip-path="url(#clip0)">
<rect width="1600" height="1008" transform="translate(-892 -254)" fill="white"/>
<g id="Component 71">
<circle id="Oval" cx="12" cy="12" r="11.5" fill="white" stroke="#BDBDBD"/>
<g id="Frame">
<g id="Group">
<g id="Group_2">
<path id="Vector" d="M16.9918 12.4896C16.6938 12.4896 16.3993 12.5332 16.1163 12.6192L12.4683 13.6291V8.46953C12.4683 8.21106 12.6786 8.00078 12.9371 8.00078C13.1956 8.00078 13.4058 8.21106 13.4058 8.46953V12.116H13.8746C15.6839 12.116 17.1558 10.6441 17.1558 8.83478C17.1558 7.37069 16.1724 6.07166 14.7625 5.67522L8.70793 4V12.0358L6.27853 12.7083C5.99165 12.7801 5.71665 12.8942 5.46106 13.0474C4.03865 13.9002 3.57528 15.7513 4.42815 17.1737C4.76593 17.7371 5.26528 18.1654 5.87222 18.4124C6.23403 18.5596 6.62375 18.6343 7.01294 18.6342C7.25459 18.6342 7.49609 18.6055 7.73047 18.5474L8.70793 18.2769V19.0887L11.9996 20L17.8615 18.3773L17.8738 18.3737C18.4765 18.1891 19.0178 17.8086 19.3981 17.3023C19.7916 16.7784 19.9996 16.1543 19.9996 15.4975C19.9996 13.8389 18.6503 12.4896 16.9918 12.4896ZM8.7079 14.67L6.24278 15.3524L6.4929 16.2559L8.7079 15.6427V17.3042L7.49903 17.6389C7.33297 17.6795 7.16609 17.6992 7.00137 17.6992C6.28703 17.6992 5.61415 17.3287 5.23218 16.6917C4.64515 15.7126 4.96409 14.4384 5.94315 13.8514C6.12078 13.7449 6.31165 13.6659 6.51047 13.6167L8.7079 13.0085V14.67ZM11.5308 8.46953V18.8975L9.64543 18.3755V5.23213L14.5106 6.57828C15.5161 6.861 16.2183 7.78894 16.2183 8.83481C16.2183 9.96666 15.4118 10.9137 14.3433 11.1315V8.46953C14.3433 7.69412 13.7125 7.06328 12.9371 7.06328C12.1617 7.06328 11.5308 7.69412 11.5308 8.46953ZM17.6049 17.4756L12.4683 18.8975V17.236L17.7567 15.7721L17.5066 14.8685L12.4683 16.2633V14.6018L16.3723 13.5211L16.3845 13.5175C16.5804 13.4575 16.7847 13.4271 16.9918 13.4271C18.1334 13.4271 19.0621 14.3559 19.0621 15.4974C19.0621 16.4116 18.4767 17.2058 17.6049 17.4756Z" fill="#828282"/>
</g>
</g>
</g>
</g>
<g id="Group 5759">
</g>
</g>
<defs>
<clipPath id="clip0">
<rect width="1600" height="1008" fill="white" transform="translate(-892 -254)"/>
</clipPath>
</defs>
</svg>
