<svg width="16" height="16" viewBox="0 0 16 16" fill="none" xmlns="http://www.w3.org/2000/svg">
<path d="M12.9918 8.48962C12.6938 8.48962 12.3993 8.53322 12.1163 8.61919L8.46833 9.62906V4.46953C8.46833 4.21106 8.67861 4.00078 8.93708 4.00078C9.19554 4.00078 9.40583 4.21106 9.40583 4.46953V8.11603H9.87458C11.6839 8.11603 13.1558 6.64406 13.1558 4.83478C13.1558 3.37069 12.1724 2.07166 10.7625 1.67522L4.70792 0V8.03581L2.27851 8.70831C1.99164 8.78009 1.71664 8.89416 1.46104 9.04741C0.0386385 9.90025 -0.424737 11.7513 0.428138 13.1737C0.76592 13.7371 1.26526 14.1654 1.8722 14.4124C2.23401 14.5596 2.62373 14.6343 3.01292 14.6342C3.25458 14.6342 3.49608 14.6055 3.73045 14.5474L4.70792 14.2769V15.0887L7.99958 16L13.8615 14.3773L13.8738 14.3737C14.4765 14.1891 15.0178 13.8086 15.398 13.3023C15.7916 12.7784 15.9996 12.1543 15.9996 11.4975C15.9996 9.83894 14.6503 8.48962 12.9918 8.48962ZM4.70789 10.67L2.24276 11.3524L2.49289 12.2559L4.70789 11.6427V13.3042L3.49901 13.6389C3.33295 13.6795 3.16608 13.6992 3.00136 13.6992C2.28701 13.6992 1.61414 13.3287 1.23217 12.6917C0.645138 11.7126 0.964076 10.4384 1.94314 9.85141C2.12076 9.74491 2.31164 9.66591 2.51045 9.61666L4.70789 9.00853V10.67ZM7.53083 4.46953V14.8975L5.64542 14.3755V1.23213L10.5106 2.57828C11.5161 2.861 12.2183 3.78894 12.2183 4.83481C12.2183 5.96666 11.4118 6.91369 10.3433 7.13147V4.46953C10.3433 3.69412 9.71248 3.06328 8.93708 3.06328C8.16167 3.06328 7.53083 3.69412 7.53083 4.46953ZM13.6049 13.4756L8.46833 14.8975V13.236L13.7567 11.7721L13.5066 10.8685L8.46833 12.2633V10.6018L12.3723 9.52106L12.3845 9.51753C12.5804 9.45753 12.7847 9.42712 12.9918 9.42712C14.1334 9.42712 15.0621 10.3559 15.0621 11.4974C15.0621 12.4116 14.4767 13.2058 13.6049 13.4756Z" fill="#828282"/>
</svg>
